SplineFontDB: 3.2
FontName: Astra-Style-Rg
FullName: Astra-Style-Regular
FamilyName: Astra-Style-086
Weight: Book
Copyright: Copyright (c) 2026, Ezequiel Selios (ezequielselios3@gmail.com),\nwith Reserved Font Name Astra-Style-Rg.\n\nCopyright (c) 2026, Luca Echetto (lucaechetto@gmail.com).\n\nThis Font Software is licensed under the SIL Open Font License, Version 1.1.\nThis license is copied below, and is also available with a FAQ at:\nhttp://scripts.sil.org/OFL
Version: 004.002
ItalicAngle: 0
UnderlinePosition: -100
UnderlineWidth: 50
Ascent: 800
Descent: 200
InvalidEm: 0
sfntRevision: 0x00010000
LayerCount: 2
Layer: 0 1 "Atr+AOEA-s" 1
Layer: 1 1 "Anterior" 0
XUID: [1021 729 483349611 14903]
StyleMap: 0x0040
FSType: 0
OS2Version: 4
OS2_WeightWidthSlopeOnly: 0
OS2_UseTypoMetrics: 0
CreationTime: 1775009298
ModificationTime: 1775194042
PfmFamily: 17
TTFWeight: 400
TTFWidth: 5
LineGap: 90
VLineGap: 0
Panose: 2 0 5 3 0 0 0 0 0 0
OS2TypoAscent: 800
OS2TypoAOffset: 0
OS2TypoDescent: -200
OS2TypoDOffset: 0
OS2TypoLinegap: 90
OS2WinAscent: 780
OS2WinAOffset: 0
OS2WinDescent: 34
OS2WinDOffset: 0
HheadAscent: 780
HheadAOffset: 0
HheadDescent: -34
HheadDOffset: 0
OS2SubXSize: 650
OS2SubYSize: 700
OS2SubXOff: 0
OS2SubYOff: 140
OS2SupXSize: 650
OS2SupYSize: 700
OS2SupXOff: 0
OS2SupYOff: 480
OS2StrikeYSize: 49
OS2StrikeYPos: 258
OS2CapHeight: 646
OS2XHeight: 456
OS2Vendor: 'CLGR'
OS2CodePages: 00000003.00000000
OS2UnicodeRanges: 00000003.00000000.00000000.00000000
MarkAttachClasses: 1
DEI: 91125
TtTable: prep
PUSHW_1
 511
SCANCTRL
PUSHB_1
 4
SCANTYPE
EndTTInstrs
ShortTable: cvt  2
  33
  633
EndShort
ShortTable: maxp 16
  1
  0
  117
  151
  6
  0
  0
  2
  0
  1
  1
  0
  64
  0
  0
  0
EndShort
LangName: 1033 "" "" "Regular" "" "" "Version 001.009" "" "" "" "" "Created with Calligraphr.com" "" "" "" "http://scripts.sil.org/OFL" "" "Historia Fuente Exp_086" "Regular"

StartChar: .notdef
Encoding: 65536 -1 0
Width: 383
GlyphClass: 1
Flags: W
LayerCount: 2
Fore
SplineSet
85 33 m 1,0,-1
 284 33 l 1,1,-1
 284 633 l 1,2,-1
 85 633 l 1,3,-1
 85 33 l 1,0,-1
52 0 m 1,4,-1
 52 666 l 1,5,-1
 317 666 l 1,6,-1
 317 0 l 1,7,-1
 52 0 l 1,4,-1
EndSplineSet
Validated: 1
EndChar

StartChar: exclam
Encoding: 33 33 5
Width: 228
GlyphClass: 1
Flags: W
LayerCount: 2
Fore
SplineSet
62 39 m 0,0,1
 62 66 62 66 76 81 c 128,-1,2
 90 96 90 96 114 96 c 128,-1,3
 138 96 138 96 152 80 c 128,-1,4
 166 64 166 64 166 44 c 128,-1,5
 166 24 166 24 156 8.5 c 128,-1,6
 146 -7 146 -7 139.5 -10 c 128,-1,7
 133 -13 133 -13 120 -13 c 0,8,9
 62 -11 62 -11 62 39 c 0,0,1
82 289 m 2,10,11
 72 467 72 467 72 481.5 c 128,-1,12
 72 496 72 496 76 498 c 0,13,14
 81 500 81 500 118 502 c 2,15,-1
 152 503 l 1,16,-1
 148 334 l 2,17,18
 144 164 144 164 142 146 c 2,19,-1
 138 126 l 1,20,-1
 116 127 l 1,21,-1
 90 129 l 1,22,-1
 82 289 l 2,10,11
EndSplineSet
Validated: 1
EndChar

StartChar: quotedbl
Encoding: 34 34 6
Width: 334
GlyphClass: 1
Flags: W
LayerCount: 2
Back
SplineSet
168.500976562 665 m 4,0,1
 168.500976562 681 168.500976562 681 219.500976562 681 c 4,2,3
 246.500976562 681 246.500976562 681 248.500976562 677 c 4,4,5
 253.500976562 667 253.500976562 667 244.000976562 582 c 132,-1,6
 234.500976562 497 234.500976562 497 231.500976562 491 c 132,-1,7
 228.500976562 485 228.500976562 485 208.500976562 486 c 6,8,-1
 190.500976562 487 l 5,9,-1
 178.500976562 580 l 6,10,11
 168.500976562 657 168.500976562 657 168.500976562 665 c 4,0,1
126.500976562 656 m 5,12,-1
 110.500976562 499 l 6,13,14
 110.500976562 495 110.500976562 495 90.5009765625 495 c 6,15,-1
 70.5009765625 495 l 5,16,-1
 54.5009765625 581 l 6,17,18
 40.5009765625 657 40.5009765625 657 40.5009765625 662 c 4,19,20
 41.5009765625 675 41.5009765625 675 84.5009765625 675 c 6,21,-1
 126.500976562 675 l 5,22,-1
 126.500976562 656 l 5,12,-1
EndSplineSet
Fore
SplineSet
127 656 m 1,0,-1
 111 499 l 2,1,2
 111 495 111 495 91 495 c 2,3,-1
 71 495 l 1,4,-1
 55 581 l 2,5,6
 41 661 41 661 41 663 c 0,7,8
 41 675 41 675 85 675 c 2,9,-1
 127 675 l 1,10,-1
 127 656 l 1,0,-1
169 665 m 0,11,12
 169 681 169 681 220 681 c 0,13,14
 248 681 248 681 249 677 c 128,-1,15
 250 673 250 673 250 663 c 0,16,17
 250 639 250 639 244 580 c 0,18,19
 235 495 235 495 231.5 490 c 128,-1,20
 228 485 228 485 209 486 c 2,21,-1
 191 487 l 1,22,-1
 179 580 l 2,23,24
 169 657 169 657 169 665 c 0,11,12
EndSplineSet
Validated: 1
EndChar

StartChar: numbersign
Encoding: 35 35 7
Width: 549
GlyphClass: 1
Flags: W
LayerCount: 2
Fore
SplineSet
97 451 m 1,0,-1
 126 502 l 1,1,-1
 197 502 l 1,2,-1
 184 446 l 1,3,-1
 97 451 l 1,0,-1
62 291 m 1,4,-1
 91 342 l 1,5,-1
 162 342 l 1,6,-1
 149 286 l 1,7,-1
 62 291 l 1,4,-1
257 641 m 1,8,-1
 288 621 l 1,9,-1
 271 508 l 1,10,-1
 342 499 l 1,11,-1
 332 444 l 1,12,-1
 256 441 l 1,13,-1
 240 350 l 1,14,-1
 306 346 l 1,15,-1
 304 296 l 1,16,-1
 232 293 l 1,17,-1
 194 114 l 1,18,-1
 151 143 l 1,19,-1
 257 641 l 1,8,-1
402 640 m 1,20,-1
 433 620 l 1,21,-1
 416 507 l 1,22,-1
 487 498 l 1,23,-1
 477 443 l 1,24,-1
 401 440 l 1,25,-1
 385 350 l 1,26,-1
 451 345 l 1,27,-1
 449 295 l 1,28,-1
 377 292 l 1,29,-1
 339 113 l 1,30,-1
 296 142 l 1,31,-1
 402 640 l 1,20,-1
EndSplineSet
Validated: 1
EndChar

StartChar: dollar
Encoding: 36 36 8
Width: 522
GlyphClass: 1
Flags: W
LayerCount: 2
Fore
SplineSet
66 343 m 2,0,1
 66 344 66 344 87.5 344 c 128,-1,2
 109 344 109 344 112.5 340.5 c 128,-1,3
 116 337 116 337 116 315.5 c 128,-1,4
 116 294 116 294 130 285 c 128,-1,5
 144 276 144 276 191 269 c 2,6,-1
 244 261 l 1,7,-1
 248 228 l 2,8,9
 251 213 251 213 251 204 c 128,-1,10
 251 195 251 195 250 193 c 2,11,-1
 250 127 l 1,12,-1
 234 127 l 1,13,-1
 234 191 l 1,14,15
 233 191 233 191 231 191 c 0,16,17
 230 191 230 191 228 191 c 0,18,19
 214 191 214 191 170 198 c 0,20,21
 110 208 110 208 90 214 c 2,22,-1
 63 223 l 1,23,-1
 65 282 l 1,24,-1
 66 343 l 2,0,1
295 353 m 0,25,26
 280 359 280 359 277.5 365.5 c 128,-1,27
 275 372 275 372 275 405 c 128,-1,28
 275 438 275 438 277 446 c 128,-1,29
 279 454 279 454 291.5 454 c 128,-1,30
 304 454 304 454 344 434.5 c 128,-1,31
 384 415 384 415 404.5 389.5 c 128,-1,32
 425 364 425 364 425 323 c 128,-1,33
 425 282 425 282 397 247 c 128,-1,34
 369 212 369 212 316 198 c 0,35,36
 301 194 301 194 295 194 c 2,37,-1
 288 194 l 1,38,-1
 288 123 l 1,39,-1
 273 123 l 1,40,-1
 273 207 l 1,41,-1
 275 207 l 1,42,-1
 275 228 l 2,43,44
 275 234 275 234 275 239 c 0,45,46
 276 256 276 256 278 262 c 0,47,48
 282 270 282 270 294 275 c 0,49,50
 325 287 325 287 325 314 c 128,-1,51
 325 341 325 341 295 353 c 0,25,26
460 527 m 2,52,53
 460 486 460 486 444 486 c 2,54,-1
 443 486 l 2,55,56
 413 488 413 488 408.5 494 c 128,-1,57
 404 500 404 500 404 520.5 c 128,-1,58
 404 541 404 541 400 544 c 128,-1,59
 396 547 396 547 334 553 c 2,60,-1
 275 558 l 1,61,-1
 275 630 l 1,62,-1
 275 697 l 1,63,-1
 297 697 l 1,64,-1
 297 630 l 1,65,-1
 320 630 l 2,66,67
 367 628 367 628 412 620 c 2,68,-1
 458 612 l 1,69,-1
 460 552 l 1,70,-1
 460 527 l 2,52,53
110 514 m 0,71,72
 110 537 110 537 116 552 c 128,-1,73
 122 567 122 567 148 591 c 0,74,75
 187 626 187 626 217 626 c 0,76,77
 218 626 218 626 222 627 c 1,78,-1
 222 698 l 1,79,-1
 243 698 l 1,80,-1
 243 622 l 1,81,82
 246 622 246 622 246 594 c 128,-1,83
 246 566 246 566 243 557 c 128,-1,84
 240 548 240 548 229 545 c 0,85,86
 206 539 206 539 206 515 c 0,87,88
 206 487 206 487 228 477 c 0,89,90
 240 471 240 471 243 460.5 c 128,-1,91
 246 450 246 450 246 420 c 2,92,-1
 246 372 l 1,93,-1
 226 376 l 2,94,95
 197 383 197 383 170 400 c 0,96,97
 110 438 110 438 110 514 c 0,71,72
EndSplineSet
Validated: 1
EndChar

StartChar: percent
Encoding: 37 37 9
Width: 635
GlyphClass: 1
Flags: W
LayerCount: 2
Fore
SplineSet
464 458 m 1,0,1
 566 452 566 452 571 311 c 2,2,-1
 572 288 l 2,3,4
 572 206 572 206 528 162 c 0,5,6
 500 134 500 134 469 134 c 0,7,8
 400 134 400 134 367 202 c 0,9,10
 358 220 358 220 355.5 233.5 c 128,-1,11
 353 247 353 247 351 287 c 2,12,-1
 351 306 l 2,13,14
 351 411 351 411 407 445 c 0,15,16
 427 458 427 458 450 458 c 2,17,-1
 464 458 l 1,0,1
496 303 m 2,18,19
 496 396 496 396 460.5 396 c 128,-1,20
 425 396 425 396 425 297 c 128,-1,21
 425 198 425 198 462 198 c 0,22,23
 496 198 496 198 496 294 c 2,24,-1
 496 303 l 2,18,19
412 642 m 0,25,26
 412 646 412 646 443.5 646 c 128,-1,27
 475 646 475 646 475 636 c 0,28,29
 474 626 474 626 358 414 c 128,-1,30
 242 202 242 202 226 170 c 128,-1,31
 210 138 210 138 207.5 135.5 c 128,-1,32
 205 133 205 133 177 136.5 c 128,-1,33
 149 140 149 140 149 146 c 0,34,35
 149 158 149 158 280.5 396 c 128,-1,36
 412 634 412 634 412 642 c 0,25,26
176 694 m 1,37,38
 278 688 278 688 283 547 c 2,39,-1
 284 524 l 2,40,41
 284 442 284 442 240 398 c 0,42,43
 212 370 212 370 181 370 c 0,44,45
 112 370 112 370 79 438 c 0,46,47
 70 456 70 456 67.5 469.5 c 128,-1,48
 65 483 65 483 63 523 c 2,49,-1
 63 542 l 2,50,51
 63 647 63 647 119 681 c 0,52,53
 139 694 139 694 162 694 c 2,54,-1
 176 694 l 1,37,38
208 539 m 2,55,56
 208 632 208 632 172.5 632 c 128,-1,57
 137 632 137 632 137 533 c 128,-1,58
 137 434 137 434 174 434 c 0,59,60
 208 434 208 434 208 530 c 2,61,-1
 208 539 l 2,55,56
EndSplineSet
Validated: 1
EndChar

StartChar: ampersand
Encoding: 38 38 10
Width: 600
GlyphClass: 1
Flags: W
LayerCount: 2
Fore
SplineSet
369 158 m 2,0,1
 320 124 320 124 206 124 c 0,2,3
 164 124 164 124 148.5 128.5 c 128,-1,4
 133 133 133 133 107 158 c 128,-1,5
 81 183 81 183 72 202 c 128,-1,6
 63 221 63 221 63 257 c 128,-1,7
 63 293 63 293 69 311 c 0,8,9
 81 343 81 343 135 384 c 0,10,11
 136 385 136 385 145 392 c 128,-1,12
 154 399 154 399 155 400 c 128,-1,13
 156 401 156 401 156 403 c 0,14,15
 156 410 156 410 142 428 c 0,16,17
 124 452 124 452 124 467 c 2,18,-1
 124 475 l 2,19,20
 126 484 126 484 117.5 491 c 128,-1,21
 109 498 109 498 109 524.5 c 128,-1,22
 109 551 109 551 118.5 569 c 128,-1,23
 128 587 128 587 148.5 605 c 128,-1,24
 169 623 169 623 187 629.5 c 128,-1,25
 205 636 205 636 244 636 c 128,-1,26
 283 636 283 636 301.5 627.5 c 128,-1,27
 320 619 320 619 340 599 c 128,-1,28
 360 579 360 579 366 563.5 c 128,-1,29
 372 548 372 548 372 524 c 128,-1,30
 372 500 372 500 364 492 c 128,-1,31
 356 484 356 484 356 475 c 0,32,33
 356 457 356 457 311 415 c 0,34,35
 296 401 296 401 290 397.5 c 128,-1,36
 284 394 284 394 284 392 c 0,37,38
 284 385 284 385 337 333.5 c 128,-1,39
 390 282 390 282 395.5 282 c 128,-1,40
 401 282 401 282 417 328.5 c 128,-1,41
 433 375 433 375 436.5 380 c 128,-1,42
 440 385 440 385 472 385 c 128,-1,43
 504 385 504 385 508 381 c 128,-1,44
 512 377 512 377 512 366 c 128,-1,45
 512 355 512 355 497 316 c 128,-1,46
 482 277 482 277 465.5 254.5 c 128,-1,47
 449 232 449 232 449 229 c 128,-1,48
 449 226 449 226 493 183 c 128,-1,49
 537 140 537 140 537 130.5 c 128,-1,50
 537 121 537 121 489 121 c 2,51,-1
 447 121 l 1,52,53
 421 148 421 148 394 174 c 1,54,-1
 369 158 l 2,0,1
287 507 m 0,55,56
 287 552 287 552 263 560 c 0,57,58
 254 564 254 564 236 564 c 128,-1,59
 218 564 218 564 208 559 c 0,60,61
 189 550 189 550 189 517.5 c 128,-1,62
 189 485 189 485 209 462 c 0,63,64
 209 461 209 461 216 453 c 128,-1,65
 223 445 223 445 227.5 444.5 c 128,-1,66
 232 444 232 444 246.5 454.5 c 128,-1,67
 261 465 261 465 264 467 c 0,68,69
 287 483 287 483 287 507 c 0,55,56
147 256 m 0,70,71
 147 189 147 189 230 189 c 0,72,73
 279 189 279 189 319 212 c 2,74,-1
 342 225 l 1,75,-1
 279 285 l 2,76,77
 215 345 215 345 210 347 c 2,78,-1
 209 347 l 2,79,80
 202 347 202 347 187 334 c 0,81,82
 147 298 147 298 147 256 c 0,70,71
EndSplineSet
Validated: 1
EndChar

StartChar: quotesingle
Encoding: 39 39 11
Width: 201
GlyphClass: 1
Flags: W
LayerCount: 2
Back
SplineSet
168.500976562 665 m 4,0,1
 168.500976562 681 168.500976562 681 219.500976562 681 c 4,2,3
 246.500976562 681 246.500976562 681 248.500976562 677 c 4,4,5
 253.500976562 667 253.500976562 667 244.000976562 582 c 132,-1,6
 234.500976562 497 234.500976562 497 231.500976562 491 c 132,-1,7
 228.500976562 485 228.500976562 485 208.500976562 486 c 6,8,-1
 190.500976562 487 l 5,9,-1
 178.500976562 580 l 6,10,11
 168.500976562 657 168.500976562 657 168.500976562 665 c 4,0,1
126.500976562 656 m 5,12,-1
 110.500976562 499 l 6,13,14
 110.500976562 495 110.500976562 495 90.5009765625 495 c 6,15,-1
 70.5009765625 495 l 5,16,-1
 54.5009765625 581 l 6,17,18
 40.5009765625 657 40.5009765625 657 40.5009765625 662 c 4,19,20
 41.5009765625 675 41.5009765625 675 84.5009765625 675 c 6,21,-1
 126.500976562 675 l 5,22,-1
 126.500976562 656 l 5,12,-1
EndSplineSet
Fore
SplineSet
113 684 m 0,0,1
 121 685 121 685 125 685.5 c 128,-1,2
 129 686 129 686 129 671 c 128,-1,3
 129 656 129 656 120 579 c 128,-1,4
 111 502 111 502 108 498 c 128,-1,5
 105 494 105 494 86.5 494 c 128,-1,6
 68 494 68 494 64.5 502 c 128,-1,7
 61 510 61 510 54.5 580 c 128,-1,8
 48 650 48 650 48 658 c 0,9,10
 48 676 48 676 113 684 c 0,0,1
EndSplineSet
Validated: 1
EndChar

StartChar: parenleft
Encoding: 40 40 12
Width: 293
GlyphClass: 1
Flags: W
LayerCount: 2
Fore
SplineSet
168 71 m 1,0,1
 64 153 64 153 63 371 c 0,2,3
 63 394 63 394 64 416 c 0,4,5
 76 670 76 670 168 728 c 1,6,-1
 231 692 l 1,7,8
 149 640 149 640 139 410 c 0,9,10
 138 388 138 388 138 366 c 0,11,12
 138 172 138 172 222 105 c 1,13,-1
 168 71 l 1,0,1
EndSplineSet
Validated: 1
EndChar

StartChar: parenright
Encoding: 41 41 13
Width: 293
GlyphClass: 1
Flags: W
LayerCount: 2
Fore
SplineSet
126 67 m 1,0,1
 230 149 230 149 231 367 c 0,2,3
 231 375 231 375 231 382 c 0,4,5
 231 397 231 397 230 412 c 0,6,7
 218 666 218 666 126 724 c 1,8,-1
 63 688 l 1,9,10
 145 636 145 636 155 406 c 0,11,12
 156 384 156 384 156 362 c 0,13,14
 156 168 156 168 72 101 c 1,15,-1
 126 67 l 1,0,1
EndSplineSet
Validated: 9
EndChar

StartChar: asterisk
Encoding: 42 42 14
Width: 454
GlyphClass: 1
Flags: W
LayerCount: 2
Fore
SplineSet
184 732 m 1,0,-1
 258 730 l 1,1,-1
 241 616 l 1,2,-1
 199 614 l 1,3,-1
 184 732 l 1,0,-1
71 638 m 1,4,-1
 63 562 l 1,5,-1
 175 554 l 1,6,-1
 169 605 l 1,7,-1
 71 638 l 1,4,-1
181 546 m 1,8,-1
 217 518 l 1,9,-1
 172 418 l 1,10,-1
 105 452 l 1,11,-1
 181 546 l 1,8,-1
267 417 m 1,12,-1
 339 450 l 1,13,-1
 274 532 l 1,14,-1
 249 524 l 1,15,-1
 267 417 l 1,12,-1
265 605 m 1,16,-1
 277 571 l 1,17,-1
 391 564 l 1,18,-1
 374 636 l 1,19,-1
 265 605 l 1,16,-1
185 572 m 128,-1,21
 185 588 185 588 195 598 c 128,-1,22
 205 608 205 608 220 608 c 128,-1,23
 235 608 235 608 245 598 c 128,-1,24
 255 588 255 588 255 572 c 128,-1,25
 255 556 255 556 245 546 c 128,-1,26
 235 536 235 536 220 536 c 128,-1,27
 205 536 205 536 195 546 c 128,-1,20
 185 556 185 556 185 572 c 128,-1,21
EndSplineSet
Validated: 9
EndChar

StartChar: plus
Encoding: 43 43 15
Width: 454
GlyphClass: 1
Flags: W
LayerCount: 2
Fore
SplineSet
196 126 m 1,0,-1
 196 246 l 1,1,-1
 226 244 l 1,2,-1
 254 243 l 1,3,-1
 254 129 l 1,4,-1
 226 128 l 1,5,-1
 196 126 l 1,0,-1
124 324 m 2,6,7
 134 324 134 324 286 327 c 2,8,-1
 388 328 l 1,9,-1
 390 315 l 2,10,11
 392 309 392 309 392 301 c 128,-1,12
 392 293 392 293 390 284 c 2,13,-1
 386 266 l 1,14,-1
 62 266 l 1,15,-1
 62 322 l 1,16,-1
 124 324 l 2,6,7
200 445 m 2,17,-1
 204 472 l 1,18,-1
 228 472 l 2,19,20
 245 472 245 472 248.5 470.5 c 128,-1,21
 252 469 252 469 254 461 c 2,22,-1
 256 423 l 2,23,24
 259 387 259 387 259 369 c 0,25,26
 259 353 259 353 257 349 c 0,27,28
 252 343 252 343 232 343 c 128,-1,29
 212 343 212 343 207 345 c 0,30,31
 196 349 196 349 196 387 c 0,32,33
 196 410 196 410 200 445 c 2,17,-1
EndSplineSet
Validated: 1
EndChar

StartChar: comma
Encoding: 44 44 16
Width: 245
GlyphClass: 1
Flags: W
LayerCount: 2
Fore
SplineSet
174 148 m 1,0,-1
 103 144 l 1,1,-1
 111 73 l 1,2,-1
 62 13 l 1,3,-1
 141 10 l 1,4,-1
 183 77 l 1,5,-1
 174 148 l 1,0,-1
EndSplineSet
Validated: 9
EndChar

StartChar: hyphen
Encoding: 45 45 17
Width: 288
GlyphClass: 1
Flags: W
LayerCount: 2
Fore
SplineSet
62 377 m 1,0,-1
 226 377 l 1,1,-1
 226 316 l 1,2,-1
 62 316 l 1,3,-1
 62 377 l 1,0,-1
EndSplineSet
Validated: 1
EndChar

StartChar: period
Encoding: 46 46 18
Width: 230
GlyphClass: 1
Flags: W
LayerCount: 2
Fore
SplineSet
62 112 m 0,0,1
 61 133 61 133 77 148 c 128,-1,2
 93 163 93 163 115 163 c 128,-1,3
 137 163 137 163 153 148 c 128,-1,4
 169 133 169 133 169 112 c 128,-1,5
 169 91 169 91 153 76 c 128,-1,6
 137 61 137 61 115 61 c 128,-1,7
 93 61 93 61 77 76 c 128,-1,8
 61 91 61 91 62 112 c 0,0,1
EndSplineSet
Validated: 33
EndChar

StartChar: slash
Encoding: 47 47 19
Width: 354
GlyphClass: 1
Flags: W
LayerCount: 2
Fore
SplineSet
62 126 m 1,0,-1
 126 124 l 1,1,-1
 292 623 l 1,2,-1
 238 626 l 1,3,-1
 62 126 l 1,0,-1
EndSplineSet
Validated: 9
EndChar

StartChar: zero
Encoding: 48 48 20
Width: 611
GlyphClass: 1
Flags: W
LayerCount: 2
Fore
SplineSet
429 389 m 0,0,1
 432 422 432 422 439 439 c 128,-1,2
 446 456 446 456 475.5 491.5 c 128,-1,3
 505 527 505 527 511.5 527 c 128,-1,4
 518 527 518 527 524 519 c 0,5,6
 548 484 548 484 548 404 c 0,7,8
 548 273 548 273 481 201 c 0,9,10
 432 147 432 147 354 134 c 2,11,-1
 317 128 l 1,12,-1
 317 175 l 2,13,14
 318 209 318 209 323 217.5 c 128,-1,15
 328 226 328 226 347 236 c 0,16,17
 419 272 419 272 429 389 c 0,0,1
319 603 m 2,18,-1
 317 648 l 1,19,-1
 344 648 l 2,20,21
 372 648 372 648 419.5 625 c 128,-1,22
 467 602 467 602 484 581 c 2,23,-1
 502 557 l 1,24,-1
 468 522 l 2,25,26
 460 513 460 513 424.5 475 c 128,-1,27
 389 437 389 437 331 373 c 2,28,-1
 227 259 l 1,29,-1
 247 243 l 2,30,31
 267 227 267 227 276 227 c 0,32,33
 291 227 291 227 291 178 c 2,34,-1
 291 128 l 1,35,-1
 255 134 l 2,36,37
 183 145 183 145 130 200 c 2,38,-1
 104 226 l 1,39,-1
 145 273 l 2,40,41
 220 359 220 359 270 413 c 0,42,43
 368 519 368 519 368 540 c 0,44,45
 368 551 368 551 348 553.5 c 128,-1,46
 328 556 328 556 324.5 564.5 c 128,-1,47
 321 573 321 573 319 603 c 2,18,-1
63 387 m 0,48,49
 63 567 63 567 212 633 c 0,50,51
 246 648 246 648 265 648 c 128,-1,52
 284 648 284 648 287.5 642 c 128,-1,53
 291 636 291 636 291 605.5 c 128,-1,54
 291 575 291 575 287 566.5 c 128,-1,55
 283 558 283 558 265 551 c 0,56,57
 226 536 226 536 202 490.5 c 128,-1,58
 178 445 178 445 177 402 c 128,-1,59
 176 359 176 359 169 344.5 c 128,-1,60
 162 330 162 330 133.5 298 c 128,-1,61
 105 266 105 266 91 266 c 2,62,-1
 90 266 l 1,63,64
 79 273 79 273 71 309.5 c 128,-1,65
 63 346 63 346 63 387 c 0,48,49
EndSplineSet
Validated: 1
EndChar

StartChar: one
Encoding: 49 49 21
Width: 366
GlyphClass: 1
Flags: W
LayerCount: 2
Fore
SplineSet
237 629 m 2,0,1
 252 631 252 631 258 631 c 2,2,-1
 265 631 l 1,3,4
 305 626 305 626 305 376 c 2,5,-1
 305 126 l 1,6,-1
 191 126 l 1,7,-1
 191 305 l 2,8,9
 191 484 191 484 186 489 c 0,10,11
 185 490 185 490 179 490 c 128,-1,12
 173 490 173 490 137 470.5 c 128,-1,13
 101 451 101 451 99 451 c 128,-1,14
 97 451 97 451 79 488 c 128,-1,15
 61 525 61 525 61 532 c 0,16,17
 61 544 61 544 105 568 c 128,-1,18
 149 592 149 592 193 611 c 2,19,-1
 237 629 l 2,0,1
EndSplineSet
Validated: 1
EndChar

StartChar: two
Encoding: 50 50 22
Width: 498
GlyphClass: 1
Flags: W
LayerCount: 2
Fore
SplineSet
71 128 m 1,0,-1
 71 225 l 1,1,-1
 253 223 l 1,2,-1
 435 220 l 1,3,-1
 435 127 l 1,4,-1
 253 130 l 1,5,-1
 71 128 l 1,0,-1
309 486 m 0,6,7
 309 505 309 505 291 523 c 128,-1,8
 273 541 273 541 268.5 554 c 128,-1,9
 264 567 264 567 264 595.5 c 128,-1,10
 264 624 264 624 267.5 630.5 c 128,-1,11
 271 637 271 637 289 637 c 0,12,13
 330 637 330 637 370 604 c 0,14,15
 427 557 427 557 427 492 c 0,16,17
 427 397 427 397 308 299 c 2,18,-1
 249 251 l 1,19,-1
 181 251 l 2,20,21
 117 251 117 251 117 257.5 c 128,-1,22
 117 264 117 264 166 307 c 0,23,24
 309 434 309 434 309 486 c 0,6,7
82 583 m 2,25,26
 100 600 100 600 139.5 618.5 c 128,-1,27
 179 637 179 637 200.5 637 c 128,-1,28
 222 637 222 637 225.5 631 c 128,-1,29
 229 625 229 625 229 590.5 c 128,-1,30
 229 556 229 556 224.5 549 c 128,-1,31
 220 542 220 542 190.5 532.5 c 128,-1,32
 161 523 161 523 145.5 505.5 c 128,-1,33
 130 488 130 488 124 488 c 0,34,35
 114 488 114 488 89 526 c 2,36,-1
 63 564 l 1,37,-1
 82 583 l 2,25,26
EndSplineSet
Validated: 1
EndChar

StartChar: three
Encoding: 51 51 23
Width: 497
GlyphClass: 1
Flags: W
LayerCount: 2
Fore
SplineSet
186 132 m 2,0,1
 154 133 154 133 108.5 149.5 c 128,-1,2
 63 166 63 166 63 186 c 0,3,4
 63 196 63 196 78 231 c 128,-1,5
 93 266 93 266 97.5 266 c 128,-1,6
 102 266 102 266 125.5 251 c 128,-1,7
 149 236 149 236 188 226 c 2,8,-1
 229 216 l 1,9,-1
 229 130 l 1,10,-1
 186 132 l 2,0,1
177 350 m 1,11,12
 174 392 174 392 174 404 c 0,13,14
 174 428 174 428 186 434 c 0,15,16
 198 441 198 441 228.5 441.5 c 128,-1,17
 259 442 259 442 281.5 460 c 128,-1,18
 304 478 304 478 304 495 c 128,-1,19
 304 512 304 512 286.5 530 c 128,-1,20
 269 548 269 548 264.5 561 c 128,-1,21
 260 574 260 574 260 602 c 2,22,-1
 260 646 l 1,23,-1
 291 640 l 2,24,25
 345 631 345 631 380 591.5 c 128,-1,26
 415 552 415 552 415 506 c 128,-1,27
 415 460 415 460 380 428 c 2,28,-1
 351 400 l 1,29,-1
 376 386 l 2,30,31
 403 370 403 370 418.5 340 c 128,-1,32
 434 310 434 310 434 277 c 128,-1,33
 434 244 434 244 423 218 c 128,-1,34
 412 192 412 192 383.5 168 c 128,-1,35
 355 144 355 144 324 135 c 128,-1,36
 293 126 293 126 279.5 126 c 128,-1,37
 266 126 266 126 263 135 c 128,-1,38
 260 144 260 144 260 172 c 128,-1,39
 260 200 260 200 264.5 212 c 128,-1,40
 269 224 269 224 285 238 c 0,41,42
 313 261 313 261 313 284.5 c 128,-1,43
 313 308 313 308 304 320 c 0,44,45
 288 342 288 342 232 346 c 2,46,-1
 177 350 l 1,11,12
76 586 m 0,47,48
 76 600 76 600 122 622 c 128,-1,49
 168 644 168 644 201 644 c 2,50,-1
 234 644 l 1,51,-1
 234 604 l 2,52,53
 234 573 234 573 224.5 561.5 c 128,-1,54
 215 550 215 550 185 543 c 128,-1,55
 155 536 155 536 145.5 524 c 128,-1,56
 136 512 136 512 129 512 c 0,57,58
 117 512 117 512 96.5 544.5 c 128,-1,59
 76 577 76 577 76 586 c 0,47,48
EndSplineSet
Validated: 1
EndChar

StartChar: four
Encoding: 52 52 24
Width: 556
GlyphClass: 1
Flags: W
LayerCount: 2
Fore
SplineSet
277 639 m 1,0,-1
 283 488 l 1,1,2
 231 413 231 413 181 335 c 1,3,-1
 229 331 l 1,4,-1
 277 326 l 1,5,6
 278 310 278 310 280.5 277.5 c 128,-1,7
 283 245 283 245 283 229 c 1,8,-1
 61 229 l 1,9,-1
 61 276 l 1,10,-1
 61 286 l 2,11,12
 61 316 61 316 80 347.5 c 128,-1,13
 99 379 99 379 219 552 c 2,14,-1
 277 639 l 1,0,-1
311 128 m 1,15,-1
 311 653 l 1,16,-1
 429 653 l 1,17,-1
 429 331 l 1,18,-1
 495 331 l 1,19,-1
 495 229 l 1,20,-1
 429 229 l 1,21,-1
 429 128 l 1,22,-1
 311 128 l 1,15,-1
EndSplineSet
Validated: 1
EndChar

StartChar: five
Encoding: 53 53 25
Width: 508
GlyphClass: 1
Flags: W
LayerCount: 2
Fore
SplineSet
323 293 m 0,0,1
 323 364 323 364 233 364 c 0,2,3
 207 364 207 364 183 358 c 128,-1,4
 159 352 159 352 148.5 352 c 128,-1,5
 138 352 138 352 121 362 c 2,6,-1
 95 376 l 1,7,-1
 101 482 l 2,8,9
 109 597 109 597 112 610 c 128,-1,10
 115 623 115 623 135 625.5 c 128,-1,11
 155 628 155 628 265 628 c 2,12,-1
 413 628 l 1,13,-1
 413 532 l 1,14,-1
 202 532 l 1,15,-1
 202 448 l 1,16,-1
 255 451 l 2,17,18
 262 452 262 452 274 452 c 0,19,20
 339 452 339 452 382 422 c 0,21,22
 445 378 445 378 445 292 c 0,23,24
 445 243 445 243 420 203 c 0,25,26
 368 120 368 120 233 120 c 0,27,28
 142 120 142 120 84 158 c 2,29,-1
 63 172 l 1,30,-1
 79 207 l 2,31,32
 97 245 97 245 99 247 c 128,-1,33
 101 249 101 249 109 249 c 128,-1,34
 117 249 117 249 154 232.5 c 128,-1,35
 191 216 191 216 236 216 c 128,-1,36
 281 216 281 216 302 237 c 128,-1,37
 323 258 323 258 323 293 c 0,0,1
EndSplineSet
Validated: 1
EndChar

StartChar: six
Encoding: 54 54 26
Width: 512
GlyphClass: 1
Flags: W
LayerCount: 2
Fore
SplineSet
190 345 m 0,0,1
 190 396 190 396 212 421 c 128,-1,2
 234 446 234 446 322 458 c 0,3,4
 337 460 337 460 345 460 c 1,5,-1
 346 461 l 1,6,7
 354 461 354 461 375 447 c 0,8,9
 449 400 449 400 449 302 c 0,10,11
 449 237 449 237 423.5 204.5 c 128,-1,12
 398 172 398 172 350.5 145.5 c 128,-1,13
 303 119 303 119 288 119 c 0,14,15
 268 119 268 119 268 158 c 128,-1,16
 268 197 268 197 294 215 c 0,17,18
 311 227 311 227 325 252.5 c 128,-1,19
 339 278 339 278 339 304.5 c 128,-1,20
 339 331 339 331 318.5 351.5 c 128,-1,21
 298 372 298 372 269 372 c 0,22,23
 227 372 227 372 227 331 c 0,24,25
 227 300 227 300 254 296 c 0,26,27
 269 294 269 294 269 303 c 128,-1,28
 269 312 269 312 280 312 c 0,29,30
 294 312 294 312 294 294 c 0,31,32
 294 291 294 291 294 287 c 0,33,34
 292 273 292 273 286 268.5 c 128,-1,35
 280 264 280 264 259 262 c 2,36,-1
 250 262 l 2,37,38
 190 262 190 262 190 345 c 0,0,1
391 551 m 2,39,-1
 365 555 l 1,40,41
 337 555 337 555 308 546 c 0,42,43
 239 525 239 525 201.5 471.5 c 128,-1,44
 164 418 164 418 164 333 c 128,-1,45
 164 248 164 248 220 219 c 0,46,47
 235 211 235 211 239 201.5 c 128,-1,48
 243 192 243 192 243 162 c 2,49,-1
 243 118 l 1,50,-1
 210 124 l 2,51,52
 133 138 133 138 87 215 c 0,53,54
 71 242 71 242 67 263 c 128,-1,55
 63 284 63 284 63 348.5 c 128,-1,56
 63 413 63 413 67 434.5 c 128,-1,57
 71 456 71 456 87 488 c 0,58,59
 123 558 123 558 171.5 590.5 c 128,-1,60
 220 623 220 623 307 641 c 0,61,62
 340 648 340 648 363 648 c 0,63,64
 404 648 404 648 404 586 c 0,65,66
 404 551 404 551 391 551 c 2,39,-1
EndSplineSet
Validated: 1
EndChar

StartChar: seven
Encoding: 55 55 27
Width: 502
GlyphClass: 1
Flags: W
LayerCount: 2
Fore
SplineSet
301 501 m 128,-1,1
 311 504 311 504 360 504 c 128,-1,2
 409 504 409 504 409 501 c 128,-1,3
 409 498 409 498 330 321 c 128,-1,4
 251 144 251 144 251 136 c 128,-1,5
 251 128 251 128 185 128 c 128,-1,6
 119 128 119 128 119 131 c 128,-1,7
 119 134 119 134 193 293 c 128,-1,8
 267 452 267 452 279 475 c 128,-1,0
 291 498 291 498 301 501 c 128,-1,1
57 532 m 1,9,-1
 57 628 l 1,10,-1
 435 628 l 1,11,-1
 435 532 l 1,12,-1
 57 532 l 1,9,-1
EndSplineSet
Validated: 1
EndChar

StartChar: eight
Encoding: 56 56 28
Width: 507
GlyphClass: 1
Flags: W
LayerCount: 2
Fore
SplineSet
284 558 m 0,0,1
 269 558 269 558 269 609 c 0,2,3
 269 634 269 634 272.5 640 c 128,-1,4
 276 646 276 646 298 646 c 128,-1,5
 320 646 320 646 356 628 c 0,6,7
 431 592 431 592 431 511 c 0,8,9
 431 456 431 456 392 423 c 2,10,-1
 365 401 l 1,11,-1
 392 383 l 2,12,13
 444 347 444 347 444 280.5 c 128,-1,14
 444 214 444 214 408 177 c 128,-1,15
 372 140 372 140 310 132 c 2,16,-1
 269 126 l 1,17,-1
 269 171 l 2,18,19
 269 216 269 216 287 216 c 0,20,21
 299 216 299 216 314.5 236 c 128,-1,22
 330 256 330 256 330 278.5 c 128,-1,23
 330 301 330 301 313 324.5 c 128,-1,24
 296 348 296 348 284 348 c 0,25,26
 269 348 269 348 269 385 c 128,-1,27
 269 422 269 422 273.5 433.5 c 128,-1,28
 278 445 278 445 300 463 c 128,-1,29
 322 481 322 481 322 502 c 128,-1,30
 322 523 322 523 308 540.5 c 128,-1,31
 294 558 294 558 284 558 c 0,0,1
79 517 m 0,32,33
 79 587 79 587 164 629 c 0,34,35
 197 646 197 646 216.5 646 c 128,-1,36
 236 646 236 646 239.5 640 c 128,-1,37
 243 634 243 634 243 608 c 128,-1,38
 243 582 243 582 239 572.5 c 128,-1,39
 235 563 235 563 220 555 c 0,40,41
 189 539 189 539 189 510.5 c 128,-1,42
 189 482 189 482 217 456 c 0,43,44
 232 442 232 442 237.5 429.5 c 128,-1,45
 243 417 243 417 243 395 c 0,46,47
 243 358 243 358 212 341 c 128,-1,48
 181 324 181 324 181 273 c 0,49,50
 181 253 181 253 186 244.5 c 128,-1,51
 191 236 191 236 212 223.5 c 128,-1,52
 233 211 233 211 238 202 c 128,-1,53
 243 193 243 193 243 166 c 2,54,-1
 243 126 l 1,55,-1
 203 131 l 2,56,57
 140 140 140 140 101.5 180.5 c 128,-1,58
 63 221 63 221 63 273.5 c 128,-1,59
 63 326 63 326 106 368 c 2,60,-1
 142 402 l 1,61,-1
 122 418 l 2,62,63
 103 434 103 434 91 461.5 c 128,-1,64
 79 489 79 489 79 517 c 0,32,33
EndSplineSet
Validated: 1
EndChar

StartChar: nine
Encoding: 57 57 29
Width: 516
GlyphClass: 1
Flags: W
LayerCount: 2
Fore
SplineSet
165 218 m 0,0,1
 222 218 222 218 262 247.5 c 128,-1,2
 302 277 302 277 321 322 c 128,-1,3
 340 367 340 367 340 411.5 c 128,-1,4
 340 456 340 456 345.5 470.5 c 128,-1,5
 351 485 351 485 379.5 519 c 128,-1,6
 408 553 408 553 415 553 c 0,7,8
 418 553 418 553 425 544 c 0,9,10
 453 507 453 507 453 429.5 c 128,-1,11
 453 352 453 352 421 282 c 0,12,13
 354 137 354 137 177 130 c 2,14,-1
 103 126 l 1,15,-1
 103 226 l 1,16,-1
 137 220 l 2,17,18
 151 218 151 218 165 218 c 0,0,1
174 494 m 2,19,-1
 178 445 l 2,20,21
 178 431 178 431 172.5 421.5 c 128,-1,22
 167 412 167 412 147 390 c 2,23,-1
 112 352 l 1,24,-1
 95 374 l 2,25,26
 63 414 63 414 63 477 c 0,27,28
 63 505 63 505 69.5 529.5 c 128,-1,29
 76 554 76 554 103.5 587.5 c 128,-1,30
 131 621 131 621 159 633.5 c 128,-1,31
 187 646 187 646 247 646 c 128,-1,32
 307 646 307 646 331.5 636 c 128,-1,33
 356 626 356 626 382 600 c 2,34,-1
 402 578 l 1,35,-1
 323 491 l 2,36,37
 244 407 244 407 244 397 c 0,38,39
 244 393 244 393 255.5 393 c 128,-1,40
 267 393 267 393 286.5 400.5 c 128,-1,41
 306 408 306 408 310 408 c 128,-1,42
 314 408 314 408 314 401 c 128,-1,43
 314 394 314 394 312 384 c 0,44,45
 304 340 304 340 284 326 c 0,46,47
 266 313 266 313 228 313 c 0,48,49
 225 313 225 313 222 313 c 128,-1,50
 219 313 219 313 216 313 c 0,51,52
 168 314 168 314 152.5 323 c 128,-1,53
 137 332 137 332 137 336 c 0,54,55
 137 347 137 347 215.5 438.5 c 128,-1,56
 294 530 294 530 294 546 c 0,57,58
 294 558 294 558 255.5 558 c 128,-1,59
 217 558 217 558 195.5 536.5 c 128,-1,60
 174 515 174 515 174 494 c 2,19,-1
EndSplineSet
Validated: 1
EndChar

StartChar: colon
Encoding: 58 58 30
Width: 235
GlyphClass: 1
Flags: W
LayerCount: 2
Fore
SplineSet
62 397 m 0,0,1
 61 418 61 418 77 433 c 128,-1,2
 93 448 93 448 115 448 c 128,-1,3
 137 448 137 448 153 433 c 128,-1,4
 169 418 169 418 169 397 c 128,-1,5
 169 376 169 376 153 361 c 128,-1,6
 137 346 137 346 115 346 c 128,-1,7
 93 346 93 346 77 361 c 128,-1,8
 61 376 61 376 62 397 c 0,0,1
67 112 m 0,9,10
 66 133 66 133 82 148 c 128,-1,11
 98 163 98 163 120 163 c 128,-1,12
 142 163 142 163 158 148 c 128,-1,13
 174 133 174 133 174 112 c 128,-1,14
 174 91 174 91 158 76 c 128,-1,15
 142 61 142 61 120 61 c 128,-1,16
 98 61 98 61 82 76 c 128,-1,17
 66 91 66 91 67 112 c 0,9,10
EndSplineSet
Validated: 33
EndChar

StartChar: semicolon
Encoding: 59 59 31
Width: 246
GlyphClass: 1
Flags: W
LayerCount: 2
Fore
SplineSet
174 148 m 1,0,-1
 103 144 l 1,1,-1
 111 73 l 1,2,-1
 62 13 l 1,3,-1
 141 10 l 1,4,-1
 183 77 l 1,5,-1
 174 148 l 1,0,-1
78 397 m 0,6,7
 77 418 77 418 93 433 c 128,-1,8
 109 448 109 448 131 448 c 128,-1,9
 153 448 153 448 169 433 c 128,-1,10
 185 418 185 418 185 397 c 128,-1,11
 185 376 185 376 169 361 c 128,-1,12
 153 346 153 346 131 346 c 128,-1,13
 109 346 109 346 93 361 c 128,-1,14
 77 376 77 376 78 397 c 0,6,7
EndSplineSet
Validated: 41
EndChar

StartChar: less
Encoding: 60 60 32
Width: 430
GlyphClass: 1
Flags: W
LayerCount: 2
Fore
SplineSet
154 406 m 2,0,1
 258 460 258 460 291 480 c 0,2,3
 331 504 331 504 350 504 c 0,4,5
 358 504 358 504 362 500 c 0,6,7
 367 495 367 495 367 480.5 c 128,-1,8
 367 466 367 466 366 462 c 0,9,10
 360 440 360 440 233 378 c 0,11,12
 162 344 162 344 162 341 c 128,-1,13
 162 338 162 338 211 316 c 2,14,-1
 263 292 l 2,15,16
 316 268 316 268 337 260 c 2,17,-1
 357 252 l 2,18,19
 368 244 368 244 368 219 c 128,-1,20
 368 194 368 194 361 190 c 1,21,-1
 360 190 l 2,22,23
 359 188 359 188 358 188 c 0,24,25
 347 188 347 188 214.5 247 c 128,-1,26
 82 306 82 306 71.5 313 c 128,-1,27
 61 320 61 320 62 340 c 2,28,-1
 64 358 l 1,29,-1
 154 406 l 2,0,1
EndSplineSet
Validated: 1
EndChar

StartChar: equal
Encoding: 61 61 33
Width: 498
GlyphClass: 1
Flags: W
LayerCount: 2
Fore
SplineSet
62 427 m 1,0,-1
 436 427 l 1,1,-1
 436 350 l 1,2,-1
 62 350 l 1,3,-1
 62 427 l 1,0,-1
63 324 m 1,4,-1
 434 324 l 1,5,-1
 434 238 l 1,6,-1
 63 238 l 1,7,-1
 63 324 l 1,4,-1
EndSplineSet
Validated: 1
EndChar

StartChar: greater
Encoding: 62 62 34
Width: 430
GlyphClass: 1
Flags: W
LayerCount: 2
Fore
SplineSet
276 412 m 2,0,1
 172 466 172 466 139 486 c 0,2,3
 99 510 99 510 80 510 c 0,4,5
 72 510 72 510 68 506 c 0,6,7
 63 501 63 501 63 487 c 128,-1,8
 63 473 63 473 64 469 c 0,9,10
 70 447 70 447 197 385 c 0,11,12
 268 351 268 351 268 347.5 c 128,-1,13
 268 344 268 344 219 322 c 2,14,-1
 167 299 l 2,15,16
 114 276 114 276 93 267 c 2,17,-1
 73 258 l 2,18,19
 62 250 62 250 62 225.5 c 128,-1,20
 62 201 62 201 69 196 c 1,21,-1
 70 196 l 2,22,23
 71 195 71 195 72 195 c 0,24,25
 83 195 83 195 215.5 253.5 c 128,-1,26
 348 312 348 312 358.5 319 c 128,-1,27
 369 326 369 326 368 346 c 2,28,-1
 366 365 l 1,29,-1
 276 412 l 2,0,1
EndSplineSet
Validated: 9
EndChar

StartChar: question
Encoding: 63 63 35
Width: 412
GlyphClass: 1
Flags: W
LayerCount: 2
Fore
SplineSet
226 14 m 1,0,1
 207 -1 207 -1 203 -1.5 c 128,-1,2
 199 -2 199 -2 181.5 0 c 128,-1,3
 164 2 164 2 155 6 c 0,4,5
 136 14 136 14 136 46 c 128,-1,6
 136 78 136 78 150.5 94 c 128,-1,7
 165 110 165 110 187.5 110 c 128,-1,8
 210 110 210 110 225 93 c 128,-1,9
 240 76 240 76 240 54.5 c 128,-1,10
 240 33 240 33 226 14 c 1,0,1
78 486 m 2,11,12
 116 516 116 516 202 516 c 0,13,14
 312 516 312 516 340 446 c 0,15,16
 350 422 350 422 350 384 c 128,-1,17
 350 346 350 346 340 328 c 128,-1,18
 330 310 330 310 287.5 270 c 128,-1,19
 245 230 245 230 234.5 215 c 128,-1,20
 224 200 224 200 220 176 c 128,-1,21
 216 152 216 152 211 146 c 128,-1,22
 206 140 206 140 184.5 140 c 128,-1,23
 163 140 163 140 157 146 c 128,-1,24
 151 152 151 152 151 183 c 128,-1,25
 151 214 151 214 166 240 c 128,-1,26
 181 266 181 266 220 301 c 128,-1,27
 259 336 259 336 259 342 c 128,-1,28
 259 348 259 348 269 359 c 128,-1,29
 279 370 279 370 279 375 c 128,-1,30
 279 380 279 380 273 399 c 128,-1,31
 267 418 267 418 262 424 c 128,-1,32
 257 430 257 430 238.5 437 c 128,-1,33
 220 444 220 444 192 444 c 128,-1,34
 164 444 164 444 141 431 c 128,-1,35
 118 418 118 418 109 418 c 0,36,37
 90 418 90 418 71 454 c 2,38,-1
 62 472 l 1,39,-1
 78 486 l 2,11,12
EndSplineSet
Validated: 1
EndChar

StartChar: at
Encoding: 64 64 36
Width: 670
GlyphClass: 1
Flags: W
LayerCount: 2
Fore
SplineSet
315 424 m 1,0,1
 314 415 314 415 314 407 c 0,2,3
 314 236 314 236 545 162 c 0,4,5
 551 160 551 160 556 160 c 0,6,7
 607 160 607 160 607 332 c 0,8,9
 607 444 607 444 527 522 c 0,10,11
 446 600 446 600 334 600 c 128,-1,12
 222 600 222 600 142 522 c 0,13,14
 63 445 63 445 63 335 c 0,15,16
 63 221 63 221 144 142 c 0,17,18
 224 64 224 64 334 64 c 0,19,20
 426 64 426 64 496 115 c 1,21,-1
 459 152 l 1,22,23
 404 110 404 110 324 110 c 128,-1,24
 244 110 244 110 182 173 c 0,25,26
 119 236 119 236 119 327 c 128,-1,27
 119 418 119 418 182 481 c 128,-1,28
 245 544 245 544 333 544 c 0,29,30
 422 544 422 544 484 481 c 128,-1,31
 546 418 546 418 546 327 c 0,32,33
 546 231 546 231 515 231 c 0,34,35
 510 231 510 231 503 234 c 0,36,37
 350 302 350 302 350 405 c 0,38,39
 350 413 350 413 351 422 c 1,40,-1
 315 424 l 1,0,1
303 406 m 1,41,-1
 317 353 l 1,42,-1
 289 276 l 1,43,-1
 348 272 l 1,44,-1
 356 234 l 1,45,-1
 226 234 l 1,46,-1
 303 406 l 1,41,-1
EndSplineSet
Validated: 9
EndChar

StartChar: A
Encoding: 65 65 37
Width: 628
GlyphClass: 1
Flags: W
LayerCount: 2
Fore
SplineSet
225 126 m 2,0,1
 61 126 61 126 61 133 c 128,-1,2
 61 140 61 140 143 352 c 0,3,4
 225 566 225 566 230 583 c 128,-1,5
 235 600 235 600 243 600 c 1,6,7
 249 595 249 595 273 527 c 2,8,-1
 295 458 l 1,9,-1
 255 349 l 2,10,11
 216 244 216 244 216 231 c 0,12,13
 216 219 216 219 231 216 c 0,14,15
 245 213 245 213 298 213 c 128,-1,16
 351 213 351 213 362 205 c 128,-1,17
 373 197 373 197 387 147 c 1,18,-1
 391 126 l 1,19,-1
 225 126 l 2,0,1
541 126 m 0,20,21
 515 126 515 126 503 127 c 2,22,-1
 449 130 l 1,23,-1
 421 208 l 1,24,25
 269 617 269 617 269 626 c 0,26,27
 269 629 269 629 292 629 c 128,-1,28
 315 629 315 629 325 628 c 2,29,-1
 383 626 l 1,30,-1
 399 587 l 2,31,32
 463 436 463 436 516 292 c 0,33,34
 568 154 568 154 568 136 c 0,35,36
 568 126 568 126 541 126 c 0,20,21
EndSplineSet
Validated: 1
EndChar

StartChar: B
Encoding: 66 66 38
Width: 530
GlyphClass: 1
Flags: W
LayerCount: 2
Fore
SplineSet
63 126 m 1,0,-1
 63 630 l 1,1,-1
 176 630 l 1,2,-1
 176 126 l 1,3,-1
 63 126 l 1,0,-1
209 585 m 1,4,-1
 209 604 l 2,5,6
 209 624 209 624 219.5 631 c 128,-1,7
 230 638 230 638 262 638 c 128,-1,8
 294 638 294 638 332 630.5 c 128,-1,9
 370 623 370 623 392 609.5 c 128,-1,10
 414 596 414 596 429 566 c 128,-1,11
 444 536 444 536 444 502 c 0,12,13
 444 445 444 445 403 422 c 0,14,15
 391 415 391 415 391 410 c 128,-1,16
 391 405 391 405 408 389 c 0,17,18
 467 336 467 336 467 287 c 0,19,20
 467 274 467 274 463 256 c 0,21,22
 450 197 450 197 407 169.5 c 128,-1,23
 364 142 364 142 280 137 c 2,24,-1
 210 132 l 1,25,-1
 213 179 l 1,26,-1
 215 226 l 1,27,-1
 263 230 l 2,28,29
 308 234 308 234 324.5 244 c 128,-1,30
 341 254 341 254 347 286 c 0,31,32
 348 292 348 292 348 302 c 128,-1,33
 348 312 348 312 332 327.5 c 128,-1,34
 316 343 316 343 302.5 347.5 c 128,-1,35
 289 352 289 352 259 352 c 2,36,-1
 211 352 l 1,37,-1
 211 439 l 1,38,-1
 248 439 l 2,39,40
 324 439 324 439 324 496 c 0,41,42
 324 523 324 523 307.5 535 c 128,-1,43
 291 547 291 547 253 547 c 2,44,-1
 213 547 l 1,45,-1
 209 585 l 1,4,-1
EndSplineSet
Validated: 1
EndChar

StartChar: C
Encoding: 67 67 39
Width: 552
GlyphClass: 1
Flags: W
LayerCount: 2
Fore
SplineSet
365 232 m 2,0,1
 402 238 402 238 420 251.5 c 128,-1,2
 438 265 438 265 443 265 c 0,3,4
 453 265 453 265 471 226.5 c 128,-1,5
 489 188 489 188 489 180 c 0,6,7
 489 167 489 167 448 150.5 c 128,-1,8
 407 134 407 134 369 129 c 2,9,-1
 323 123 l 1,10,-1
 325 174 l 1,11,-1
 328 226 l 1,12,-1
 365 232 l 2,0,1
324 553 m 1,13,-1
 324 650 l 1,14,-1
 374 645 l 2,15,16
 409 642 409 642 449 627.5 c 128,-1,17
 489 613 489 613 489 601 c 0,18,19
 489 592 489 592 469.5 554.5 c 128,-1,20
 450 517 450 517 440 517 c 0,21,22
 434 517 434 517 408.5 529.5 c 128,-1,23
 383 542 383 542 357 547 c 2,24,-1
 324 553 l 1,13,-1
210 629 m 0,25,26
 249 647 249 647 270 647 c 128,-1,27
 291 647 291 647 294 640.5 c 128,-1,28
 297 634 297 634 297 599.5 c 128,-1,29
 297 565 297 565 292.5 556.5 c 128,-1,30
 288 548 288 548 267 537 c 0,31,32
 183 491 183 491 183 388.5 c 128,-1,33
 183 286 183 286 267 237 c 0,34,35
 284 228 284 228 290.5 220.5 c 128,-1,36
 297 213 297 213 297 184 c 128,-1,37
 297 155 297 155 291 141.5 c 128,-1,38
 285 128 285 128 270.5 128 c 128,-1,39
 256 128 256 128 228 139 c 0,40,41
 126 178 126 178 82 272 c 0,42,43
 63 313 63 313 63 369 c 0,44,45
 63 480 63 480 98 537 c 128,-1,46
 133 594 133 594 210 629 c 0,25,26
EndSplineSet
Validated: 1
EndChar

StartChar: D
Encoding: 68 68 40
Width: 578
GlyphClass: 1
Flags: W
LayerCount: 2
Fore
SplineSet
211 543 m 1,0,-1
 211 641 l 1,1,-1
 275 637 l 2,2,3
 388 629 388 629 451.5 564 c 128,-1,4
 515 499 515 499 515 390 c 0,5,6
 515 249 515 249 418 185 c 0,7,8
 382 162 382 162 332 148 c 128,-1,9
 282 134 282 134 244 134 c 2,10,-1
 211 134 l 1,11,-1
 211 228 l 1,12,-1
 257 234 l 2,13,14
 328 244 328 244 358 280 c 0,15,16
 389 317 389 317 389 389 c 0,17,18
 389 457 389 457 361 494 c 0,19,20
 325 543 325 543 253 543 c 2,21,-1
 211 543 l 1,0,-1
180 589 m 1,22,-1
 178 339 l 1,23,-1
 176 134 l 1,24,-1
 63 134 l 1,25,-1
 63 640 l 1,26,-1
 180 634 l 1,27,-1
 180 589 l 1,22,-1
EndSplineSet
Validated: 1
EndChar

StartChar: E
Encoding: 69 69 41
Width: 462
GlyphClass: 1
Flags: W
LayerCount: 2
Fore
SplineSet
61 126 m 1,0,-1
 61 231 l 1,1,-1
 401 231 l 1,2,-1
 401 126 l 1,3,-1
 61 126 l 1,0,-1
61 335 m 1,4,-1
 61 439 l 1,5,-1
 391 439 l 1,6,-1
 391 335 l 1,7,-1
 61 335 l 1,4,-1
61 535 m 1,8,-1
 61 631 l 1,9,-1
 391 631 l 1,10,-1
 391 535 l 1,11,-1
 61 535 l 1,8,-1
EndSplineSet
Validated: 1
EndChar

StartChar: F
Encoding: 70 70 42
Width: 470
GlyphClass: 1
Flags: W
LayerCount: 2
Fore
SplineSet
63 126 m 1,0,-1
 60 639 l 1,1,-1
 410 639 l 1,2,3
 408 607 408 607 404 539 c 1,4,5
 367 538 367 538 293.5 536 c 128,-1,6
 220 534 220 534 182 533 c 1,7,-1
 182 431 l 1,8,-1
 280 428 l 1,9,-1
 378 426 l 1,10,11
 379 411 379 411 380.5 380.5 c 128,-1,12
 382 350 382 350 384 335 c 1,13,-1
 284 333 l 1,14,-1
 186 330 l 1,15,-1
 184 233 l 1,16,-1
 185 126 l 1,17,-1
 63 126 l 1,0,-1
EndSplineSet
Validated: 1
EndChar

StartChar: G
Encoding: 71 71 43
Width: 608
GlyphClass: 1
Flags: W
LayerCount: 2
Fore
SplineSet
346 225 m 1,0,1
 414 241 414 241 428 245 c 1,2,-1
 428 346 l 1,3,-1
 319 346 l 1,4,-1
 319 438 l 1,5,6
 356 437 356 437 430.5 435 c 128,-1,7
 505 433 505 433 542 432 c 1,8,-1
 545 307 l 1,9,-1
 545 253 l 2,10,11
 545 199 545 199 542 188 c 128,-1,12
 539 177 539 177 523 167 c 128,-1,13
 507 157 507 157 453 142 c 128,-1,14
 399 127 399 127 376 127 c 128,-1,15
 353 127 353 127 349.5 134 c 128,-1,16
 346 141 346 141 346 176 c 2,17,-1
 346 225 l 1,0,1
346 576 m 1,18,-1
 346 677 l 1,19,-1
 405 672 l 2,20,21
 455 668 455 668 492 652.5 c 128,-1,22
 529 637 529 637 529 621 c 0,23,24
 529 609 529 609 510 573 c 128,-1,25
 491 537 491 537 484 537 c 0,26,27
 480 537 480 537 453 549.5 c 128,-1,28
 426 562 426 562 385 570 c 2,29,-1
 346 576 l 1,18,-1
293 673 m 2,30,31
 304 673 304 673 307 664 c 128,-1,32
 310 655 310 655 310 618.5 c 128,-1,33
 310 582 310 582 306 574 c 128,-1,34
 302 566 302 566 274 556 c 128,-1,35
 246 546 246 546 220 511 c 0,36,37
 193 476 193 476 193 405 c 0,38,39
 193 402 193 402 193 400 c 0,40,41
 193 286 193 286 271 250 c 2,42,-1
 310 232 l 1,43,-1
 310 125 l 1,44,-1
 276 131 l 2,45,46
 210 143 210 143 154 190 c 0,47,48
 63 266 63 266 63 397 c 0,49,50
 63 593 63 593 237 659 c 0,51,52
 273 673 273 673 289 673 c 2,53,-1
 293 673 l 2,30,31
EndSplineSet
Validated: 1
EndChar

StartChar: H
Encoding: 72 72 44
Width: 556
GlyphClass: 1
Flags: W
LayerCount: 2
Fore
SplineSet
495 633 m 1,0,-1
 493 133 l 1,1,2
 474 132 474 132 435.5 130 c 128,-1,3
 397 128 397 128 378 127 c 1,4,-1
 372 343 l 1,5,-1
 329 346 l 2,6,7
 321 347 321 347 289 347 c 128,-1,8
 257 347 257 347 230 343 c 2,9,-1
 175 337 l 1,10,-1
 175 128 l 1,11,-1
 61 128 l 1,12,-1
 61 637 l 1,13,-1
 174 637 l 1,14,-1
 177 539 l 1,15,-1
 179 440 l 1,16,-1
 372 440 l 1,17,-1
 378 638 l 1,18,-1
 436 635 l 1,19,-1
 495 633 l 1,0,-1
EndSplineSet
Validated: 1
EndChar

StartChar: I
Encoding: 73 73 45
Width: 368
GlyphClass: 1
Flags: W
LayerCount: 2
Fore
SplineSet
251 551 m 1,0,-1
 247 205 l 1,1,-1
 277 205 l 2,2,3
 299 205 299 205 303 200.5 c 128,-1,4
 307 196 307 196 307 172 c 2,5,-1
 307 165 l 1,6,-1
 307 126 l 1,7,-1
 61 126 l 1,8,-1
 65 163 l 2,9,10
 67 189 67 189 71 195.5 c 128,-1,11
 75 202 75 202 93 205 c 2,12,-1
 119 209 l 1,13,-1
 123 377 l 1,14,-1
 123 545 l 1,15,-1
 93 551 l 2,16,17
 70 556 70 556 66.5 561.5 c 128,-1,18
 63 567 63 567 63 595 c 2,19,-1
 63 635 l 1,20,-1
 307 635 l 1,21,-1
 307 596 l 2,22,23
 307 568 307 568 303 562 c 128,-1,24
 299 556 299 556 279 554 c 2,25,-1
 251 551 l 1,0,-1
EndSplineSet
Validated: 1
EndChar

StartChar: J
Encoding: 74 74 46
Width: 346
GlyphClass: 1
Flags: W
LayerCount: 2
Fore
SplineSet
101 126 m 1,0,-1
 123 126 l 2,1,2
 144 126 144 126 156.5 141 c 128,-1,3
 169 156 169 156 172 172 c 128,-1,4
 175 188 175 188 175 238 c 128,-1,5
 175 288 175 288 171 414 c 2,6,-1
 165 664 l 1,7,-1
 279 664 l 1,8,-1
 283 398 l 2,9,10
 285 246 285 246 285 214 c 0,11,12
 285 125 285 125 270 91.5 c 128,-1,13
 255 58 255 58 227 41 c 128,-1,14
 199 24 199 24 149 24 c 2,15,-1
 131 24 l 1,16,-1
 67 28 l 1,17,-1
 65 78 l 1,18,-1
 61 128 l 1,19,-1
 101 126 l 1,0,-1
EndSplineSet
Validated: 1
EndChar

StartChar: K
Encoding: 75 75 47
Width: 562
GlyphClass: 1
Flags: W
LayerCount: 2
Fore
SplineSet
287 534 m 2,0,-1
 363 638 l 1,1,-1
 427 638 l 2,2,3
 491 638 491 638 491 633 c 128,-1,4
 491 628 491 628 443 564 c 128,-1,5
 395 500 395 500 345 440 c 2,6,-1
 317 404 l 1,7,-1
 409 274 l 2,8,9
 501 142 501 142 501 135 c 128,-1,10
 501 128 501 128 431 128 c 2,11,-1
 363 128 l 1,12,-1
 287 242 l 2,13,14
 243 307 243 307 226 338.5 c 128,-1,15
 209 370 209 370 209 395 c 128,-1,16
 209 420 209 420 225.5 446.5 c 128,-1,17
 242 473 242 473 287 534 c 2,0,-1
61 128 m 1,18,-1
 61 638 l 1,19,-1
 175 638 l 1,20,-1
 175 140 l 2,21,22
 175 134 175 134 119 130 c 2,23,-1
 61 128 l 1,18,-1
EndSplineSet
Validated: 1
EndChar

StartChar: L
Encoding: 76 76 48
Width: 454
GlyphClass: 1
Flags: W
LayerCount: 2
Fore
SplineSet
60 126 m 1,0,-1
 60 223 l 1,1,-1
 394 223 l 1,2,-1
 394 126 l 1,3,-1
 60 126 l 1,0,-1
60 258 m 1,4,-1
 60 635 l 1,5,-1
 184 635 l 1,6,-1
 184 258 l 1,7,-1
 60 258 l 1,4,-1
EndSplineSet
Validated: 1
EndChar

StartChar: M
Encoding: 77 77 49
Width: 718
GlyphClass: 1
Flags: W
LayerCount: 2
Fore
SplineSet
187 370 m 1,0,1
 181 292 181 292 173 129 c 1,2,-1
 117 129 l 2,3,4
 79 129 79 129 70 132 c 128,-1,5
 61 135 61 135 61 151.5 c 128,-1,6
 61 168 61 168 75 341.5 c 128,-1,7
 89 515 89 515 94 548 c 0,8,9
 99 578 99 578 103 578 c 2,10,-1
 104 578 l 1,11,12
 113 573 113 573 149 471 c 2,13,-1
 187 370 l 1,0,1
623 618 m 2,14,-1
 657 145 l 2,15,16
 657 135 657 135 647 132 c 128,-1,17
 637 129 637 129 601 129 c 2,18,-1
 545 129 l 1,19,-1
 541 197 l 2,20,21
 536 262 536 262 526.5 417.5 c 128,-1,22
 517 573 517 573 517 605 c 2,23,-1
 517 638 l 1,24,-1
 571 638 l 2,25,26
 607 638 607 638 615 635 c 128,-1,27
 623 632 623 632 623 618 c 2,14,-1
221 368 m 2,28,29
 125 622 125 622 125 632 c 0,30,31
 125 637 125 637 144 637 c 128,-1,32
 163 637 163 637 177 636 c 2,33,-1
 231 633 l 1,34,-1
 293 469 l 2,35,36
 351 308 351 308 359 301 c 1,37,-1
 361 301 l 2,38,39
 368 301 368 301 421.5 453.5 c 128,-1,40
 475 606 475 606 483 606 c 128,-1,41
 491 606 491 606 491 486 c 2,42,-1
 491 370 l 1,43,44
 477 330 477 330 448 251 c 128,-1,45
 419 172 419 172 405 133 c 1,46,-1
 357 131 l 1,47,-1
 311 128 l 1,48,-1
 221 368 l 2,28,29
EndSplineSet
Validated: 1
EndChar

StartChar: N
Encoding: 78 78 50
Width: 562
GlyphClass: 1
Flags: W
LayerCount: 2
Fore
SplineSet
61 345 m 2,0,1
 61 564 61 564 67 564 c 0,2,3
 69 564 69 564 117 484 c 2,4,-1
 165 402 l 1,5,-1
 167 266 l 1,6,-1
 169 130 l 1,7,-1
 115 128 l 1,8,-1
 61 125 l 1,9,-1
 61 345 l 2,0,1
391 491 m 2,10,11
 388 544 388 544 388 577 c 0,12,13
 388 624 388 624 394 630 c 0,14,15
 399 635 399 635 449 635 c 2,16,-1
 501 635 l 1,17,-1
 501 415 l 2,18,19
 501 196 501 196 495 196 c 0,20,21
 491 196 491 196 445 278 c 2,22,-1
 397 359 l 1,23,-1
 391 491 l 2,10,11
73 622 m 1,24,-1
 71 623 l 1,25,-1
 71 625 l 2,26,27
 71 635 71 635 129 635 c 2,28,-1
 191 635 l 1,29,-1
 295 466 l 2,30,31
 340 392 340 392 420.5 262 c 128,-1,32
 501 132 501 132 501 129 c 128,-1,33
 501 126 501 126 437 126 c 2,34,-1
 373 126 l 1,35,-1
 225 368 l 2,36,37
 87 591 87 591 73 622 c 1,24,-1
EndSplineSet
Validated: 1
EndChar

StartChar: O
Encoding: 79 79 51
Width: 642
GlyphClass: 1
Flags: W
LayerCount: 2
Fore
SplineSet
366 403.5 m 128,-1,1
 385 384 385 384 385 360 c 128,-1,2
 385 336 385 336 368 318 c 128,-1,3
 351 300 351 300 321.5 300 c 128,-1,4
 292 300 292 300 275 321.5 c 128,-1,5
 258 343 258 343 258 364.5 c 128,-1,6
 258 386 258 386 279.5 404.5 c 128,-1,7
 301 423 301 423 324 423 c 128,-1,0
 347 423 347 423 366 403.5 c 128,-1,1
63 360 m 1,8,-1
 64 380 l 2,9,10
 72 554 72 554 242 612 c 0,11,12
 269 622 269 622 282.5 622 c 128,-1,13
 296 622 296 622 300 612 c 128,-1,14
 304 602 304 602 306 575 c 2,15,-1
 308 529 l 1,16,-1
 270 513 l 1,17,18
 205 481 205 481 194 432 c 0,19,20
 189 411 189 411 189 365 c 128,-1,21
 189 319 189 319 193 300.5 c 128,-1,22
 197 282 197 282 211 262 c 0,23,24
 251 204 251 204 327 204 c 128,-1,25
 403 204 403 204 437 274 c 0,26,27
 456 313 456 313 456 365.5 c 128,-1,28
 456 418 456 418 428 465 c 128,-1,29
 400 512 400 512 363 519 c 0,30,31
 345 523 345 523 340.5 533.5 c 128,-1,32
 336 544 336 544 335 578 c 0,33,34
 335 584 335 584 335 590 c 0,35,36
 335 612 335 612 338 618 c 0,37,38
 342 624 342 624 354 624 c 0,39,40
 355 624 355 624 356 625 c 0,41,42
 368 625 368 625 391 618 c 0,43,44
 460 598 460 598 504.5 553.5 c 128,-1,45
 549 509 549 509 564 464 c 128,-1,46
 579 419 579 419 579 353 c 128,-1,47
 579 287 579 287 545 225 c 0,48,49
 480 105 480 105 321 105 c 2,50,-1
 306 105 l 2,51,52
 249 105 249 105 196 130 c 0,53,54
 63 192 63 192 63 360 c 1,8,-1
EndSplineSet
Validated: 1
EndChar

StartChar: P
Encoding: 80 80 52
Width: 512
GlyphClass: 1
Flags: W
LayerCount: 2
Fore
SplineSet
249 400 m 2,0,1
 288 404 288 404 309.5 423.5 c 128,-1,2
 331 443 331 443 331 468 c 128,-1,3
 331 493 331 493 322 513 c 128,-1,4
 313 533 313 533 297.5 540.5 c 128,-1,5
 282 548 282 548 248.5 550 c 128,-1,6
 215 552 215 552 209 560 c 0,7,8
 203 567 203 567 203 592 c 0,9,10
 203 625 203 625 207 632 c 0,11,12
 212 646 212 646 247.5 646 c 128,-1,13
 283 646 283 646 327 634 c 0,14,15
 411 611 411 611 436 555 c 0,16,17
 449 525 449 525 449 482 c 0,18,19
 449 400 449 400 402.5 356.5 c 128,-1,20
 356 313 356 313 267 310 c 2,21,-1
 208 308 l 1,22,-1
 208 396 l 1,23,-1
 249 400 l 2,0,1
173 641 m 1,24,-1
 177 146 l 1,25,-1
 63 146 l 1,26,-1
 63 647 l 1,27,-1
 173 641 l 1,24,-1
EndSplineSet
Validated: 1
EndChar

StartChar: Q
Encoding: 81 81 53
Width: 642
GlyphClass: 1
Flags: W
LayerCount: 2
Fore
SplineSet
324 330 m 0,0,1
 294 330 294 330 277 347.5 c 128,-1,2
 260 365 260 365 260 391 c 128,-1,3
 260 417 260 417 281 435 c 128,-1,4
 302 453 302 453 324 453 c 128,-1,5
 346 453 346 453 362.5 436.5 c 128,-1,6
 379 420 379 420 379 388 c 0,7,8
 379 330 379 330 324 330 c 0,0,1
580 398 m 1,9,-1
 579 375 l 2,10,11
 572 264 572 264 500 198 c 2,12,-1
 466 166 l 1,13,-1
 514 106 l 2,14,15
 559 52 559 52 559 45.5 c 128,-1,16
 559 39 559 39 513.5 39 c 128,-1,17
 468 39 468 39 461 40 c 0,18,19
 430 42 430 42 401 84 c 2,20,-1
 370 126 l 1,21,-1
 307 131 l 2,22,23
 179 142 179 142 110 234 c 0,24,25
 63 296 63 296 63 391 c 0,26,27
 63 488 63 488 115 557 c 0,28,29
 186 652 186 652 313 652 c 0,30,31
 376 652 376 652 432 629 c 128,-1,32
 488 606 488 606 524 564 c 0,33,34
 580 499 580 499 580 398 c 1,9,-1
456 409 m 2,35,36
 454 445 454 445 448.5 462.5 c 128,-1,37
 443 480 443 480 424.5 505.5 c 128,-1,38
 406 531 406 531 385 542.5 c 128,-1,39
 364 554 364 554 328.5 554 c 128,-1,40
 293 554 293 554 278.5 550 c 128,-1,41
 264 546 264 546 235.5 521 c 128,-1,42
 207 496 207 496 196.5 471.5 c 128,-1,43
 186 447 186 447 186 399 c 0,44,45
 186 316 186 316 221.5 275 c 128,-1,46
 257 234 257 234 321.5 234 c 128,-1,47
 386 234 386 234 421 275 c 128,-1,48
 456 316 456 316 456 391 c 2,49,-1
 456 409 l 2,35,36
EndSplineSet
Validated: 1
EndChar

StartChar: R
Encoding: 82 82 54
Width: 547
GlyphClass: 1
Flags: W
LayerCount: 2
Fore
SplineSet
455 505 m 0,0,1
 455 502 455 502 455 499 c 0,2,3
 455 410 455 410 399 368 c 0,4,5
 379 353 379 353 379 341 c 128,-1,6
 379 329 379 329 431.5 241 c 128,-1,7
 484 153 484 153 484 149.5 c 128,-1,8
 484 146 484 146 417 146 c 2,9,-1
 348 146 l 1,10,-1
 302 233 l 2,11,12
 256 319 256 319 230 324 c 0,13,14
 223 325 223 325 220 332.5 c 128,-1,15
 217 340 217 340 217 369 c 2,16,-1
 217 413 l 1,17,-1
 264 418 l 2,18,19
 304 422 304 422 319.5 436.5 c 128,-1,20
 335 451 335 451 335 484 c 128,-1,21
 335 517 335 517 319.5 531 c 128,-1,22
 304 545 304 545 264 549 c 2,23,-1
 217 554 l 1,24,-1
 214 588 l 2,25,26
 213 594 213 594 213 610 c 128,-1,27
 213 626 213 626 215 632 c 0,28,29
 220 646 220 646 253 646 c 0,30,31
 363 646 363 646 424 585 c 0,32,33
 441 569 441 569 447.5 555 c 128,-1,34
 454 541 454 541 455 505 c 0,0,1
63 390 m 2,35,36
 63 635 63 635 71 643 c 0,37,38
 73 645 73 645 96 645 c 128,-1,39
 119 645 119 645 129 644 c 2,40,-1
 181 641 l 1,41,-1
 184 394 l 1,42,-1
 186 146 l 1,43,-1
 63 146 l 1,44,-1
 63 390 l 2,35,36
EndSplineSet
Validated: 1
EndChar

StartChar: S
Encoding: 83 83 55
Width: 610
GlyphClass: 1
Flags: W
LayerCount: 2
Fore
SplineSet
67 311 m 2,0,1
 67 312 67 312 93 312 c 128,-1,2
 119 312 119 312 123.5 308 c 128,-1,3
 128 304 128 304 128 279 c 128,-1,4
 128 254 128 254 145 242.5 c 128,-1,5
 162 231 162 231 219 223 c 2,6,-1
 284 213 l 1,7,-1
 289 174 l 2,8,9
 292 155 292 155 292 143.5 c 128,-1,10
 292 132 292 132 290.5 130.5 c 128,-1,11
 289 129 289 129 271 129 c 128,-1,12
 253 129 253 129 187 139 c 128,-1,13
 121 149 121 149 96 157 c 2,14,-1
 63 168 l 1,15,-1
 65 238 l 1,16,-1
 67 311 l 2,0,1
346 323 m 0,17,18
 328 331 328 331 324.5 340.5 c 128,-1,19
 321 350 321 350 321 388 c 128,-1,20
 321 426 321 426 323.5 435 c 128,-1,21
 326 444 326 444 343.5 444 c 128,-1,22
 361 444 361 444 407.5 420.5 c 128,-1,23
 454 397 454 397 479 367 c 128,-1,24
 504 337 504 337 504 288 c 128,-1,25
 504 239 504 239 471 197.5 c 128,-1,26
 438 156 438 156 372 138 c 0,27,28
 351 133 351 133 340.5 133 c 128,-1,29
 330 133 330 133 325.5 136.5 c 128,-1,30
 321 140 321 140 321 174 c 128,-1,31
 321 208 321 208 325 216 c 128,-1,32
 329 224 329 224 345 230 c 0,33,34
 382 245 382 245 382 276.5 c 128,-1,35
 382 308 382 308 346 323 c 0,17,18
547 561 m 1,36,-1
 547 532 l 2,37,38
 547 503 547 503 542.5 493 c 128,-1,39
 538 483 538 483 526 483 c 0,40,41
 490 483 490 483 482 495 c 0,42,43
 479 501 479 501 479 524.5 c 128,-1,44
 479 548 479 548 474 551.5 c 128,-1,45
 469 555 469 555 393 563 c 2,46,-1
 321 569 l 1,47,-1
 321 655 l 1,48,-1
 376 655 l 2,49,50
 434 653 434 653 488 643 c 2,51,-1
 545 633 l 1,52,-1
 547 561 l 1,36,-1
120 516 m 0,53,54
 120 545 120 545 127.5 562 c 128,-1,55
 135 579 135 579 167 608 c 128,-1,56
 199 637 199 637 251 650 c 0,57,58
 265 653 265 653 273 653 c 128,-1,59
 281 653 281 653 283.5 644 c 128,-1,60
 286 635 286 635 286 606 c 128,-1,61
 286 577 286 577 282.5 567 c 128,-1,62
 279 557 279 557 265 553 c 0,63,64
 238 545 238 545 238 515 c 128,-1,65
 238 485 238 485 264 472 c 0,66,67
 279 464 279 464 282.5 452 c 128,-1,68
 286 440 286 440 286 404 c 2,69,-1
 286 346 l 1,70,-1
 262 351 l 2,71,72
 227 359 227 359 193 380 c 0,73,74
 120 425 120 425 120 516 c 0,53,54
EndSplineSet
Validated: 1
EndChar

StartChar: T
Encoding: 84 84 56
Width: 533
GlyphClass: 1
Flags: W
LayerCount: 2
Fore
SplineSet
333 514 m 1,0,-1
 329 141 l 1,1,-1
 215 141 l 1,2,-1
 211 328 l 1,3,-1
 209 514 l 1,4,-1
 333 514 l 1,0,-1
63 584 m 2,5,6
 61 601 61 601 60 613 c 0,7,8
 60 626 60 626 64 634 c 0,9,10
 67 640 67 640 107 643 c 128,-1,11
 147 646 147 646 271 646 c 2,12,-1
 473 646 l 1,13,-1
 471 596 l 1,14,-1
 469 545 l 1,15,-1
 65 545 l 1,16,-1
 63 584 l 2,5,6
EndSplineSet
Validated: 1
EndChar

StartChar: U
Encoding: 85 85 57
Width: 556
GlyphClass: 1
Flags: W
LayerCount: 2
Fore
SplineSet
379 482 m 2,0,-1
 379 655 l 1,1,-1
 493 655 l 1,2,-1
 493 469 l 2,3,4
 493 312 493 312 483 266.5 c 128,-1,5
 473 221 473 221 427 183 c 0,6,7
 407 166 407 166 388 157.5 c 128,-1,8
 369 149 369 149 333 142 c 2,9,-1
 300 136 l 1,10,-1
 300 187 l 2,11,12
 300 223 300 223 304.5 232.5 c 128,-1,13
 309 242 309 242 329 251 c 128,-1,14
 349 260 349 260 357 268 c 0,15,16
 376 287 376 287 378 375 c 0,17,18
 379 404 379 404 379 482 c 2,0,-1
63 488 m 2,19,-1
 63 655 l 1,20,-1
 123 653 l 1,21,-1
 181 650 l 1,22,-1
 186 475 l 2,23,24
 188 374 188 374 192 334 c 128,-1,25
 196 294 196 294 205 277 c 128,-1,26
 214 260 214 260 235.5 250.5 c 128,-1,27
 257 241 257 241 261 232 c 128,-1,28
 265 223 265 223 265 190 c 128,-1,29
 265 157 265 157 262.5 147.5 c 128,-1,30
 260 138 260 138 250 138 c 128,-1,31
 240 138 240 138 219 144 c 0,32,33
 155 163 155 163 119.5 200.5 c 128,-1,34
 84 238 84 238 73.5 281 c 128,-1,35
 63 324 63 324 63 488 c 2,19,-1
EndSplineSet
Validated: 1
EndChar

StartChar: V
Encoding: 86 86 58
Width: 604
GlyphClass: 1
Flags: W
LayerCount: 2
Fore
SplineSet
423 640 m 0,0,1
 426 648 426 648 481.5 648 c 128,-1,2
 537 648 537 648 540 645 c 128,-1,3
 543 642 543 642 543 635 c 128,-1,4
 543 628 543 628 535 606 c 128,-1,5
 527 584 527 584 465 413 c 128,-1,6
 403 242 403 242 391 210.5 c 128,-1,7
 379 179 379 179 375 179 c 0,8,9
 369 179 369 179 347 251 c 2,10,-1
 323 324 l 1,11,-1
 371 476 l 2,12,13
 421 637 421 637 423 640 c 0,0,1
211 211 m 2,14,15
 203 233 203 233 172 322 c 128,-1,16
 141 411 141 411 101 520 c 128,-1,17
 61 629 61 629 61 639 c 128,-1,18
 61 649 61 649 115 649 c 128,-1,19
 169 649 169 649 174 646 c 0,20,21
 186 638 186 638 267.5 398.5 c 128,-1,22
 349 159 349 159 349 147.5 c 128,-1,23
 349 136 349 136 293 136 c 2,24,-1
 239 136 l 1,25,-1
 211 211 l 2,14,15
EndSplineSet
Validated: 1
EndChar

StartChar: W
Encoding: 87 87 59
Width: 814
GlyphClass: 1
Flags: W
LayerCount: 2
Fore
SplineSet
653 643 m 0,0,1
 660 648 660 648 706.5 648 c 128,-1,2
 753 648 753 648 753 636 c 0,3,4
 752 622 752 622 694 399 c 128,-1,5
 636 176 636 176 630 176 c 128,-1,6
 624 176 624 176 599 269 c 2,7,-1
 577 356 l 1,8,-1
 609 495 l 2,9,10
 641 634 641 634 653 643 c 0,0,1
331 184 m 2,11,12
 325 184 325 184 307 256.5 c 128,-1,13
 289 329 289 329 289 352.5 c 128,-1,14
 289 376 289 376 322 507 c 128,-1,15
 355 638 355 638 373 643 c 0,16,17
 379 645 379 645 425 645 c 2,18,-1
 467 643 l 1,19,-1
 487 573 l 1,20,21
 603 140 603 140 603 137 c 128,-1,22
 603 134 603 134 561 134 c 128,-1,23
 519 134 519 134 508 137 c 128,-1,24
 497 140 497 140 491 163 c 0,25,26
 416 450 416 450 411 450 c 0,27,28
 410 453 410 453 398 420 c 0,29,30
 386 390 386 390 362.5 290 c 128,-1,31
 339 190 339 190 333 184 c 1,32,-1
 331 184 l 2,11,12
301 151 m 0,33,34
 301 135 301 135 232 135 c 0,35,36
 207 135 207 135 202 140 c 128,-1,37
 197 145 197 145 134 368 c 128,-1,38
 71 591 71 591 65 624 c 2,39,-1
 61 647 l 1,40,-1
 119 647 l 2,41,42
 158 647 158 647 168.5 644 c 128,-1,43
 179 641 179 641 185 626.5 c 128,-1,44
 191 612 191 612 246 387.5 c 128,-1,45
 301 163 301 163 301 151 c 0,33,34
EndSplineSet
Validated: 33
EndChar

StartChar: X
Encoding: 88 88 60
Width: 599
GlyphClass: 1
Flags: W
LayerCount: 2
Fore
SplineSet
136 260 m 2,0,-1
 210 370 l 1,1,-1
 224 350 l 2,2,3
 270 287 270 287 270 276 c 0,4,5
 270 264 270 264 228 200 c 2,6,-1
 186 134 l 1,7,-1
 124 134 l 2,8,9
 61 134 61 134 61 141 c 128,-1,10
 61 148 61 148 136 260 c 2,0,-1
364 585 m 2,11,-1
 402 647 l 1,12,-1
 460 647 l 2,13,14
 524 647 524 647 524 638 c 128,-1,15
 524 629 524 629 457 530 c 0,16,17
 390 430 390 430 381 430 c 0,18,19
 376 430 376 430 352 467 c 0,20,21
 327 505 327 505 327 514 c 0,22,23
 327 524 327 524 364 585 c 2,11,-1
238 383 m 2,24,25
 71 637 71 637 71 639 c 0,26,27
 71 647 71 647 132 647 c 2,28,-1
 198 647 l 1,29,-1
 318 467 l 2,30,31
 410 325 410 325 474 235 c 128,-1,32
 538 145 538 145 538 139.5 c 128,-1,33
 538 134 538 134 470 134 c 2,34,-1
 404 134 l 1,35,-1
 238 383 l 2,24,25
EndSplineSet
Validated: 1
EndChar

StartChar: Y
Encoding: 89 89 61
Width: 592
GlyphClass: 1
Flags: W
LayerCount: 2
Fore
SplineSet
354 550 m 2,0,1
 397 629 397 629 405.5 638.5 c 128,-1,2
 414 648 414 648 473 648 c 128,-1,3
 532 648 532 648 532 639 c 128,-1,4
 532 630 532 630 455 507 c 128,-1,5
 378 384 378 384 371 384 c 0,6,7
 369 384 369 384 358.5 397.5 c 128,-1,8
 348 411 348 411 338 429 c 2,9,-1
 314 473 l 1,10,-1
 354 550 l 2,0,1
104 646 m 2,11,-1
 128 646 l 1,12,-1
 188 643 l 1,13,14
 260 509 260 509 350 347 c 1,15,-1
 350 134 l 1,16,-1
 236 134 l 1,17,-1
 236 230 l 1,18,-1
 236 255 l 2,19,20
 236 316 236 316 223 348.5 c 128,-1,21
 210 381 210 381 135 506.5 c 128,-1,22
 60 632 60 632 60 640 c 0,23,24
 60 646 60 646 104 646 c 2,11,-1
EndSplineSet
Validated: 1
EndChar

StartChar: Z
Encoding: 90 90 62
Width: 522
GlyphClass: 1
Flags: W
LayerCount: 2
Fore
SplineSet
169 233 m 2,0,1
 321 237 321 237 380 237 c 128,-1,2
 439 237 439 237 450 232 c 128,-1,3
 461 227 461 227 461 181 c 2,4,-1
 461 134 l 1,5,-1
 61 134 l 1,6,-1
 61 229 l 1,7,-1
 169 233 l 2,0,1
427 521 m 0,8,9
 427 513 427 513 332 395.5 c 128,-1,10
 237 278 237 278 222 267 c 128,-1,11
 207 256 207 256 150 256 c 128,-1,12
 93 256 93 256 93 262.5 c 128,-1,13
 93 269 93 269 180 380.5 c 128,-1,14
 267 492 267 492 288 509 c 128,-1,15
 309 526 309 526 368 526 c 128,-1,16
 427 526 427 526 427 521 c 0,8,9
71 593 m 2,17,18
 71 636 71 636 76 641 c 128,-1,19
 81 646 81 646 213 646 c 2,20,-1
 265 646 l 1,21,-1
 449 643 l 1,22,-1
 451 598 l 1,23,-1
 453 552 l 1,24,-1
 71 552 l 1,25,-1
 71 593 l 2,17,18
EndSplineSet
Validated: 1
EndChar

StartChar: bracketleft
Encoding: 91 91 63
Width: 290
GlyphClass: 1
Flags: W
LayerCount: 2
Fore
SplineSet
128 672 m 1,0,-1
 62 672 l 1,1,-1
 62 671 l 1,2,-1
 62 594 l 1,3,-1
 62 130 l 1,4,-1
 62 65 l 1,5,-1
 128 65 l 1,6,-1
 222 65 l 1,7,-1
 222 130 l 1,8,-1
 128 130 l 1,9,-1
 128 595 l 1,10,-1
 228 596 l 1,11,-1
 228 673 l 1,12,-1
 128 672 l 1,0,-1
EndSplineSet
Validated: 9
EndChar

StartChar: backslash
Encoding: 92 92 64
Width: 382
GlyphClass: 1
Flags: W
LayerCount: 2
Fore
SplineSet
249 -5 m 0,0,1
 245 -5 245 -5 153.5 237 c 128,-1,2
 62 479 62 479 62 486 c 128,-1,3
 62 493 62 493 69.5 493 c 128,-1,4
 77 493 77 493 113 475 c 2,5,-1
 140 462 l 1,6,-1
 230 222 l 2,7,8
 320 -20 320 -20 320 -30 c 0,9,10
 320 -33 320 -33 309 -33 c 128,-1,11
 298 -33 298 -33 274 -19 c 128,-1,12
 250 -5 250 -5 249 -5 c 0,0,1
EndSplineSet
Validated: 1
EndChar

StartChar: bracketright
Encoding: 93 93 65
Width: 290
GlyphClass: 1
Flags: W
LayerCount: 2
Fore
SplineSet
162 672 m 1,0,-1
 228 672 l 1,1,-1
 228 671 l 1,2,-1
 228 594 l 1,3,-1
 228 130 l 1,4,-1
 228 65 l 1,5,-1
 162 65 l 1,6,-1
 68 65 l 1,7,-1
 68 130 l 1,8,-1
 162 130 l 1,9,-1
 162 595 l 1,10,-1
 62 596 l 1,11,-1
 62 673 l 1,12,-1
 162 672 l 1,0,-1
EndSplineSet
Validated: 1
EndChar

StartChar: underscore
Encoding: 95 95 66
Width: 456
GlyphClass: 1
Flags: W
LayerCount: 2
Fore
SplineSet
62 194 m 1,0,-1
 394 194 l 1,1,-1
 394 126 l 1,2,-1
 62 126 l 1,3,-1
 62 194 l 1,0,-1
EndSplineSet
Validated: 1
EndChar

StartChar: a
Encoding: 97 97 67
Width: 496
GlyphClass: 1
Flags: W
LayerCount: 2
Fore
SplineSet
206 454 m 0,0,1
 206 459 206 459 248 459 c 2,2,-1
 294 459 l 1,3,-1
 306 432 l 2,4,5
 309 423 309 423 371.5 283.5 c 128,-1,6
 434 144 434 144 434 139.5 c 128,-1,7
 434 135 434 135 404 135 c 2,8,-1
 380 135 l 1,9,-1
 326 137 l 1,10,-1
 270 282 l 2,11,12
 206 445 206 445 206 454 c 0,0,1
66 151 m 2,13,14
 68 162 68 162 121 283 c 128,-1,15
 174 404 174 404 178 411.5 c 128,-1,16
 182 419 182 419 185 419 c 0,17,18
 194 419 194 419 208 372 c 2,19,-1
 220 330 l 1,20,-1
 198 275 l 2,21,22
 174 222 174 222 174 213 c 0,23,24
 174 200 174 200 222 200 c 2,25,-1
 268 200 l 1,26,-1
 276 171 l 2,27,28
 280 154 280 154 280 145 c 0,29,30
 280 138 280 138 278 136 c 128,-1,31
 276 134 276 134 168 134 c 2,32,-1
 62 134 l 1,33,-1
 66 151 l 2,13,14
EndSplineSet
Validated: 1
EndChar

StartChar: b
Encoding: 98 98 68
Width: 456
GlyphClass: 1
Flags: W
LayerCount: 2
Fore
SplineSet
393 294 m 2,0,-1
 392 276 l 2,1,2
 386 207 386 207 345 162.5 c 128,-1,3
 304 118 304 118 249 118 c 0,4,5
 233 118 233 118 215.5 122 c 128,-1,6
 198 126 198 126 193.5 131.5 c 128,-1,7
 189 137 189 137 188 163 c 2,8,-1
 186 198 l 1,9,-1
 216 198 l 2,10,11
 248 198 248 198 272 222 c 0,12,13
 283 233 283 233 286.5 244 c 128,-1,14
 290 255 290 255 290 284 c 128,-1,15
 290 313 290 313 286.5 326 c 128,-1,16
 283 339 283 339 271 352.5 c 128,-1,17
 259 366 259 366 249 370.5 c 128,-1,18
 239 375 239 375 219 375 c 2,19,-1
 186 375 l 1,20,-1
 188 407 l 2,21,22
 190 428 190 428 194 434.5 c 128,-1,23
 198 441 198 441 218.5 447.5 c 128,-1,24
 239 454 239 454 267 454 c 0,25,26
 332 454 332 454 369 389 c 0,27,28
 393 345 393 345 393 294 c 2,0,-1
161 536 m 2,29,30
 164 512 164 512 164 344.5 c 128,-1,31
 164 177 164 177 152 143 c 0,32,33
 146 125 146 125 122 124 c 2,34,-1
 68 124 l 1,35,-1
 68 341 l 2,36,37
 68 556 68 556 63 571 c 1,38,-1
 63 573 l 2,39,40
 63 582 63 582 107 582 c 2,41,-1
 156 582 l 1,42,-1
 161 536 l 2,29,30
EndSplineSet
Validated: 1
EndChar

StartChar: c
Encoding: 99 99 69
Width: 396
GlyphClass: 1
Flags: W
LayerCount: 2
Fore
SplineSet
87 376 m 0,0,1
 132 451 132 451 235 451 c 0,2,3
 267 451 267 451 299.5 443.5 c 128,-1,4
 332 436 332 436 332 421 c 0,5,6
 332 413 332 413 320.5 388 c 128,-1,7
 309 363 309 363 300 363 c 0,8,9
 298 363 298 363 282 370 c 128,-1,10
 266 377 266 377 233.5 377 c 128,-1,11
 201 377 201 377 180.5 355 c 128,-1,12
 160 333 160 333 160 294.5 c 128,-1,13
 160 256 160 256 181.5 231.5 c 128,-1,14
 203 207 203 207 231 207 c 128,-1,15
 259 207 259 207 281 218 c 2,16,-1
 307 232 l 1,17,-1
 323 207 l 2,18,19
 333 189 333 189 333 180 c 0,20,21
 333 164 333 164 302 149 c 128,-1,22
 271 134 271 134 229 134 c 128,-1,23
 187 134 187 134 148 151 c 128,-1,24
 109 168 109 168 86 206.5 c 128,-1,25
 63 245 63 245 63 291 c 128,-1,26
 63 337 63 337 87 376 c 0,0,1
EndSplineSet
Validated: 1
EndChar

StartChar: d
Encoding: 100 100 70
Width: 432
GlyphClass: 1
Flags: W
LayerCount: 2
Fore
SplineSet
63 293 m 0,0,1
 63 354 63 354 106 402 c 0,2,3
 133 432 133 432 155.5 439.5 c 128,-1,4
 178 447 178 447 205.5 447 c 128,-1,5
 233 447 233 447 240 444 c 0,6,7
 253 440 253 440 253 414 c 128,-1,8
 253 388 253 388 249.5 383.5 c 128,-1,9
 246 379 246 379 230 377 c 0,10,11
 158 367 158 367 158 294 c 0,12,13
 158 255 158 255 178 229 c 128,-1,14
 198 203 198 203 229 203 c 0,15,16
 244 203 244 203 251 197 c 128,-1,17
 258 191 258 191 258 174 c 0,18,19
 258 133 258 133 202 133 c 0,20,21
 128 133 128 133 85 212 c 0,22,23
 63 253 63 253 63 293 c 0,0,1
276 370 m 0,24,25
 275 370 275 370 275 464 c 128,-1,26
 275 558 275 558 277.5 565.5 c 128,-1,27
 280 573 280 573 308 573 c 2,28,-1
 325 573 l 1,29,-1
 369 571 l 1,30,-1
 369 136 l 1,31,-1
 335 134 l 1,32,-1
 321 134 l 2,33,34
 320 134 320 134 319 134 c 0,35,36
 302 134 302 134 295 149 c 0,37,38
 278 185 278 185 276 370 c 0,24,25
EndSplineSet
Validated: 1
EndChar

StartChar: e
Encoding: 101 101 71
Width: 429
GlyphClass: 1
Flags: W
LayerCount: 2
Fore
SplineSet
154 300 m 0,0,1
 153 300 153 300 155 278 c 128,-1,2
 157 256 157 256 162 245.5 c 128,-1,3
 167 235 167 235 185.5 218.5 c 128,-1,4
 204 202 204 202 235.5 202 c 128,-1,5
 267 202 267 202 290 212 c 128,-1,6
 313 222 313 222 319 222 c 128,-1,7
 325 222 325 222 328 217.5 c 128,-1,8
 331 213 331 213 338 195.5 c 128,-1,9
 345 178 345 178 345 171.5 c 128,-1,10
 345 165 345 165 336 157 c 0,11,12
 305 131 305 131 232 131 c 0,13,14
 131 131 131 131 88 196 c 0,15,16
 63 233 63 233 63 294 c 128,-1,17
 63 355 63 355 104.5 401.5 c 128,-1,18
 146 448 146 448 213.5 448 c 128,-1,19
 281 448 281 448 317.5 415 c 128,-1,20
 354 382 354 382 362 308 c 2,21,-1
 366 266 l 1,22,-1
 182 266 l 1,23,-1
 182 322 l 1,24,-1
 228 322 l 2,25,26
 273 322 273 322 273 342 c 0,27,28
 273 354 273 354 257 367 c 128,-1,29
 241 380 241 380 223 380 c 0,30,31
 155 380 155 380 154 300 c 0,0,1
EndSplineSet
Validated: 1
EndChar

StartChar: f
Encoding: 102 102 72
Width: 376
GlyphClass: 1
Flags: W
LayerCount: 2
Fore
SplineSet
114 127 m 1,0,-1
 108 359 l 1,1,-1
 84 361 l 2,2,3
 67 362 67 362 63.5 367.5 c 128,-1,4
 60 373 60 373 60 400.5 c 128,-1,5
 60 428 60 428 63 433 c 128,-1,6
 66 438 66 438 84 440 c 0,7,8
 116 444 116 444 116 482.5 c 128,-1,9
 116 521 116 521 136 549 c 0,10,11
 170 598 170 598 244 598 c 0,12,13
 270 598 270 598 289 592 c 128,-1,14
 308 586 308 586 312 582.5 c 128,-1,15
 316 579 316 579 316 569.5 c 128,-1,16
 316 560 316 560 311 538.5 c 128,-1,17
 306 517 306 517 298 515 c 2,18,-1
 288 513 l 1,19,-1
 276 514 l 2,20,21
 268 515 268 515 261 515 c 0,22,23
 260 515 260 515 259 515 c 0,24,25
 214 515 214 515 214 465 c 0,26,27
 214 450 214 450 218.5 445.5 c 128,-1,28
 223 441 223 441 252 440 c 2,29,-1
 292 438 l 1,30,-1
 294 399 l 1,31,-1
 296 360 l 1,32,-1
 214 360 l 1,33,-1
 212 126 l 1,34,-1
 164 126 l 1,35,-1
 114 127 l 1,0,-1
EndSplineSet
Validated: 1
EndChar

StartChar: g
Encoding: 103 103 73
Width: 470
GlyphClass: 1
Flags: W
LayerCount: 2
Fore
SplineSet
219 -34 m 2,0,1
 158 -34 158 -34 132.5 -25 c 128,-1,2
 107 -16 107 -16 102 -12 c 128,-1,3
 97 -8 97 -8 97 -1.5 c 128,-1,4
 97 5 97 5 99.5 32 c 128,-1,5
 102 59 102 59 104.5 61.5 c 128,-1,6
 107 64 107 64 114.5 64 c 128,-1,7
 122 64 122 64 148 55 c 128,-1,8
 174 46 174 46 209 46 c 0,9,10
 272 46 272 46 290 80 c 0,11,12
 299 97 299 97 302 133.5 c 128,-1,13
 305 170 305 170 305 306 c 128,-1,14
 305 442 305 442 328 452 c 0,15,16
 336 456 336 456 366 456 c 2,17,-1
 407 456 l 1,18,-1
 407 288 l 2,19,20
 407 117 407 117 395 66 c 0,21,22
 372 -34 372 -34 223 -34 c 2,23,-1
 219 -34 l 2,0,1
68 337 m 0,24,25
 85 418 85 418 143 447 c 0,26,27
 173 462 173 462 221.5 462 c 128,-1,28
 270 462 270 462 277 455 c 128,-1,29
 284 448 284 448 284 432.5 c 128,-1,30
 284 417 284 417 283 411 c 2,31,-1
 280 377 l 1,32,-1
 249 382 l 2,33,34
 235 384 235 384 225 384 c 128,-1,35
 215 384 215 384 197 366 c 128,-1,36
 179 348 179 348 175 336 c 128,-1,37
 171 324 171 324 171 296.5 c 128,-1,38
 171 269 171 269 174.5 256 c 128,-1,39
 178 243 178 243 191 227.5 c 128,-1,40
 204 212 204 212 214 207.5 c 128,-1,41
 224 203 224 203 246 203 c 2,42,-1
 281 203 l 1,43,-1
 281 172 l 2,44,45
 281 140 281 140 265 131 c 128,-1,46
 249 122 249 122 218 122 c 0,47,48
 124 122 124 122 84 200 c 0,49,50
 63 240 63 240 63 290 c 0,51,52
 63 312 63 312 68 337 c 0,24,25
EndSplineSet
Validated: 1
EndChar

StartChar: h
Encoding: 104 104 74
Width: 420
GlyphClass: 1
Flags: W
LayerCount: 2
Fore
SplineSet
217 366 m 1,0,-1
 189 362 l 2,1,2
 183 362 183 362 182 367.5 c 128,-1,3
 181 373 181 373 181 392 c 128,-1,4
 181 411 181 411 184.5 418 c 128,-1,5
 188 425 188 425 205 433.5 c 128,-1,6
 222 442 222 442 256 442 c 128,-1,7
 290 442 290 442 316 423.5 c 128,-1,8
 342 405 342 405 349.5 374.5 c 128,-1,9
 357 344 357 344 357 250 c 2,10,-1
 357 136 l 1,11,-1
 265 136 l 1,12,-1
 265 230 l 2,13,14
 265 325 265 325 255.5 345.5 c 128,-1,15
 246 366 246 366 217 366 c 1,0,-1
63 433 m 2,16,17
 63 554 63 554 65.5 561.5 c 128,-1,18
 68 569 68 569 98 569 c 2,19,-1
 112 569 l 1,20,-1
 157 567 l 1,21,-1
 157 139 l 1,22,-1
 65 139 l 1,23,-1
 63 346 l 1,24,-1
 63 433 l 2,16,17
EndSplineSet
Validated: 1
EndChar

StartChar: i
Encoding: 105 105 75
Width: 224
GlyphClass: 1
Flags: W
LayerCount: 2
Fore
SplineSet
71 287 m 2,0,1
 73 448 73 448 75 451 c 128,-1,2
 77 454 77 454 98 454 c 2,3,-1
 113 454 l 1,4,-1
 149 453 l 1,5,-1
 149 126 l 1,6,-1
 70 126 l 1,7,-1
 71 287 l 2,0,1
163 525 m 0,8,9
 163 478 163 478 112 478 c 128,-1,10
 61 478 61 478 61 525 c 0,11,12
 61 551 61 551 76 563.5 c 128,-1,13
 91 576 91 576 113 576 c 128,-1,14
 135 576 135 576 149 562.5 c 128,-1,15
 163 549 163 549 163 525 c 0,8,9
EndSplineSet
Validated: 1
EndChar

StartChar: j
Encoding: 106 106 76
Width: 276
GlyphClass: 1
Flags: W
LayerCount: 2
Fore
SplineSet
124 305 m 2,0,-1
 124 458 l 1,1,-1
 208 458 l 1,2,-1
 208 293 l 2,3,4
 208 182 208 182 206 150 c 0,5,6
 202 86 202 86 164 66 c 0,7,8
 142 54 142 54 104 54 c 2,9,-1
 60 54 l 1,10,-1
 60 87 l 2,11,12
 60 111 60 111 63 115.5 c 128,-1,13
 66 120 66 120 82 122 c 128,-1,14
 98 124 98 124 105 127.5 c 128,-1,15
 112 131 112 131 118 156 c 128,-1,16
 124 181 124 181 124 305 c 2,0,-1
216 539 m 0,17,18
 216 492 216 492 165 492 c 128,-1,19
 114 492 114 492 114 539 c 0,20,21
 114 565 114 565 129 577.5 c 128,-1,22
 144 590 144 590 166 590 c 128,-1,23
 188 590 188 590 202 576.5 c 128,-1,24
 216 563 216 563 216 539 c 0,17,18
EndSplineSet
Validated: 1
EndChar

StartChar: k
Encoding: 107 107 77
Width: 426
GlyphClass: 1
Flags: W
LayerCount: 2
Fore
SplineSet
222 198 m 2,0,1
 188 250 188 250 180 267.5 c 128,-1,2
 172 285 172 285 172 312 c 128,-1,3
 172 339 172 339 182 358 c 128,-1,4
 192 377 192 377 231 422.5 c 128,-1,5
 270 468 270 468 279 472.5 c 128,-1,6
 288 477 288 477 324 477 c 128,-1,7
 360 477 360 477 360 469 c 128,-1,8
 360 461 360 461 303 394 c 128,-1,9
 246 327 246 327 246 317 c 128,-1,10
 246 307 246 307 306 218.5 c 128,-1,11
 366 130 366 130 366 126 c 128,-1,12
 366 122 366 122 320 122 c 2,13,-1
 272 122 l 1,14,-1
 222 198 l 2,0,1
60 295 m 2,15,16
 60 469 60 469 68 475 c 0,17,18
 70 477 70 477 93 477 c 128,-1,19
 116 477 116 477 128 473 c 2,20,-1
 144 469 l 1,21,-1
 144 122 l 1,22,-1
 60 122 l 1,23,-1
 60 295 l 2,15,16
EndSplineSet
Validated: 1
EndChar

StartChar: l
Encoding: 108 108 78
Width: 370
GlyphClass: 1
Flags: W
LayerCount: 2
Fore
SplineSet
181 126 m 1,0,-1
 181 190 l 1,1,-1
 310 190 l 1,2,-1
 310 126 l 1,3,-1
 181 126 l 1,0,-1
60 126 m 1,4,-1
 60 499 l 1,5,-1
 143 499 l 1,6,-1
 143 126 l 1,7,-1
 60 126 l 1,4,-1
EndSplineSet
Validated: 1
EndChar

StartChar: m
Encoding: 109 109 79
Width: 532
GlyphClass: 1
Flags: W
LayerCount: 2
Fore
SplineSet
65 159 m 2,0,1
 69 185 69 185 79 305 c 128,-1,2
 89 425 89 425 93 425 c 128,-1,3
 97 425 97 425 110 389 c 0,4,5
 151 284 151 284 151 207 c 0,6,7
 151 180 151 180 146 156.5 c 128,-1,8
 141 133 141 133 135 129.5 c 128,-1,9
 129 126 129 126 101 126 c 2,10,-1
 61 126 l 1,11,-1
 65 159 l 2,0,1
447 457 m 2,12,-1
 471 155 l 1,13,-1
 471 126 l 1,14,-1
 395 126 l 1,15,-1
 389 167 l 2,16,17
 381 216 381 216 379 339 c 2,18,-1
 373 470 l 1,19,-1
 409 470 l 2,20,21
 432 470 432 470 439.5 467.5 c 128,-1,22
 447 465 447 465 447 457 c 2,12,-1
141 469 m 2,23,-1
 183 466 l 1,24,-1
 219 364 l 2,25,26
 259 258 259 258 261 253.5 c 128,-1,27
 263 249 263 249 265 249 c 0,28,29
 272 249 272 249 287.5 289.5 c 128,-1,30
 303 330 303 330 323 380 c 2,31,-1
 349 451 l 1,32,-1
 355 376 l 2,33,34
 357 344 357 344 357 318 c 128,-1,35
 357 292 357 292 333 214 c 2,36,-1
 305 126 l 1,37,-1
 269 126 l 2,38,39
 235 126 235 126 230 136 c 128,-1,40
 225 146 225 146 165 304 c 128,-1,41
 105 462 105 462 105 468 c 0,42,43
 105 470 105 470 112.5 470 c 128,-1,44
 120 470 120 470 141 469 c 2,23,-1
EndSplineSet
Validated: 1
EndChar

StartChar: n
Encoding: 110 110 80
Width: 396
GlyphClass: 1
Flags: W
LayerCount: 2
Fore
SplineSet
61 262 m 2,0,1
 61 395 61 395 71 395 c 0,2,3
 77 395 77 395 105 347 c 2,4,-1
 135 298 l 1,5,-1
 135 128 l 1,6,-1
 61 128 l 1,7,-1
 61 262 l 2,0,1
185 254 m 2,8,9
 105 384 105 384 87 409.5 c 128,-1,10
 69 435 69 435 69 440.5 c 128,-1,11
 69 446 69 446 100 446 c 128,-1,12
 131 446 131 446 139 442.5 c 128,-1,13
 147 439 147 439 165 415 c 128,-1,14
 183 391 183 391 259 267.5 c 128,-1,15
 335 144 335 144 335 135 c 0,16,17
 335 130 335 130 309 130 c 2,18,-1
 297 130 l 1,19,-1
 259 132 l 1,20,-1
 185 254 l 2,8,9
269 284 m 1,21,-1
 269 454 l 1,22,-1
 335 454 l 1,23,-1
 335 319 l 2,24,25
 335 206 335 206 322 206 c 0,26,27
 320 206 320 206 318 209 c 0,28,29
 315 214 315 214 299 238 c 2,30,-1
 269 284 l 1,21,-1
EndSplineSet
Validated: 1
EndChar

StartChar: o
Encoding: 111 111 81
Width: 479
GlyphClass: 1
Flags: W
LayerCount: 2
Fore
SplineSet
242 263 m 0,0,1
 205 263 205 263 205 308 c 0,2,3
 205 328 205 328 216 336 c 0,4,5
 228 346 228 346 241 345.5 c 128,-1,6
 254 345 254 345 267.5 332.5 c 128,-1,7
 281 320 281 320 281 304 c 128,-1,8
 281 288 281 288 269.5 275.5 c 128,-1,9
 258 263 258 263 242 263 c 0,0,1
169 468 m 0,10,11
 193 479 193 479 207 479 c 128,-1,12
 221 479 221 479 224 473.5 c 128,-1,13
 227 468 227 468 227 447.5 c 128,-1,14
 227 427 227 427 223 420 c 128,-1,15
 219 413 219 413 206 408 c 0,16,17
 178 396 178 396 160 366 c 0,18,19
 142 335 142 335 141 306 c 0,20,21
 142 280 142 280 154 255 c 0,22,23
 166 229 166 229 186.5 213.5 c 128,-1,24
 207 198 207 198 241.5 198 c 128,-1,25
 276 198 276 198 298 213 c 0,26,27
 337 238 337 238 337 297 c 0,28,29
 337 381 337 381 274 407 c 0,30,31
 259 413 259 413 255 420 c 128,-1,32
 251 427 251 427 251 448.5 c 128,-1,33
 251 470 251 470 254 474.5 c 128,-1,34
 257 479 257 479 277.5 479 c 128,-1,35
 298 479 298 479 332.5 459.5 c 128,-1,36
 367 440 367 440 391.5 405.5 c 128,-1,37
 416 371 416 371 416 286 c 0,38,39
 416 268 416 268 414 260 c 0,40,41
 400 197 400 197 354 162 c 0,42,43
 309 127 309 127 237 127 c 0,44,45
 236 128 236 128 234 128 c 0,46,47
 160 128 160 128 111.5 176 c 128,-1,48
 63 224 63 224 63 303 c 0,49,50
 63 419 63 419 169 468 c 0,10,11
EndSplineSet
Validated: 1
EndChar

StartChar: p
Encoding: 112 112 82
Width: 422
GlyphClass: 1
Flags: W
LayerCount: 2
Fore
SplineSet
175 425 m 1,0,-1
 175 499 l 1,1,-1
 209 499 l 2,2,3
 281 499 281 499 320 468 c 128,-1,4
 359 437 359 437 359 336 c 0,5,6
 359 266 359 266 226 255 c 2,7,-1
 175 251 l 1,8,-1
 175 320 l 1,9,-1
 208 320 l 1,10,-1
 209 320 l 2,11,12
 272 320 272 320 272 375 c 0,13,14
 272 401 272 401 258 413 c 0,15,16
 243 425 243 425 211 425 c 2,17,-1
 175 425 l 1,0,-1
63 126 m 1,18,-1
 63 499 l 1,19,-1
 152 499 l 1,20,-1
 152 126 l 1,21,-1
 63 126 l 1,18,-1
EndSplineSet
Validated: 1
EndChar

StartChar: q
Encoding: 113 113 83
Width: 483
GlyphClass: 1
Flags: W
LayerCount: 2
Fore
SplineSet
145 456 m 0,0,1
 178 478 178 478 199.5 478 c 128,-1,2
 221 478 221 478 224.5 473.5 c 128,-1,3
 228 469 228 469 228 447.5 c 128,-1,4
 228 426 228 426 224 418 c 128,-1,5
 220 410 220 410 198 400 c 128,-1,6
 176 390 176 390 161 363.5 c 128,-1,7
 146 337 146 337 146 297.5 c 128,-1,8
 146 258 146 258 175.5 229 c 128,-1,9
 205 200 205 200 231 200 c 0,10,11
 292 200 292 200 320 252 c 0,12,13
 334 279 334 279 334 311 c 128,-1,14
 334 343 334 343 319 369.5 c 128,-1,15
 304 396 304 396 282.5 404 c 128,-1,16
 261 412 261 412 257 419.5 c 128,-1,17
 253 427 253 427 253 448 c 2,18,-1
 253 481 l 1,19,-1
 287 476 l 2,20,21
 339 469 339 469 379.5 419 c 128,-1,22
 420 369 420 369 420 302 c 128,-1,23
 420 235 420 235 369 182 c 2,24,-1
 344 157 l 1,25,-1
 374 117 l 2,26,27
 403 79 403 79 403 74.5 c 128,-1,28
 403 70 403 70 364.5 70 c 128,-1,29
 326 70 326 70 316 74.5 c 128,-1,30
 306 79 306 79 292 97.5 c 128,-1,31
 278 116 278 116 268 122 c 128,-1,32
 258 128 258 128 235 128 c 0,33,34
 164 128 164 128 113.5 182.5 c 128,-1,35
 63 237 63 237 63 308 c 0,36,37
 63 400 63 400 145 456 c 0,0,1
EndSplineSet
Validated: 1
EndChar

StartChar: r
Encoding: 114 114 84
Width: 417
GlyphClass: 1
Flags: W
LayerCount: 2
Fore
SplineSet
170 399 m 1,0,-1
 170 464 l 1,1,-1
 218 461 l 2,2,3
 277 456 277 456 304.5 433 c 128,-1,4
 332 410 332 410 332 361 c 128,-1,5
 332 312 332 312 292 280 c 0,6,7
 279 270 279 270 279 264.5 c 128,-1,8
 279 259 279 259 283 253 c 128,-1,9
 287 247 287 247 324 180 c 2,10,-1
 354 126 l 1,11,-1
 261 126 l 1,12,-1
 243 166 l 2,13,14
 207 245 207 245 183 245 c 0,15,16
 170 245 170 245 170 276 c 2,17,-1
 170 307 l 1,18,-1
 201 312 l 2,19,20
 255 321 255 321 255 357 c 0,21,22
 255 377 255 377 239 388 c 128,-1,23
 223 399 223 399 197 399 c 2,24,-1
 170 399 l 1,0,-1
67 356 m 2,25,-1
 63 462 l 1,26,-1
 149 462 l 1,27,-1
 149 310 l 2,28,29
 149 162 149 162 152 150.5 c 128,-1,30
 155 139 155 139 155 136 c 0,31,32
 155 128 155 128 148 127 c 128,-1,33
 141 126 141 126 115 126 c 2,34,-1
 72 126 l 1,35,-1
 72 187 l 2,36,37
 72 259 72 259 67 356 c 2,25,-1
EndSplineSet
Validated: 1
EndChar

StartChar: s
Encoding: 115 115 85
Width: 436
GlyphClass: 1
Flags: W
LayerCount: 2
Fore
SplineSet
68 156.5 m 128,-1,1
 63 162 63 162 63 188 c 0,2,3
 63 244 63 244 85 244 c 0,4,5
 98 244 98 244 106.5 224 c 128,-1,6
 115 204 115 204 122 199 c 128,-1,7
 129 194 129 194 163 189.5 c 128,-1,8
 197 185 197 185 204 180 c 128,-1,9
 211 175 211 175 211 151 c 2,10,-1
 211 122 l 1,11,-1
 171 127 l 2,12,13
 137 130 137 130 105 140.5 c 128,-1,0
 73 151 73 151 68 156.5 c 128,-1,1
240 125 m 0,14,15
 231 125 231 125 231 150 c 128,-1,16
 231 175 231 175 235 181.5 c 128,-1,17
 239 188 239 188 248 192 c 0,18,19
 268 201 268 201 268 222.5 c 128,-1,20
 268 244 268 244 249 252 c 0,21,22
 238 257 238 257 234.5 265 c 128,-1,23
 231 273 231 273 231 303 c 128,-1,24
 231 333 231 333 240.5 333 c 128,-1,25
 250 333 250 333 271 323 c 0,26,27
 349 285 349 285 349 228 c 0,28,29
 349 161 349 161 260 130 c 0,30,31
 244 125 244 125 240 125 c 0,14,15
267 405 m 2,32,-1
 231 405 l 1,33,-1
 231 461 l 1,34,-1
 271 461 l 2,35,36
 309 461 309 461 341 454 c 2,37,-1
 373 446 l 1,38,-1
 371 413 l 2,39,40
 370 362 370 362 357 362 c 0,41,42
 354 362 354 362 347 365 c 0,43,44
 331 371 331 371 331 383 c 0,45,46
 331 405 331 405 267 405 c 2,32,-1
211 434.5 m 128,-1,48
 211 409 211 409 186 389 c 0,49,50
 177 381 177 381 177 377 c 128,-1,51
 177 373 177 373 187 357.5 c 128,-1,52
 197 342 197 342 204 342 c 128,-1,53
 211 342 211 342 211 308.5 c 128,-1,54
 211 275 211 275 208 272.5 c 128,-1,55
 205 270 205 270 198 270 c 128,-1,56
 191 270 191 270 160 284.5 c 128,-1,57
 129 299 129 299 114 316.5 c 128,-1,58
 99 334 99 334 99 367 c 128,-1,59
 99 400 99 400 116 419 c 128,-1,60
 133 438 133 438 162 449 c 128,-1,61
 191 460 191 460 198 460 c 0,62,47
 211 460 211 460 211 434.5 c 128,-1,48
EndSplineSet
Validated: 1
EndChar

StartChar: t
Encoding: 116 116 86
Width: 371
GlyphClass: 1
Flags: W
LayerCount: 2
Fore
SplineSet
148 126 m 1,0,-1
 148 349 l 1,1,-1
 215 349 l 1,2,-1
 215 126 l 1,3,-1
 148 126 l 1,0,-1
61 448 m 1,4,-1
 310 448 l 1,5,-1
 310 380 l 1,6,-1
 61 380 l 1,7,-1
 61 448 l 1,4,-1
EndSplineSet
Validated: 1
EndChar

StartChar: u
Encoding: 117 117 87
Width: 384
GlyphClass: 1
Flags: W
LayerCount: 2
Fore
SplineSet
250 332 m 2,0,-1
 252 437 l 1,1,-1
 321 437 l 1,2,-1
 318 324 l 2,3,4
 316 237 316 237 314.5 220.5 c 128,-1,5
 313 204 313 204 302 186 c 0,6,7
 277 143 277 143 221 132 c 2,8,-1
 200 128 l 1,9,-1
 200 159 l 2,10,11
 200 192 200 192 215 196 c 0,12,13
 223 198 223 198 234 210 c 128,-1,14
 245 222 245 222 246.5 238 c 128,-1,15
 248 254 248 254 250 332 c 2,0,-1
63 336 m 2,16,-1
 63 437 l 1,17,-1
 130 437 l 1,18,-1
 133 333 l 2,19,20
 134 250 134 250 139 228.5 c 128,-1,21
 144 207 144 207 158 200.5 c 128,-1,22
 172 194 172 194 174.5 187 c 128,-1,23
 177 180 177 180 177 159 c 2,24,-1
 177 128 l 1,25,-1
 159 131 l 2,26,27
 90 145 90 145 74 199 c 0,28,29
 63 236 63 236 63 336 c 2,16,-1
EndSplineSet
Validated: 1
EndChar

StartChar: v
Encoding: 118 118 88
Width: 410
GlyphClass: 1
Flags: W
LayerCount: 2
Fore
SplineSet
243 325 m 2,0,1
 267 407 267 407 274 420 c 128,-1,2
 281 433 281 433 314 433 c 128,-1,3
 347 433 347 433 347 426 c 128,-1,4
 347 419 347 419 301 289.5 c 128,-1,5
 255 160 255 160 249 154 c 1,6,7
 241 154 241 154 231 196 c 2,8,-1
 219 245 l 1,9,-1
 243 325 l 2,0,1
153 170 m 0,10,11
 147 186 147 186 105 302.5 c 128,-1,12
 63 419 63 419 63 425.5 c 128,-1,13
 63 432 63 432 96 432 c 128,-1,14
 129 432 129 432 137 422.5 c 128,-1,15
 145 413 145 413 189 274.5 c 128,-1,16
 233 136 233 136 233 131 c 128,-1,17
 233 126 233 126 208 126 c 0,18,19
 171 126 171 126 153 170 c 0,10,11
EndSplineSet
Validated: 1
EndChar

StartChar: w
Encoding: 119 119 89
Width: 550
GlyphClass: 1
Flags: W
LayerCount: 2
Fore
SplineSet
261 272 m 2,0,1
 229 152 229 152 225 152 c 128,-1,2
 221 152 221 152 210 200 c 128,-1,3
 199 248 199 248 199 267 c 128,-1,4
 199 286 199 286 216 342.5 c 128,-1,5
 233 399 233 399 233 401 c 2,6,-1
 239 429 l 1,7,-1
 275 429 l 2,8,9
 310 429 310 429 317 409 c 0,10,11
 320 400 320 400 355.5 265.5 c 128,-1,12
 391 131 391 131 391 128.5 c 128,-1,13
 391 126 391 126 362 126 c 128,-1,14
 333 126 333 126 328 130 c 128,-1,15
 323 134 323 134 300 226 c 0,16,17
 278 313 278 313 272 312 c 2,18,-1
 271 312 l 1,19,-1
 261 272 l 2,0,1
133 174 m 2,20,21
 118 223 118 223 112.5 242.5 c 128,-1,22
 107 262 107 262 84 340.5 c 128,-1,23
 61 419 61 419 61 424 c 128,-1,24
 61 429 61 429 97 429 c 2,25,-1
 133 429 l 1,26,-1
 141 401 l 2,27,28
 146 382 146 382 171.5 286.5 c 128,-1,29
 197 191 197 191 203 168 c 2,30,-1
 211 126 l 1,31,-1
 147 126 l 1,32,-1
 133 174 l 2,20,21
402 157 m 0,33,34
 399 157 399 157 388 203 c 128,-1,35
 377 249 377 249 377 261.5 c 128,-1,36
 377 274 377 274 391 335 c 128,-1,37
 405 396 405 396 411 410.5 c 128,-1,38
 417 425 417 425 428 430 c 128,-1,39
 439 435 439 435 465 435 c 2,40,-1
 489 435 l 1,41,-1
 481 414 l 2,42,43
 478 400 478 400 443.5 278.5 c 128,-1,44
 409 157 409 157 402 157 c 0,33,34
EndSplineSet
Validated: 33
EndChar

StartChar: x
Encoding: 120 120 90
Width: 410
GlyphClass: 1
Flags: W
LayerCount: 2
Fore
SplineSet
61 131 m 0,0,1
 61 140 61 140 103 202 c 128,-1,2
 145 264 145 264 150 264 c 128,-1,3
 155 264 155 264 173 237 c 2,4,-1
 191 210 l 1,5,-1
 139 129 l 1,6,-1
 99 127 l 2,7,8
 89 126 89 126 75 126 c 128,-1,9
 61 126 61 126 61 131 c 0,0,1
245 405 m 2,10,-1
 269 441 l 1,11,-1
 349 441 l 1,12,-1
 337 424 l 2,13,14
 333 419 333 419 291 353 c 2,15,-1
 257 302 l 1,16,-1
 239 329 l 2,17,18
 222 355 222 355 222 361 c 128,-1,19
 222 367 222 367 245 405 c 2,10,-1
169 275 m 2,20,21
 68 428 68 428 66 434 c 0,22,23
 65 440 65 440 87 440 c 2,24,-1
 105 440 l 1,25,-1
 147 438 l 1,26,-1
 247 287 l 2,27,28
 348 136 348 136 348 131 c 128,-1,29
 348 126 348 126 307 126 c 2,30,-1
 265 126 l 1,31,-1
 169 275 l 2,20,21
EndSplineSet
Validated: 1
EndChar

StartChar: y
Encoding: 121 121 91
Width: 423
GlyphClass: 1
Flags: W
LayerCount: 2
Fore
SplineSet
224 338 m 1,0,1
 246 376 246 376 286 452 c 1,2,-1
 324 452 l 2,3,4
 363 452 363 452 363 446 c 128,-1,5
 363 440 363 440 313 360 c 0,6,7
 262 280 262 280 257 279 c 0,8,9
 255 279 255 279 248.5 292.5 c 128,-1,10
 242 306 242 306 238 311 c 2,11,-1
 224 338 l 1,0,1
253 126 m 1,12,-1
 176 126 l 1,13,-1
 170 258 l 1,14,-1
 116 351 l 2,15,16
 60 447 60 447 60 449 c 0,17,18
 60 452 60 452 102 452 c 2,19,-1
 142 452 l 1,20,21
 192 362 192 362 252 250 c 1,22,-1
 253 126 l 1,12,-1
EndSplineSet
Validated: 1
EndChar

StartChar: z
Encoding: 122 122 92
Width: 374
GlyphClass: 1
Flags: W
LayerCount: 2
Fore
SplineSet
60 125 m 1,0,-1
 60 195 l 1,1,-1
 314 195 l 1,2,-1
 314 125 l 1,3,-1
 60 125 l 1,0,-1
220 374 m 0,4,5
 226 376 226 376 259 376 c 128,-1,6
 292 376 292 376 292 372.5 c 128,-1,7
 292 369 292 369 228 289 c 2,8,-1
 164 209 l 1,9,-1
 74 209 l 1,10,-1
 138 289 l 2,11,12
 202 370 202 370 220 374 c 0,4,5
68 391 m 1,13,-1
 68 454 l 1,14,-1
 306 454 l 1,15,-1
 306 391 l 1,16,-1
 68 391 l 1,13,-1
EndSplineSet
Validated: 1
EndChar

StartChar: braceleft
Encoding: 123 123 93
Width: 362
GlyphClass: 1
Flags: W
LayerCount: 2
Fore
SplineSet
193 292 m 2,0,1
 209 276 209 276 212.5 269 c 128,-1,2
 216 262 216 262 217.5 260 c 128,-1,3
 219 258 219 258 220 251 c 128,-1,4
 221 244 221 244 222.5 239 c 128,-1,5
 224 234 224 234 224 224 c 128,-1,6
 224 214 224 214 226.5 161 c 128,-1,7
 229 108 229 108 235 95 c 128,-1,8
 241 82 241 82 265 77 c 128,-1,9
 289 72 289 72 294.5 65 c 128,-1,10
 300 58 300 58 300 38 c 128,-1,11
 300 18 300 18 294.5 10 c 128,-1,12
 289 2 289 2 266 2 c 0,13,14
 216 2 216 2 180 36 c 0,15,16
 161 54 161 54 155.5 74 c 128,-1,17
 150 94 150 94 146.5 162 c 128,-1,18
 143 230 143 230 138 246 c 0,19,20
 131 272 131 272 101 272 c 0,21,22
 62 272 62 272 62 316 c 0,23,24
 62 333 62 333 68 340.5 c 128,-1,25
 74 348 74 348 97 351 c 128,-1,26
 120 354 120 354 128.5 367 c 128,-1,27
 137 380 137 380 139 418 c 128,-1,28
 141 456 141 456 146 461 c 128,-1,29
 151 466 151 466 145.5 483 c 128,-1,30
 140 500 140 500 140 514 c 0,31,32
 140 542 140 542 165 572 c 0,33,34
 204 618 204 618 261 618 c 0,35,36
 282 618 282 618 288 612 c 128,-1,37
 294 606 294 606 294 580 c 128,-1,38
 294 554 294 554 283 550 c 0,39,40
 279 548 279 548 270 546 c 0,41,42
 235 537 235 537 228.5 521.5 c 128,-1,43
 222 506 222 506 222 464 c 2,44,-1
 222 436 l 1,45,-1
 222 414 l 2,46,47
 222 378 222 378 216.5 362 c 128,-1,48
 211 346 211 346 193 330 c 2,49,-1
 174 312 l 1,50,-1
 193 292 l 2,0,1
EndSplineSet
Validated: 1
EndChar

StartChar: bar
Encoding: 124 124 94
Width: 196
GlyphClass: 1
Flags: W
LayerCount: 2
Fore
SplineSet
134 129 m 2,0,1
 134 67 134 67 128.5 59.5 c 128,-1,2
 123 52 123 52 99 52 c 128,-1,3
 75 52 75 52 72 55 c 0,4,5
 62 65 62 65 62 404.5 c 128,-1,6
 62 744 62 744 71 754 c 0,7,8
 74 757 74 757 98.5 757 c 128,-1,9
 123 757 123 757 127 753 c 0,10,11
 134 744 134 744 134 603 c 2,12,-1
 134 497 l 1,13,-1
 134 240 l 1,14,-1
 134 160 l 1,15,-1
 134 129 l 2,0,1
EndSplineSet
Validated: 1
EndChar

StartChar: braceright
Encoding: 125 125 95
Width: 368
GlyphClass: 1
Flags: W
LayerCount: 2
Fore
SplineSet
83 542 m 0,0,1
 62 542 62 542 62 580 c 0,2,3
 62 601 62 601 68 607.5 c 128,-1,4
 74 614 74 614 102 614 c 128,-1,5
 130 614 130 614 158 600 c 0,6,7
 198 580 198 580 215 538 c 0,8,9
 222 520 222 520 222 506 c 128,-1,10
 222 492 222 492 217 489 c 128,-1,11
 212 486 212 486 214 483 c 128,-1,12
 216 480 216 480 221 429 c 128,-1,13
 226 378 226 378 234 365 c 128,-1,14
 242 352 242 352 267.5 348 c 128,-1,15
 293 344 293 344 299.5 338 c 128,-1,16
 306 332 306 332 306 310 c 128,-1,17
 306 288 306 288 299 280 c 128,-1,18
 292 272 292 272 265 268 c 128,-1,19
 238 264 238 264 231 250 c 128,-1,20
 224 236 224 236 220 167 c 128,-1,21
 216 98 216 98 214 82 c 0,22,23
 209 42 209 42 157 14 c 0,24,25
 126 -2 126 -2 100.5 -2 c 128,-1,26
 75 -2 75 -2 68.5 5 c 128,-1,27
 62 12 62 12 62 34 c 128,-1,28
 62 56 62 56 68 63 c 128,-1,29
 74 70 74 70 95 74 c 128,-1,30
 116 78 116 78 133 92 c 128,-1,31
 150 106 150 106 150 120 c 128,-1,32
 150 134 150 134 147 136 c 0,33,34
 140 140 140 140 140 195 c 128,-1,35
 140 250 140 250 145.5 261 c 128,-1,36
 151 272 151 272 169 290 c 2,37,-1
 188 308 l 1,38,-1
 169 324 l 2,39,40
 140 350 140 350 140 388 c 2,41,-1
 140 408 l 2,42,43
 140 424 140 424 140 438 c 0,44,45
 140 502 140 502 133 520 c 0,46,47
 127 533 127 533 109.5 537.5 c 128,-1,48
 92 542 92 542 83 542 c 0,0,1
EndSplineSet
Validated: 1
EndChar

StartChar: exclamdown
Encoding: 161 161 97
Width: 239
GlyphClass: 1
Flags: W
LayerCount: 2
Fore
SplineSet
90 466 m 1,0,-1
 147 467 l 1,1,-1
 177 126 l 1,2,-1
 62 129 l 1,3,-1
 90 466 l 1,0,-1
65 549 m 0,4,5
 64 570 64 570 80 585 c 128,-1,6
 96 600 96 600 118 600 c 128,-1,7
 140 600 140 600 156 585 c 128,-1,8
 172 570 172 570 172 549 c 128,-1,9
 172 528 172 528 156 513 c 128,-1,10
 140 498 140 498 118 498 c 128,-1,11
 96 498 96 498 80 513 c 128,-1,12
 64 528 64 528 65 549 c 0,4,5
EndSplineSet
Validated: 33
EndChar

StartChar: guillemotleft
Encoding: 171 171 98
Width: 423
GlyphClass: 1
Flags: W
LayerCount: 2
Fore
SplineSet
322 129 m 1,0,1
 311 133 311 133 253.5 204.5 c 128,-1,2
 196 276 196 276 196 282 c 128,-1,3
 196 288 196 288 253.5 358 c 128,-1,4
 311 428 311 428 320 428 c 0,5,6
 324 428 324 428 342 410 c 2,7,-1
 359 392 l 1,8,-1
 349 380 l 2,9,10
 340 370 340 370 307 322 c 128,-1,11
 274 274 274 274 274 270.5 c 128,-1,12
 274 267 274 267 318 215 c 128,-1,13
 362 163 362 163 362 155 c 0,14,15
 362 153 362 153 359 153 c 128,-1,16
 356 153 356 153 341.5 141 c 128,-1,17
 327 129 327 129 323 129 c 2,18,-1
 322 129 l 1,0,1
232 157 m 0,19,20
 232 153 232 153 223.5 153 c 128,-1,21
 215 153 215 153 200.5 140.5 c 128,-1,22
 186 128 186 128 181 129.5 c 128,-1,23
 176 131 176 131 119 201 c 0,24,25
 62 272 62 272 62 277 c 0,26,27
 62 283 62 283 120 355 c 0,28,29
 178 428 178 428 181 428 c 128,-1,30
 184 428 184 428 195 421 c 0,31,32
 228 402 228 402 228 391 c 0,33,34
 228 387 228 387 224 386 c 128,-1,35
 220 385 220 385 180 331.5 c 128,-1,36
 140 278 140 278 140 274 c 128,-1,37
 140 270 140 270 186 218 c 128,-1,38
 232 166 232 166 232 157 c 0,19,20
EndSplineSet
Validated: 1
EndChar

StartChar: guillemotright
Encoding: 187 187 99
Width: 435
GlyphClass: 1
Flags: W
LayerCount: 2
Fore
SplineSet
373 278 m 128,-1,1
 373 272 373 272 319 205.5 c 128,-1,2
 265 139 265 139 257.5 132.5 c 128,-1,3
 250 126 250 126 245.5 126 c 128,-1,4
 241 126 241 126 219 139.5 c 128,-1,5
 197 153 197 153 197 158.5 c 128,-1,6
 197 164 197 164 239.5 218.5 c 128,-1,7
 282 273 282 273 282 277 c 128,-1,8
 282 281 282 281 239.5 336.5 c 128,-1,9
 197 392 197 392 197 394.5 c 128,-1,10
 197 397 197 397 219 412.5 c 128,-1,11
 241 428 241 428 245 428 c 0,12,13
 252 428 252 428 312.5 356 c 128,-1,0
 373 284 373 284 373 278 c 128,-1,1
106 334 m 2,14,15
 62 392 62 392 62 394.5 c 128,-1,16
 62 397 62 397 84.5 412.5 c 128,-1,17
 107 428 107 428 111 428 c 0,18,19
 118 428 118 428 178 356 c 128,-1,20
 238 284 238 284 238 278 c 128,-1,21
 238 272 238 272 184 205.5 c 128,-1,22
 130 139 130 139 122.5 132.5 c 128,-1,23
 115 126 115 126 110.5 126 c 128,-1,24
 106 126 106 126 84 139.5 c 128,-1,25
 62 153 62 153 62 158.5 c 128,-1,26
 62 164 62 164 106 219 c 128,-1,27
 150 274 150 274 150 277 c 2,28,-1
 106 334 l 2,14,15
EndSplineSet
Validated: 1
EndChar

StartChar: questiondown
Encoding: 191 191 100
Width: 413
GlyphClass: 1
Flags: W
LayerCount: 2
Fore
SplineSet
62 133 m 2,0,1
 64 171 64 171 75.5 191.5 c 128,-1,2
 87 212 87 212 127 247.5 c 128,-1,3
 167 283 167 283 177 298.5 c 128,-1,4
 187 314 187 314 191.5 339 c 128,-1,5
 196 364 196 364 201 370 c 128,-1,6
 206 376 206 376 227.5 376 c 128,-1,7
 249 376 249 376 255.5 369.5 c 128,-1,8
 262 363 262 363 262 341 c 0,9,10
 262 275 262 275 185 207 c 0,11,12
 132 159 132 159 132 130 c 0,13,14
 132 118 132 118 139 106 c 0,15,16
 158 71 158 71 214 71 c 0,17,18
 245 71 245 71 275 82 c 128,-1,19
 305 93 305 93 312.5 93 c 128,-1,20
 320 93 320 93 325.5 86.5 c 128,-1,21
 331 80 331 80 340 63 c 2,22,-1
 351 42 l 1,23,-1
 337 30 l 2,24,25
 302 0 302 0 207 0 c 0,26,27
 159 0 159 0 137.5 7.5 c 128,-1,28
 116 15 116 15 98 34 c 0,29,30
 62 70 62 70 62 125 c 2,31,-1
 62 133 l 2,0,1
227 407 m 0,32,33
 206 407 206 407 189.5 421.5 c 128,-1,34
 173 436 173 436 173 458.5 c 128,-1,35
 173 481 173 481 190 501 c 128,-1,36
 207 521 207 521 222 521 c 128,-1,37
 237 521 237 521 243.5 517 c 128,-1,38
 250 513 250 513 265.5 495 c 128,-1,39
 281 477 281 477 281 470.5 c 128,-1,40
 281 464 281 464 279 458 c 0,41,42
 267 407 267 407 227 407 c 0,32,33
EndSplineSet
Validated: 1
EndChar

StartChar: Aacute
Encoding: 193 193 101
Width: 628
GlyphClass: 1
Flags: W
LayerCount: 2
Fore
SplineSet
292 675 m 128,-1,1
 292 680 292 680 319.5 730.5 c 128,-1,2
 347 781 347 781 355 799.5 c 128,-1,3
 363 818 363 818 366.5 819.5 c 128,-1,4
 370 821 370 821 376 819 c 0,5,6
 382 819 382 819 394 817 c 0,7,8
 428 813 428 813 428 804 c 0,9,10
 428 794 428 794 397 730 c 0,11,12
 367 666 367 666 364 663 c 128,-1,13
 361 660 361 660 351 660 c 128,-1,14
 341 660 341 660 316.5 665 c 128,-1,0
 292 670 292 670 292 675 c 128,-1,1
224 127 m 2,15,16
 61 127 61 127 61 133.5 c 128,-1,17
 61 140 61 140 142.5 353.5 c 128,-1,18
 224 567 224 567 229 584 c 128,-1,19
 234 601 234 601 242 601 c 2,20,-1
 243 601 l 1,21,22
 248 596 248 596 272 528 c 2,23,-1
 295 459 l 1,24,-1
 255 350 l 2,25,26
 216 244 216 244 216 232 c 128,-1,27
 216 220 216 220 230 217 c 128,-1,28
 244 214 244 214 297 214 c 128,-1,29
 350 214 350 214 361.5 206 c 128,-1,30
 373 198 373 198 386 148 c 2,31,-1
 391 127 l 1,32,-1
 224 127 l 2,15,16
540 127 m 0,33,34
 514 127 514 127 503 128 c 2,35,-1
 449 131 l 1,36,-1
 420 209 l 2,37,38
 268 618 268 618 268 627 c 0,39,40
 268 630 268 630 291 630 c 128,-1,41
 314 630 314 630 325 629 c 2,42,-1
 383 627 l 1,43,-1
 398 588 l 1,44,45
 462 438 462 438 516 294 c 0,46,47
 567 159 567 159 567 138 c 0,48,49
 567 127 567 127 540 127 c 0,33,34
EndSplineSet
Validated: 1
EndChar

StartChar: Eacute
Encoding: 201 201 102
Width: 462
GlyphClass: 1
Flags: W
LayerCount: 2
Fore
SplineSet
202 732 m 2,0,-1
 245 796 l 1,1,-1
 266 794 l 2,2,3
 315 787 315 787 315 780.5 c 128,-1,4
 315 774 315 774 276.5 720 c 128,-1,5
 238 666 238 666 238 656 c 0,6,7
 238 650 238 650 230 650 c 0,8,9
 229 650 229 650 228 650 c 0,10,11
 218 650 218 650 191 655 c 0,12,13
 161 660 161 660 161 665.5 c 128,-1,14
 161 671 161 671 202 732 c 2,0,-1
61 132 m 1,15,-1
 61 238 l 1,16,-1
 401 238 l 1,17,-1
 401 132 l 1,18,-1
 61 132 l 1,15,-1
61 342 m 1,19,-1
 61 446 l 1,20,-1
 391 446 l 1,21,-1
 391 342 l 1,22,-1
 61 342 l 1,19,-1
61 542 m 1,23,-1
 61 638 l 1,24,-1
 391 638 l 1,25,-1
 391 542 l 1,26,-1
 61 542 l 1,23,-1
EndSplineSet
Validated: 1
EndChar

StartChar: Iacute
Encoding: 205 205 103
Width: 368
GlyphClass: 1
Flags: W
LayerCount: 2
Fore
SplineSet
229 779 m 0,0,1
 290 779 290 779 290 766 c 128,-1,2
 290 753 290 753 253 701 c 2,3,-1
 215 650 l 1,4,-1
 186 650 l 2,5,6
 157 650 157 650 157 660.5 c 128,-1,7
 157 671 157 671 185 718.5 c 128,-1,8
 213 766 213 766 213 772.5 c 128,-1,9
 213 779 213 779 229 779 c 0,0,1
250 552 m 1,10,-1
 246 206 l 1,11,-1
 277 206 l 2,12,13
 299 206 299 206 303 201.5 c 128,-1,14
 307 197 307 197 307 173 c 2,15,-1
 307 166 l 1,16,-1
 307 127 l 1,17,-1
 61 127 l 1,18,-1
 64 164 l 2,19,20
 66 190 66 190 70.5 196.5 c 128,-1,21
 75 203 75 203 93 206 c 2,22,-1
 119 210 l 1,23,-1
 122 378 l 1,24,-1
 123 546 l 1,25,-1
 93 552 l 2,26,27
 70 557 70 557 66 562.5 c 128,-1,28
 62 568 62 568 62 596 c 2,29,-1
 62 636 l 1,30,-1
 307 636 l 1,31,-1
 307 597 l 2,32,33
 307 569 307 569 303 563 c 128,-1,34
 299 557 299 557 279 555 c 2,35,-1
 250 552 l 1,10,-1
EndSplineSet
Validated: 1
EndChar

StartChar: Ntilde
Encoding: 209 209 104
Width: 524
GlyphClass: 1
Flags: W
LayerCount: 2
Fore
SplineSet
61 317 m 2,0,1
 61 512 61 512 69 512 c 0,2,3
 74 512 74 512 122 431 c 2,4,-1
 169 351 l 1,5,-1
 169 121 l 1,6,-1
 61 121 l 1,7,-1
 61 317 l 2,0,1
361 579 m 1,8,-1
 461 579 l 1,9,-1
 461 387 l 2,10,11
 461 196 461 196 455 196 c 0,12,13
 452 196 452 196 425.5 236.5 c 128,-1,14
 399 277 399 277 395.5 282 c 128,-1,15
 392 287 392 287 379 308 c 128,-1,16
 366 329 366 329 365 339.5 c 128,-1,17
 364 350 364 350 362.5 360.5 c 128,-1,18
 361 371 361 371 361 380 c 2,19,-1
 361 579 l 1,8,-1
300 197 m 2,20,21
 252 271 252 271 160.5 420.5 c 128,-1,22
 69 570 69 570 69 574.5 c 128,-1,23
 69 579 69 579 123 579 c 2,24,-1
 177 579 l 1,25,-1
 201 544 l 2,26,27
 239 486 239 486 273.5 426 c 128,-1,28
 308 366 308 366 443 161 c 1,29,-1
 463 129 l 1,30,-1
 345 129 l 1,31,-1
 300 197 l 2,20,21
103 662 m 1,32,-1
 103 737 l 1,33,-1
 419 737 l 1,34,-1
 419 662 l 1,35,-1
 103 662 l 1,32,-1
EndSplineSet
Validated: 1
EndChar

StartChar: Oacute
Encoding: 211 211 105
Width: 642
GlyphClass: 1
Flags: W
LayerCount: 2
Fore
SplineSet
324 789 m 1,0,-1
 280 671 l 1,1,-1
 346 658 l 1,2,-1
 378 768 l 1,3,-1
 324 789 l 1,0,-1
366 416.5 m 128,-1,5
 385 397 385 397 385 373 c 128,-1,6
 385 349 385 349 368 331 c 128,-1,7
 351 313 351 313 321.5 313 c 128,-1,8
 292 313 292 313 275 334.5 c 128,-1,9
 258 356 258 356 258 377.5 c 128,-1,10
 258 399 258 399 279.5 417.5 c 128,-1,11
 301 436 301 436 324 436 c 128,-1,4
 347 436 347 436 366 416.5 c 128,-1,5
63 373 m 1,12,-1
 64 393 l 2,13,14
 72 567 72 567 242 626 c 0,15,16
 266 635 266 635 281 635 c 128,-1,17
 296 635 296 635 300 625 c 128,-1,18
 304 615 304 615 306 588 c 2,19,-1
 308 542 l 1,20,-1
 270 526 l 1,21,22
 205 494 205 494 194 445 c 0,23,24
 189 424 189 424 189 378 c 128,-1,25
 189 332 189 332 193 313.5 c 128,-1,26
 197 295 197 295 211 275 c 0,27,28
 251 217 251 217 327 217 c 128,-1,29
 403 217 403 217 437 287 c 0,30,31
 456 326 456 326 456 378.5 c 128,-1,32
 456 431 456 431 428 478 c 128,-1,33
 400 525 400 525 363 533 c 0,34,35
 345 537 345 537 340.5 547.5 c 128,-1,36
 336 558 336 558 335 592 c 0,37,38
 335 599 335 599 335 604 c 0,39,40
 335 626 335 626 338 632 c 0,41,42
 342 638 342 638 354 638 c 128,-1,43
 366 638 366 638 391 631 c 0,44,45
 460 611 460 611 504.5 566.5 c 128,-1,46
 549 522 549 522 564 477 c 128,-1,47
 579 432 579 432 579 366 c 128,-1,48
 579 300 579 300 545 238 c 0,49,50
 480 118 480 118 321 118 c 2,51,-1
 306 118 l 2,52,53
 249 118 249 118 196 143 c 0,54,55
 63 205 63 205 63 373 c 1,12,-1
EndSplineSet
Validated: 9
EndChar

StartChar: Uacute
Encoding: 218 218 106
Width: 556
GlyphClass: 1
Flags: W
LayerCount: 2
Fore
SplineSet
379 472 m 2,0,-1
 379 645 l 1,1,-1
 493 645 l 1,2,-1
 493 459 l 2,3,4
 493 302 493 302 483 256.5 c 128,-1,5
 473 211 473 211 427 173 c 0,6,7
 407 156 407 156 388 147.5 c 128,-1,8
 369 139 369 139 333 132 c 2,9,-1
 300 126 l 1,10,-1
 300 177 l 2,11,12
 300 213 300 213 304.5 222.5 c 128,-1,13
 309 232 309 232 329 241 c 128,-1,14
 349 250 349 250 357 258 c 0,15,16
 376 277 376 277 378 365 c 0,17,18
 379 394 379 394 379 472 c 2,0,-1
63 478 m 2,19,-1
 63 645 l 1,20,-1
 123 643 l 1,21,-1
 181 640 l 1,22,-1
 186 465 l 2,23,24
 188 364 188 364 192 324 c 128,-1,25
 196 284 196 284 205 267 c 128,-1,26
 214 250 214 250 235.5 240.5 c 128,-1,27
 257 231 257 231 261 222 c 128,-1,28
 265 213 265 213 265 180 c 128,-1,29
 265 147 265 147 262.5 137.5 c 128,-1,30
 260 128 260 128 250 128 c 128,-1,31
 240 128 240 128 219 134 c 0,32,33
 155 153 155 153 119.5 190.5 c 128,-1,34
 84 228 84 228 73.5 271 c 128,-1,35
 63 314 63 314 63 478 c 2,19,-1
387 739 m 1,36,-1
 345 770 l 1,37,-1
 224 692 l 1,38,-1
 275 660 l 1,39,-1
 387 739 l 1,36,-1
EndSplineSet
Validated: 9
EndChar

StartChar: Udieresis
Encoding: 220 220 107
Width: 556
GlyphClass: 1
Flags: W
LayerCount: 2
Fore
SplineSet
379 472 m 2,0,-1
 379 644 l 1,1,-1
 493 644 l 1,2,-1
 493 458 l 2,3,4
 493 301 493 301 483 255.5 c 128,-1,5
 473 210 473 210 427 172 c 0,6,7
 407 155 407 155 388 146.5 c 128,-1,8
 369 138 369 138 333 132 c 2,9,-1
 300 126 l 1,10,-1
 300 176 l 2,11,12
 300 212 300 212 304.5 222 c 128,-1,13
 309 232 309 232 329 241 c 128,-1,14
 349 250 349 250 357 258 c 0,15,16
 376 276 376 276 378 364 c 0,17,18
 379 394 379 394 379 472 c 2,0,-1
63 478 m 2,19,-1
 63 644 l 1,20,-1
 123 642 l 1,21,-1
 181 640 l 1,22,-1
 186 464 l 2,23,24
 188 363 188 363 192 323.5 c 128,-1,25
 196 284 196 284 205 267 c 128,-1,26
 214 250 214 250 235.5 240 c 128,-1,27
 257 230 257 230 261 221 c 128,-1,28
 265 212 265 212 265 179 c 128,-1,29
 265 146 265 146 262.5 137 c 128,-1,30
 260 128 260 128 250 128 c 128,-1,31
 240 128 240 128 219 134 c 0,32,33
 155 153 155 153 119.5 190.5 c 128,-1,34
 84 228 84 228 73.5 271 c 128,-1,35
 63 314 63 314 63 478 c 2,19,-1
231 712 m 1,36,-1
 263 712 l 1,37,-1
 263 674 l 1,38,-1
 231 674 l 1,39,-1
 231 712 l 1,36,-1
303 712 m 1,40,-1
 333 712 l 1,41,-1
 333 676 l 1,42,-1
 303 676 l 1,43,-1
 303 712 l 1,40,-1
EndSplineSet
Validated: 1
EndChar

StartChar: aacute
Encoding: 225 225 108
Width: 494
GlyphClass: 1
Flags: W
LayerCount: 2
Fore
SplineSet
219 481 m 1,0,-1
 289 478 l 1,1,-1
 325 619 l 1,2,-1
 277 627 l 1,3,-1
 219 481 l 1,0,-1
65 142 m 2,4,5
 69 157 69 157 121 276 c 128,-1,6
 173 395 173 395 177 402.5 c 128,-1,7
 181 410 181 410 184 410 c 0,8,9
 194 410 194 410 207 363 c 2,10,-1
 219 321 l 1,11,-1
 197 266 l 2,12,13
 173 206 173 206 173 204 c 0,14,15
 173 191 173 191 221 191 c 2,16,-1
 267 191 l 1,17,-1
 275 162 l 2,18,19
 280 145 280 145 280 136 c 0,20,21
 280 129 280 129 277 127 c 0,22,23
 275 125 275 125 167 125 c 2,24,-1
 61 125 l 1,25,-1
 65 142 l 2,4,5
205 445 m 0,26,27
 205 450 205 450 247 450 c 2,28,-1
 293 450 l 1,29,-1
 305 423 l 2,30,31
 308 414 308 414 370.5 274.5 c 128,-1,32
 433 135 433 135 433 130.5 c 128,-1,33
 433 126 433 126 403 126 c 2,34,-1
 379 126 l 1,35,-1
 325 128 l 1,36,-1
 269 273 l 2,37,38
 205 436 205 436 205 445 c 0,26,27
EndSplineSet
Validated: 9
EndChar

StartChar: eacute
Encoding: 233 233 109
Width: 429
GlyphClass: 1
Flags: W
LayerCount: 2
Fore
SplineSet
154 289 m 0,0,1
 153 289 153 289 155 267 c 0,2,3
 157 244 157 244 162 234 c 0,4,5
 168 224 168 224 186 208 c 128,-1,6
 204 192 204 192 236 192 c 0,7,8
 238 192 238 192 238 191 c 1,9,10
 268 191 268 191 290 201 c 0,11,12
 313 211 313 211 319 211 c 128,-1,13
 325 211 325 211 328 206.5 c 128,-1,14
 331 202 331 202 338 184.5 c 128,-1,15
 345 167 345 167 345 160.5 c 128,-1,16
 345 154 345 154 336 146 c 0,17,18
 305 120 305 120 232 120 c 0,19,20
 131 120 131 120 88 185 c 0,21,22
 63 222 63 222 63 286 c 0,23,24
 63 345 63 345 104 390 c 0,25,26
 146 436 146 436 214 436 c 0,27,28
 215 436 215 436 216 437 c 0,29,30
 282 437 282 437 318 404 c 128,-1,31
 354 371 354 371 362 297 c 2,32,-1
 366 255 l 1,33,-1
 182 255 l 1,34,-1
 182 311 l 1,35,-1
 228 311 l 2,36,37
 273 311 273 311 273 331 c 0,38,39
 273 343 273 343 257 356 c 128,-1,40
 241 369 241 369 223 369 c 0,41,42
 155 369 155 369 154 289 c 0,0,1
174 468 m 1,43,-1
 225 453 l 1,44,-1
 290 580 l 1,45,-1
 230 571 l 1,46,-1
 174 468 l 1,43,-1
EndSplineSet
Validated: 9
EndChar

StartChar: iacute
Encoding: 237 237 110
Width: 250
GlyphClass: 1
Flags: W
LayerCount: 2
Fore
SplineSet
63 287 m 2,0,1
 65 448 65 448 67 451 c 128,-1,2
 69 454 69 454 89 454 c 2,3,-1
 105 454 l 1,4,-1
 141 453 l 1,5,-1
 141 126 l 1,6,-1
 61 126 l 1,7,-1
 63 287 l 2,0,1
73 502 m 1,8,-1
 143 496 l 1,9,-1
 189 601 l 1,10,-1
 133 623 l 1,11,-1
 119 553 l 1,12,-1
 73 502 l 1,8,-1
EndSplineSet
Validated: 9
EndChar

StartChar: ntilde
Encoding: 241 241 111
Width: 398
GlyphClass: 1
Flags: W
LayerCount: 2
Fore
SplineSet
61 259 m 2,0,1
 61 398 61 398 64 398 c 128,-1,2
 67 398 67 398 99 348 c 2,3,-1
 131 297 l 1,4,-1
 131 212 l 1,5,-1
 133 126 l 1,6,-1
 97 124 l 1,7,-1
 61 121 l 1,8,-1
 61 259 l 2,0,1
271 276 m 1,9,-1
 271 450 l 1,10,-1
 301 450 l 2,11,12
 332 450 332 450 333.5 443.5 c 128,-1,13
 335 437 335 437 335 361 c 2,14,-1
 335 301 l 1,15,-1
 333 171 l 1,16,17
 303 225 303 225 271 276 c 1,9,-1
337 125 m 0,18,19
 337 122 337 122 301 122 c 128,-1,20
 265 122 265 122 254 135 c 128,-1,21
 243 148 243 148 152 295 c 128,-1,22
 61 442 61 442 61 446 c 128,-1,23
 61 450 61 450 99 450 c 128,-1,24
 137 450 137 450 146 438 c 128,-1,25
 155 426 155 426 246 278.5 c 128,-1,26
 337 131 337 131 337 125 c 0,18,19
99 525 m 1,27,-1
 99 577 l 1,28,-1
 307 577 l 1,29,-1
 307 525 l 1,30,-1
 99 525 l 1,27,-1
EndSplineSet
Validated: 1
EndChar

StartChar: oacute
Encoding: 243 243 112
Width: 483
GlyphClass: 1
Flags: W
LayerCount: 2
Fore
SplineSet
242 262 m 0,0,1
 205 262 205 262 205 307 c 0,2,3
 205 326 205 326 216 334 c 0,4,5
 228 344 228 344 241 344 c 128,-1,6
 254 344 254 344 267.5 331.5 c 128,-1,7
 281 319 281 319 281 303 c 128,-1,8
 281 287 281 287 269.5 274.5 c 128,-1,9
 258 262 258 262 242 262 c 0,0,1
169 467 m 0,10,11
 193 478 193 478 207 478 c 128,-1,12
 221 478 221 478 224 472.5 c 128,-1,13
 227 467 227 467 227 446.5 c 128,-1,14
 227 426 227 426 223 419 c 128,-1,15
 219 412 219 412 206 407 c 0,16,17
 178 394 178 394 160 364 c 0,18,19
 142 333 142 333 141 305 c 0,20,21
 142 279 142 279 154 254 c 0,22,23
 166 228 166 228 186.5 212.5 c 128,-1,24
 207 197 207 197 241.5 197 c 128,-1,25
 276 197 276 197 298 212 c 0,26,27
 337 237 337 237 337 296 c 0,28,29
 337 380 337 380 274 406 c 0,30,31
 259 412 259 412 255 419 c 128,-1,32
 251 426 251 426 251 447.5 c 128,-1,33
 251 469 251 469 254 473.5 c 128,-1,34
 257 478 257 478 277.5 478 c 128,-1,35
 298 478 298 478 332.5 458.5 c 128,-1,36
 367 439 367 439 393.5 401.5 c 128,-1,37
 420 364 420 364 420 306 c 0,38,39
 420 283 420 283 414 259 c 0,40,41
 400 196 400 196 354 161 c 0,42,43
 309 126 309 126 237 126 c 0,44,45
 236 126 236 126 234 126 c 0,46,47
 160 126 160 126 111.5 174.5 c 128,-1,48
 63 223 63 223 63 302 c 0,49,50
 63 418 63 418 169 467 c 0,10,11
208 523 m 1,51,-1
 282 503 l 1,52,-1
 342 634 l 1,53,-1
 265 640 l 1,54,-1
 208 523 l 1,51,-1
EndSplineSet
Validated: 9
EndChar

StartChar: uacute
Encoding: 250 250 113
Width: 384
GlyphClass: 1
Flags: W
LayerCount: 2
Fore
SplineSet
223 454 m 1,0,-1
 151 472 l 1,1,-1
 239 596 l 1,2,-1
 261 551 l 1,3,-1
 223 454 l 1,0,-1
250 338 m 2,4,-1
 252 443 l 1,5,-1
 321 443 l 1,6,-1
 318 330 l 2,7,8
 316 243 316 243 314.5 226.5 c 128,-1,9
 313 210 313 210 302 192 c 0,10,11
 277 149 277 149 221 138 c 2,12,-1
 200 134 l 1,13,-1
 200 165 l 2,14,15
 200 198 200 198 215 202 c 0,16,17
 223 204 223 204 234 216 c 128,-1,18
 245 228 245 228 246.5 244 c 128,-1,19
 248 260 248 260 250 338 c 2,4,-1
63 342 m 2,20,-1
 63 443 l 1,21,-1
 130 443 l 1,22,-1
 133 339 l 2,23,24
 134 256 134 256 139 234.5 c 128,-1,25
 144 213 144 213 158 206.5 c 128,-1,26
 172 200 172 200 174.5 193 c 128,-1,27
 177 186 177 186 177 165 c 2,28,-1
 177 134 l 1,29,-1
 159 137 l 2,30,31
 90 151 90 151 74 205 c 0,32,33
 63 242 63 242 63 342 c 2,20,-1
EndSplineSet
Validated: 1
EndChar

StartChar: udieresis
Encoding: 252 252 114
Width: 384
GlyphClass: 1
Flags: W
LayerCount: 2
Fore
SplineSet
137 502 m 1,0,-1
 169 502 l 1,1,-1
 169 464 l 1,2,-1
 137 464 l 1,3,-1
 137 502 l 1,0,-1
209 501 m 1,4,-1
 239 501 l 1,5,-1
 239 465 l 1,6,-1
 209 465 l 1,7,-1
 209 501 l 1,4,-1
250 327 m 2,8,-1
 252 432 l 1,9,-1
 321 432 l 1,10,-1
 318 319 l 2,11,12
 316 232 316 232 314.5 215.5 c 128,-1,13
 313 199 313 199 302 181 c 0,14,15
 277 138 277 138 221 127 c 2,16,-1
 200 123 l 1,17,-1
 200 154 l 2,18,19
 200 187 200 187 215 191 c 0,20,21
 223 193 223 193 234 205 c 128,-1,22
 245 217 245 217 246.5 233 c 128,-1,23
 248 249 248 249 250 327 c 2,8,-1
63 331 m 2,24,-1
 63 432 l 1,25,-1
 130 432 l 1,26,-1
 133 328 l 2,27,28
 134 245 134 245 139 223.5 c 128,-1,29
 144 202 144 202 158 195.5 c 128,-1,30
 172 189 172 189 174.5 182 c 128,-1,31
 177 175 177 175 177 154 c 2,32,-1
 177 123 l 1,33,-1
 159 126 l 2,34,35
 90 140 90 140 74 194 c 0,36,37
 63 231 63 231 63 331 c 2,24,-1
EndSplineSet
Validated: 1
EndChar

StartChar: emdash
Encoding: 8212 8212 115
Width: 749
GlyphClass: 1
Flags: W
LayerCount: 2
Fore
SplineSet
33 379 m 1,0,-1
 698 379 l 1,1,-1
 698 301 l 1,2,-1
 33 301 l 1,3,-1
 33 379 l 1,0,-1
EndSplineSet
Validated: 1
EndChar

StartChar: ellipsis
Encoding: 8230 8230 116
Width: 564
GlyphClass: 1
Flags: W
LayerCount: 2
Fore
SplineSet
104 178 m 0,0,1
 103 199 103 199 119 214 c 128,-1,2
 135 229 135 229 157 229 c 128,-1,3
 179 229 179 229 195 214 c 128,-1,4
 211 199 211 199 211 178 c 128,-1,5
 211 157 211 157 195 142 c 128,-1,6
 179 127 179 127 157 127 c 128,-1,7
 135 127 135 127 119 142 c 128,-1,8
 103 157 103 157 104 178 c 0,0,1
259 177 m 0,9,10
 258 198 258 198 274 213 c 128,-1,11
 290 228 290 228 312 228 c 128,-1,12
 334 228 334 228 350 213 c 128,-1,13
 366 198 366 198 366 177 c 128,-1,14
 366 156 366 156 350 141 c 128,-1,15
 334 126 334 126 312 126 c 128,-1,16
 290 126 290 126 274 141 c 128,-1,17
 258 156 258 156 259 177 c 0,9,10
408 180 m 0,18,19
 407 201 407 201 423 216 c 128,-1,20
 439 231 439 231 461 231 c 128,-1,21
 483 231 483 231 499 216 c 128,-1,22
 515 201 515 201 515 180 c 128,-1,23
 515 159 515 159 499 144 c 128,-1,24
 483 129 483 129 461 129 c 128,-1,25
 439 129 439 129 423 144 c 128,-1,26
 407 159 407 159 408 180 c 0,18,19
EndSplineSet
Validated: 33
EndChar

StartChar: copyright
Encoding: 169 169 117
Width: 371
Flags: W
LayerCount: 2
Fore
SplineSet
243 620 m 1,0,-1
 244 621 l 1,1,-1
 263 658 l 1,2,3
 289 636 289 636 301 604 c 0,4,5
 309 582 309 582 309 560 c 0,6,7
 310 550 310 550 308 539 c 0,8,9
 302 506 302 506 281 480 c 0,10,11
 246 438 246 438 188 437 c 0,12,13
 176 437 176 437 163 439 c 2,14,-1
 148 441 l 1,15,-1
 167 483 l 1,16,17
 177 481 177 481 186 481 c 0,18,19
 217 481 217 481 240 505 c 0,20,21
 256 522 256 522 262 545 c 0,22,23
 265 557 265 557 265 567 c 0,24,25
 265 597 265 597 243 620 c 1,0,-1
110 462 m 1,26,27
 62 500 62 500 62 568 c 0,28,29
 62 598 62 598 82 630 c 0,30,31
 117 687 117 687 181 687 c 0,32,33
 182 687 182 687 183 687 c 0,34,35
 203 687 203 687 222 681 c 1,36,-1
 221 679 l 1,37,-1
 203 644 l 1,38,39
 194 646 194 646 185 646 c 0,40,41
 140 646 140 646 117 609 c 0,42,43
 104 588 104 588 104 565 c 0,44,45
 104 558 104 558 105 552 c 0,46,47
 109 522 109 522 131 502 c 1,48,-1
 111 464 l 1,49,-1
 110 462 l 1,26,27
128 560 m 0,50,51
 128 619 128 619 194 619 c 0,52,53
 195 619 195 619 196 619 c 0,54,55
 225 619 225 619 225 609 c 0,56,57
 225 605 225 605 221 595.5 c 128,-1,58
 217 586 217 586 215 586 c 128,-1,59
 213 586 213 586 207 588.5 c 128,-1,60
 201 591 201 591 193 591 c 0,61,62
 163 591 163 591 163 561 c 0,63,64
 163 545 163 545 171 536 c 128,-1,65
 179 527 179 527 189 527 c 128,-1,66
 199 527 199 527 207 531 c 2,67,-1
 216 536 l 1,68,-1
 222 527 l 2,69,70
 226 520 226 520 225.5 515 c 128,-1,71
 225 510 225 510 214 504.5 c 128,-1,72
 203 499 203 499 188 499 c 0,73,74
 152 499 152 499 136 527 c 0,75,76
 128 541 128 541 128 560 c 0,50,51
EndSplineSet
Validated: 1
EndChar

StartChar: Ccedilla
Encoding: 199 199 119
Width: 552
Flags: W
LayerCount: 2
Fore
SplineSet
281 108 m 1,0,-1
 322 108 l 1,1,-1
 322 68 l 1,2,-1
 323 68 l 1,3,-1
 323 36 l 1,4,-1
 233 36 l 1,5,-1
 233 68 l 1,6,-1
 281 68 l 1,7,-1
 281 108 l 1,0,-1
210 629 m 0,8,9
 249 647 249 647 270 647 c 128,-1,10
 291 647 291 647 294 640.5 c 128,-1,11
 297 634 297 634 297 599.5 c 128,-1,12
 297 565 297 565 292.5 556.5 c 128,-1,13
 288 548 288 548 267 537 c 0,14,15
 183 491 183 491 183 388.5 c 128,-1,16
 183 286 183 286 267 237 c 0,17,18
 284 228 284 228 290.5 220.5 c 128,-1,19
 297 213 297 213 297 184 c 128,-1,20
 297 155 297 155 291 141.5 c 128,-1,21
 285 128 285 128 270.5 128 c 128,-1,22
 256 128 256 128 228 139 c 0,23,24
 126 178 126 178 82 272 c 0,25,26
 63 313 63 313 63 369 c 0,27,28
 63 480 63 480 98 537 c 128,-1,29
 133 594 133 594 210 629 c 0,8,9
324 553 m 1,30,-1
 324 650 l 1,31,-1
 374 645 l 2,32,33
 409 642 409 642 449 627.5 c 128,-1,34
 489 613 489 613 489 601 c 0,35,36
 489 592 489 592 469.5 554.5 c 128,-1,37
 450 517 450 517 440 517 c 0,38,39
 434 517 434 517 408.5 529.5 c 128,-1,40
 383 542 383 542 357 547 c 2,41,-1
 324 553 l 1,30,-1
365 232 m 2,42,43
 402 238 402 238 420 251.5 c 128,-1,44
 438 265 438 265 443 265 c 0,45,46
 453 265 453 265 471 226.5 c 128,-1,47
 489 188 489 188 489 180 c 0,48,49
 489 167 489 167 448 150.5 c 128,-1,50
 407 134 407 134 369 129 c 2,51,-1
 323 123 l 1,52,-1
 325 174 l 1,53,-1
 328 226 l 1,54,-1
 365 232 l 2,42,43
EndSplineSet
Validated: 1
EndChar

StartChar: ccedilla
Encoding: 231 231 120
Width: 396
Flags: W
LayerCount: 2
Fore
SplineSet
211 127 m 1,0,-1
 245 127 l 1,1,-1
 245 93 l 1,2,-1
 245 73 l 1,3,-1
 211 73 l 1,4,-1
 179 73 l 1,5,-1
 179 93 l 1,6,-1
 211 93 l 1,7,-1
 211 127 l 1,0,-1
87 376 m 0,8,9
 132 451 132 451 235 451 c 0,10,11
 267 451 267 451 299.5 443.5 c 128,-1,12
 332 436 332 436 332 421 c 0,13,14
 332 413 332 413 320.5 388 c 128,-1,15
 309 363 309 363 300 363 c 0,16,17
 298 363 298 363 282 370 c 128,-1,18
 266 377 266 377 233.5 377 c 128,-1,19
 201 377 201 377 180.5 355 c 128,-1,20
 160 333 160 333 160 294.5 c 128,-1,21
 160 256 160 256 181.5 231.5 c 128,-1,22
 203 207 203 207 231 207 c 128,-1,23
 259 207 259 207 281 218 c 2,24,-1
 307 232 l 1,25,-1
 323 207 l 2,26,27
 333 189 333 189 333 180 c 0,28,29
 333 164 333 164 302 149 c 128,-1,30
 271 134 271 134 229 134 c 128,-1,31
 187 134 187 134 148 151 c 128,-1,32
 109 168 109 168 86 206.5 c 128,-1,33
 63 245 63 245 63 291 c 128,-1,34
 63 337 63 337 87 376 c 0,8,9
EndSplineSet
Validated: 1
EndChar

StartChar: grave
Encoding: 96 96 121
Width: 247
Flags: W
LayerCount: 2
Fore
SplineSet
143 502 m 1,0,-1
 111 507 l 1,1,2
 62 531 62 531 62 617 c 0,3,4
 62 632 62 632 63 648 c 1,5,-1
 127 690 l 1,6,7
 126 679 126 679 127 669 c 0,8,9
 127 564 127 564 185 554 c 1,10,-1
 175 522 l 1,11,-1
 143 502 l 1,0,-1
EndSplineSet
Validated: 1
EndChar

StartChar: acute
Encoding: 180 180 122
Width: 247
Flags: W
LayerCount: 2
Fore
SplineSet
103 490 m 1,0,-1
 71 510 l 1,1,-1
 62 542 l 1,2,3
 121 552 121 552 121 657 c 0,4,5
 121 667 121 667 120 678 c 1,6,-1
 184 636 l 1,7,8
 185 620 185 620 185 605 c 0,9,10
 185 519 185 519 135 495 c 1,11,-1
 103 490 l 1,0,-1
EndSplineSet
Validated: 1
EndChar

StartChar: asciicircum
Encoding: 94 94 123
Width: 358
Flags: W
LayerCount: 2
Fore
SplineSet
174 642 m 1,0,-1
 296 533 l 1,1,-1
 287 491 l 1,2,-1
 173 584 l 1,3,-1
 71 485 l 1,4,-1
 62 534 l 1,5,-1
 174 642 l 1,0,-1
EndSplineSet
Validated: 1
EndChar

StartChar: asciitilde
Encoding: 126 126 124
Width: 357
Flags: W
LayerCount: 2
Fore
SplineSet
161 379 m 1,0,-1
 188 335 l 1,1,-1
 295 354 l 1,2,-1
 295 300 l 1,3,-1
 188 283 l 1,4,-1
 161 326 l 1,5,-1
 62 300 l 1,6,-1
 62 354 l 1,7,-1
 158 378 l 1,8,-1
 161 379 l 1,0,-1
EndSplineSet
Validated: 1
EndChar

StartChar: dieresis
Encoding: 168 168 125
Width: 227
Flags: W
LayerCount: 2
Fore
SplineSet
62 718 m 1,0,-1
 94 718 l 1,1,-1
 95 680 l 1,2,-1
 63 680 l 1,3,-1
 62 718 l 1,0,-1
134 717 m 1,4,-1
 164 717 l 1,5,-1
 165 681 l 1,6,-1
 135 681 l 1,7,-1
 134 717 l 1,4,-1
EndSplineSet
Validated: 1
EndChar

StartChar: endash
Encoding: 8211 8211 126
Width: 1000
LayerCount: 2
Fore
SplineSet
44 384 m 1,0,-1
 934 384 l 1,1,-1
 934 304 l 1,2,-1
 44 304 l 1,3,-1
 44 384 l 1,0,-1
EndSplineSet
Validated: 1
EndChar

StartChar: cent
Encoding: 162 162 189
Width: 389
Flags: W
LayerCount: 2
Fore
SplineSet
250 265 m 2,0,1
 273 269 273 269 284.5 277 c 128,-1,2
 296 285 296 285 299 285 c 0,3,4
 305 285 305 285 316 261 c 128,-1,5
 327 237 327 237 327 232 c 0,6,7
 327 224 327 224 301.5 213.5 c 128,-1,8
 276 203 276 203 253 200 c 2,9,-1
 224 196 l 1,10,-1
 225 228 l 1,11,-1
 227 261 l 1,12,-1
 250 265 l 2,0,1
224 467 m 1,13,-1
 224 528 l 1,14,-1
 256 525 l 2,15,16
 278 523 278 523 302.5 514 c 128,-1,17
 327 505 327 505 327 498.5 c 128,-1,18
 327 492 327 492 315 468 c 128,-1,19
 303 444 303 444 298 444 c 128,-1,20
 293 444 293 444 277 452 c 128,-1,21
 261 460 261 460 245 463 c 2,22,-1
 224 467 l 1,13,-1
62 352 m 0,23,24
 62 473 62 473 156 516 c 0,25,26
 178 526 178 526 191 526 c 128,-1,27
 204 526 204 526 206 522 c 128,-1,28
 208 518 208 518 208 496.5 c 128,-1,29
 208 475 208 475 205 469.5 c 128,-1,30
 202 464 202 464 189 457 c 0,31,32
 136 428 136 428 136 363 c 128,-1,33
 136 298 136 298 189 268 c 0,34,35
 200 262 200 262 204 258 c 0,36,37
 208 252 208 252 208 234 c 128,-1,38
 208 216 208 216 204 207.5 c 128,-1,39
 200 199 200 199 191 199 c 128,-1,40
 182 199 182 199 164 206 c 0,41,42
 101 231 101 231 74 290 c 0,43,44
 62 316 62 316 62 352 c 0,23,24
196 546 m 1,45,-1
 196 615 l 1,46,-1
 226 615 l 1,47,-1
 226 546 l 1,48,-1
 196 546 l 1,45,-1
195 118 m 1,49,-1
 195 188 l 1,50,-1
 225 188 l 1,51,-1
 225 118 l 1,52,-1
 195 118 l 1,49,-1
EndSplineSet
Validated: 1
EndChar

StartChar: sterling
Encoding: 163 163 190
Width: 447
Flags: W
LayerCount: 2
Fore
SplineSet
224 477 m 1,0,-1
 329 475 l 1,1,-1
 328 409 l 1,2,-1
 224 410 l 1,3,-1
 224 477 l 1,0,-1
65 408 m 1,4,-1
 65 477 l 1,5,-1
 118 476 l 1,6,-1
 118 408 l 1,7,-1
 65 408 l 1,4,-1
225 599 m 2,8,-1
 216 685 l 1,9,10
 222 685 222 685 227 685 c 0,11,12
 276 685 276 685 288 661 c 0,13,14
 292 654 292 654 292 647 c 0,15,16
 292 622 292 622 240 603 c 0,17,18
 225 597 225 597 225 599 c 2,8,-1
225 234 m 1,19,-1
 385 232 l 1,20,-1
 385 156 l 1,21,-1
 224 157 l 1,22,-1
 225 234 l 1,19,-1
198 687 m 1,23,-1
 204 583 l 1,24,25
 207 428 207 428 207 346 c 0,26,27
 207 326 207 326 207 310 c 2,28,-1
 207 260 l 1,29,-1
 206 157 l 1,30,-1
 107 157 l 1,31,-1
 66 159 l 1,32,-1
 64 197 l 1,33,-1
 62 235 l 1,34,35
 69 235 69 235 77 234 c 128,-1,36
 85 233 85 233 91 233 c 0,37,38
 114 233 114 233 124 245 c 0,39,40
 136 260 136 260 136 307 c 128,-1,41
 136 354 136 354 134 487 c 2,42,-1
 130 636 l 2,43,44
 130 671 130 671 198 687 c 1,23,-1
EndSplineSet
Validated: 1
EndChar

StartChar: currency
Encoding: 164 164 191
Width: 360
Flags: W
LayerCount: 2
Fore
SplineSet
169 486 m 1025,0,1
274 542 m 1,2,-1
 292 530 l 1,3,-1
 259 481 l 1,4,-1
 240 492 l 1,5,-1
 274 542 l 1,2,-1
279 259 m 1,6,-1
 249 311 l 1,7,-1
 268 322 l 1,8,-1
 298 270 l 1,9,-1
 279 259 l 1,6,-1
102 327 m 1,10,-1
 116 318 l 1,11,-1
 78 263 l 1,12,-1
 64 272 l 1,13,-1
 102 327 l 1,10,-1
97 482 m 1,14,-1
 62 521 l 1,15,-1
 78 534 l 1,16,-1
 112 495 l 1,17,-1
 97 482 l 1,14,-1
170 471 m 1,18,19
 156 471 156 471 134 452.5 c 128,-1,20
 112 434 112 434 112 399.5 c 128,-1,21
 112 365 112 365 139 344 c 0,22,23
 152 334 152 334 168 331 c 1,24,-1
 168 316 l 1,25,26
 107 331 107 331 98 385 c 0,27,28
 96 394 96 394 96 403 c 0,29,30
 96 445 96 445 133 471 c 0,31,32
 149 483 149 483 169 486 c 1,33,-1
 170 471 l 1,18,19
195 471 m 1,34,35
 214 468 214 468 228 457 c 0,36,37
 255 436 255 436 255 406 c 2,38,-1
 255 398 l 2,39,40
 252 369 252 369 235 352 c 128,-1,41
 218 335 218 335 196 331 c 1,42,-1
 197 316 l 1,43,44
 229 322 229 322 249 345 c 0,45,46
 252 348 252 348 261 375 c 0,47,48
 269 399 269 399 269 408 c 0,49,50
 269 440 269 440 242 464 c 0,51,52
 222 482 222 482 195 486 c 1,53,-1
 195 471 l 1,34,35
EndSplineSet
Validated: 2057
EndChar

StartChar: yen
Encoding: 165 165 192
Width: 550
Flags: W
LayerCount: 2
Fore
SplineSet
330 534 m 2,0,1
 367 602 367 602 375.5 611 c 128,-1,2
 384 620 384 620 436.5 620 c 128,-1,3
 489 620 489 620 489 612 c 0,4,5
 489 601 489 601 420 494 c 128,-1,6
 351 387 351 387 344 387 c 0,7,8
 339 387 339 387 315 427 c 2,9,-1
 293 466 l 1,10,-1
 330 534 l 2,0,1
102 618 m 2,11,-1
 123 618 l 1,12,-1
 179 616 l 1,13,14
 245 498 245 498 325 355 c 1,15,-1
 325 351 l 1,16,-1
 374 351 l 1,17,-1
 374 296 l 1,18,-1
 325 296 l 1,19,-1
 325 277 l 1,20,-1
 372 277 l 1,21,-1
 372 215 l 1,22,-1
 325 215 l 1,23,-1
 325 168 l 1,24,-1
 223 168 l 1,25,-1
 223 215 l 1,26,-1
 177 215 l 1,27,-1
 177 277 l 1,28,-1
 223 277 l 1,29,30
 223 287 223 287 222 296 c 1,31,-1
 175 296 l 1,32,-1
 175 351 l 1,33,-1
 213 351 l 1,34,35
 204 378 204 378 133 492 c 128,-1,36
 62 606 62 606 62 612 c 128,-1,37
 62 618 62 618 102 618 c 2,11,-1
EndSplineSet
Validated: 1
EndChar

StartChar: brokenbar
Encoding: 166 166 193
Width: 170
Flags: W
LayerCount: 2
Fore
SplineSet
62 658 m 1,0,-1
 108 658 l 1,1,-1
 108 381 l 1,2,-1
 62 381 l 1,3,-1
 62 658 l 1,0,-1
62 274 m 1,4,-1
 108 274 l 1,5,-1
 108 0 l 1,6,-1
 62 0 l 1,7,-1
 62 274 l 1,4,-1
EndSplineSet
Validated: 1
EndChar

StartChar: section
Encoding: 167 167 194
Width: 289
Flags: W
LayerCount: 2
Fore
SplineSet
91 394.5 m 128,-1,1
 91 416 91 416 107.5 432 c 128,-1,2
 124 448 124 448 147.5 448 c 128,-1,3
 171 448 171 448 187.5 432 c 128,-1,4
 204 416 204 416 204 394.5 c 128,-1,5
 204 373 204 373 187.5 357 c 128,-1,6
 171 341 171 341 147.5 341 c 128,-1,7
 124 341 124 341 107.5 357 c 128,-1,0
 91 373 91 373 91 394.5 c 128,-1,1
81 521 m 0,8,9
 81 496 81 496 86 452 c 1,10,11
 62 429 62 429 62 396.5 c 128,-1,12
 62 364 62 364 86.5 341 c 128,-1,13
 111 318 111 318 145 318 c 2,14,-1
 149 318 l 2,15,16
 153 318 153 318 154 311.5 c 128,-1,17
 155 305 155 305 157 293 c 0,18,19
 158 290 158 290 158 281 c 0,20,21
 158 260 158 260 154 208 c 1,22,23
 138 213 138 213 125 213 c 0,24,25
 121 213 121 213 118 213 c 0,26,27
 90 210 90 210 90 184 c 1,28,29
 112 174 112 174 130 174 c 0,30,31
 194 174 194 174 194 307 c 0,32,33
 194 318 194 318 193 332 c 1,34,35
 228 356 228 356 228 394 c 0,36,37
 228 428 228 428 205 450 c 128,-1,38
 182 472 182 472 151 475 c 0,39,40
 141 476 141 476 138.5 474 c 128,-1,41
 136 472 136 472 132 472 c 0,42,43
 125 472 125 472 123.5 477.5 c 128,-1,44
 122 483 122 483 119.5 493 c 128,-1,45
 117 503 117 503 114 578 c 1,46,47
 126 575 126 575 136 575 c 0,48,49
 144 575 144 575 151 577 c 0,50,51
 176 582 176 582 176 608 c 1,52,53
 157 615 157 615 143 615 c 0,54,55
 141 615 141 615 139 615 c 0,56,57
 81 615 81 615 81 521 c 0,8,9
EndSplineSet
Validated: 9
EndChar

StartChar: ordfeminine
Encoding: 170 170 195
Width: 346
Flags: W
LayerCount: 2
Fore
SplineSet
62 475 m 1,0,1
 66 492 66 492 99 563.5 c 128,-1,2
 132 635 132 635 135 635 c 0,3,4
 140 635 140 635 148 609 c 2,5,-1
 155 585 l 1,6,-1
 142 554 l 2,7,8
 128 525 128 525 128 518.5 c 128,-1,9
 128 512 128 512 156 512 c 2,10,-1
 183 512 l 1,11,-1
 188 496 l 2,12,13
 191 485 191 485 191 481 c 128,-1,14
 191 477 191 477 190 476 c 128,-1,15
 189 475 189 475 125 475 c 2,16,-1
 62 475 l 1,0,1
185 558 m 2,17,18
 147 649 147 649 147 653 c 128,-1,19
 147 657 147 657 172 657 c 2,20,-1
 199 657 l 1,21,-1
 206 642 l 2,22,23
 208 637 208 637 244.5 559 c 128,-1,24
 281 481 281 481 281 478.5 c 128,-1,25
 281 476 281 476 264 476 c 2,26,-1
 250 476 l 1,27,-1
 218 477 l 1,28,-1
 185 558 l 2,17,18
63 469 m 1,29,-1
 284 469 l 1,30,-1
 284 441 l 1,31,-1
 63 441 l 1,32,-1
 63 469 l 1,29,-1
EndSplineSet
Validated: 1
EndChar

StartChar: logicalnot
Encoding: 172 172 196
Width: 421
Flags: W
LayerCount: 2
Fore
SplineSet
62 265 m 1,0,-1
 270 265 l 1,1,-1
 270 206 l 1,2,-1
 62 206 l 1,3,-1
 62 265 l 1,0,-1
302 267 m 1,4,-1
 359 267 l 1,5,-1
 359 131 l 1,6,-1
 302 131 l 1,7,-1
 302 267 l 1,4,-1
EndSplineSet
Validated: 1
EndChar

StartChar: registered
Encoding: 174 174 198
Width: 308
Flags: W
LayerCount: 2
Fore
SplineSet
133 494 m 1025,0,-1
187 526 m 1025,1,-1
164 563 m 1,2,3
 158 566 158 566 147 566 c 128,-1,4
 136 566 136 566 125 554.5 c 128,-1,5
 114 543 114 543 114 527 c 1,6,-1
 77 499 l 1,7,8
 74 508 74 508 74 524 c 0,9,10
 74 530 74 530 74 536 c 0,11,12
 76 562 76 562 97 584.5 c 128,-1,13
 118 607 118 607 149 607 c 128,-1,14
 180 607 180 607 201 591 c 1,15,-1
 164 563 l 1,2,3
187 526 m 1,16,17
 186 511 186 511 175 499.5 c 128,-1,18
 164 488 164 488 152.5 488 c 128,-1,19
 141 488 141 488 133 494 c 1,20,-1
 94 470 l 2,21,22
 95 468 95 468 102 463 c 0,23,24
 131 443 131 443 158.5 443 c 128,-1,25
 186 443 186 443 209 467 c 128,-1,26
 232 491 232 491 232 523 c 0,27,28
 232 536 232 536 228 550 c 1,29,-1
 187 526 l 1,16,17
145 546 m 1,30,31
 144 551 144 551 144 553.5 c 128,-1,32
 144 556 144 556 152 556 c 128,-1,33
 160 556 160 556 166 550 c 128,-1,34
 172 544 172 544 172 542 c 2,35,-1
 172 537 l 2,36,37
 172 532 172 532 167 528 c 128,-1,38
 162 524 162 524 164.5 522.5 c 128,-1,39
 167 521 167 521 170 511 c 128,-1,40
 173 501 173 501 166 501 c 2,41,-1
 159 501 l 1,42,-1
 154 511 l 2,43,44
 149 520 149 520 147 520.5 c 128,-1,45
 145 521 145 521 145 523 c 2,46,-1
 145 525 l 1,47,-1
 145 530 l 1,48,49
 157 531 157 531 157 537.5 c 128,-1,50
 157 544 157 544 145 546 c 1,30,31
129 555 m 2,51,52
 133 556 133 556 141 555 c 1,53,-1
 141 528 l 1,54,-1
 141 501 l 1,55,-1
 128 501 l 1,56,-1
 128 528 l 1,57,-1
 129 555 l 2,51,52
90 585 m 1,58,-1
 62 620 l 1,59,-1
 68 625 l 1,60,-1
 96 590 l 1,61,-1
 90 585 l 1,58,-1
206 456 m 1,62,-1
 240 416 l 1,63,-1
 246 421 l 1,64,-1
 212 461 l 1,65,-1
 206 456 l 1,62,-1
EndSplineSet
Validated: 2057
EndChar

StartChar: macron
Encoding: 175 175 199
Width: 374
Flags: W
LayerCount: 2
Fore
SplineSet
62 716 m 1,0,-1
 312 716 l 1,1,-1
 312 682 l 1,2,-1
 62 682 l 1,3,-1
 62 716 l 1,0,-1
EndSplineSet
Validated: 1
EndChar

StartChar: degree
Encoding: 176 176 200
Width: 272
Flags: W
LayerCount: 2
Fore
SplineSet
130 611 m 1,0,1
 108 614 108 614 107 638 c 0,2,3
 107 652 107 652 114.5 660 c 128,-1,4
 122 668 122 668 130 669 c 1,5,-1
 130 611 l 1,0,1
137 611 m 1,6,7
 146 612 146 612 153.5 619 c 128,-1,8
 161 626 161 626 161 639 c 128,-1,9
 161 652 161 652 153.5 659.5 c 128,-1,10
 146 667 146 667 138 668 c 1,11,-1
 137 611 l 1,6,7
129 559 m 1,12,13
 102 562 102 562 82 584 c 0,14,15
 62 605 62 605 62 637 c 0,16,17
 62 672 62 672 83 695 c 0,18,19
 103 717 103 717 131 719 c 1,20,-1
 131 707 l 1,21,22
 108 706 108 706 90.5 687 c 128,-1,23
 73 668 73 668 73 641 c 128,-1,24
 73 614 73 614 90 595 c 128,-1,25
 107 576 107 576 130 574 c 1,26,-1
 129 559 l 1,12,13
135 559 m 1,27,28
 167 559 167 559 189 583 c 0,29,30
 210 606 210 606 210 638 c 0,31,32
 210 673 210 673 189 696 c 0,33,34
 169 718 169 718 139 719 c 1,35,-1
 138 707 l 1,36,37
 162 706 162 706 180 686.5 c 128,-1,38
 198 667 198 667 198 639.5 c 128,-1,39
 198 612 198 612 179 593 c 128,-1,40
 160 574 160 574 135 574 c 1,41,-1
 135 559 l 1,27,28
EndSplineSet
Validated: 9
EndChar

StartChar: plusminus
Encoding: 177 177 201
Width: 308
Flags: W
LayerCount: 2
Fore
SplineSet
137 334 m 1,0,-1
 137 395 l 1,1,-1
 153 394 l 1,2,-1
 170 394 l 1,3,-1
 170 335 l 1,4,-1
 153 335 l 1,5,-1
 137 334 l 1,0,-1
96 435 m 2,6,7
 101 435 101 435 187 436 c 2,8,-1
 244 437 l 1,9,10
 246 430 246 430 246 422 c 128,-1,11
 246 414 246 414 244 405 c 1,12,-1
 62 405 l 1,13,-1
 62 434 l 1,14,-1
 96 435 l 2,6,7
139 497 m 2,15,-1
 141 510 l 1,16,-1
 155 510 l 2,17,18
 165 510 165 510 167 509.5 c 128,-1,19
 169 509 169 509 169 505 c 2,20,-1
 171 485 l 2,21,22
 173 466 173 466 173 458 c 128,-1,23
 173 450 173 450 171 447.5 c 128,-1,24
 169 445 169 445 157.5 445 c 128,-1,25
 146 445 146 445 141.5 446.5 c 128,-1,26
 137 448 137 448 137 465.5 c 128,-1,27
 137 483 137 483 139 497 c 2,15,-1
104 314 m 1,28,-1
 202 315 l 1,29,30
 205 297 205 297 205 289 c 0,31,32
 205 282 205 282 203 282 c 0,33,34
 190 278 190 278 148 278 c 2,35,-1
 128 278 l 2,36,37
 103 278 103 278 102 281 c 128,-1,38
 101 284 101 284 102 284 c 0,39,40
 106 284 106 284 105 299 c 2,41,-1
 104 314 l 1,28,-1
EndSplineSet
Validated: 1
EndChar

StartChar: uni00B2
Encoding: 178 178 202
Width: 310
Flags: W
LayerCount: 2
Fore
SplineSet
66 524 m 1,0,-1
 66 567 l 1,1,2
 66 566 66 566 157 566 c 2,3,-1
 248 565 l 1,4,-1
 248 526 l 1,5,-1
 157 525 l 1,6,-1
 66 524 l 1,0,-1
185 683 m 0,7,8
 185 693 185 693 173.5 703.5 c 128,-1,9
 162 714 162 714 162 730.5 c 128,-1,10
 162 747 162 747 164 750 c 128,-1,11
 166 753 166 753 181 753 c 128,-1,12
 196 753 196 753 220 735 c 128,-1,13
 244 717 244 717 244 687 c 0,14,15
 244 644 244 644 184 601 c 2,16,-1
 155 579 l 1,17,-1
 121 579 l 2,18,19
 89 579 89 579 89 582 c 128,-1,20
 89 585 89 585 116 606 c 0,21,22
 185 661 185 661 185 683 c 0,7,8
72 728 m 2,23,24
 81 736 81 736 100.5 744.5 c 128,-1,25
 120 753 120 753 131 753 c 128,-1,26
 142 753 142 753 143.5 750 c 128,-1,27
 145 747 145 747 145 731.5 c 128,-1,28
 145 716 145 716 142.5 713 c 128,-1,29
 140 710 140 710 125.5 706 c 128,-1,30
 111 702 111 702 103.5 694 c 128,-1,31
 96 686 96 686 92 686 c 128,-1,32
 88 686 88 686 75 703 c 2,33,-1
 62 720 l 1,34,-1
 72 728 l 2,23,24
EndSplineSet
Validated: 1
EndChar

StartChar: uni00B3
Encoding: 179 179 203
Width: 310
Flags: W
LayerCount: 2
Fore
SplineSet
124 534 m 2,0,1
 108 534 108 534 85 542.5 c 128,-1,2
 62 551 62 551 62 560 c 0,3,4
 62 565 62 565 70 581.5 c 128,-1,5
 78 598 78 598 80 598 c 128,-1,6
 82 598 82 598 94 590.5 c 128,-1,7
 106 583 106 583 116 581 c 128,-1,8
 126 579 126 579 146 574 c 1,9,-1
 146 534 l 1,10,-1
 124 534 l 2,0,1
120 637 m 1,11,12
 118 656 118 656 118 665 c 0,13,14
 118 680 118 680 139 680 c 128,-1,15
 160 680 160 680 171.5 688.5 c 128,-1,16
 183 697 183 697 183 705 c 0,17,18
 182 714 182 714 174 722 c 0,19,20
 160 736 160 736 161 755 c 2,21,-1
 161 776 l 1,22,-1
 176 774 l 2,23,24
 203 770 203 770 220.5 751 c 128,-1,25
 238 732 238 732 238 710 c 128,-1,26
 238 688 238 688 221 673 c 0,27,28
 220 673 220 673 206 661 c 1,29,-1
 219 654 l 2,30,31
 248 638 248 638 248 604.5 c 128,-1,32
 248 571 248 571 223 551 c 128,-1,33
 198 531 198 531 181 531 c 128,-1,34
 164 531 164 531 162.5 535.5 c 128,-1,35
 161 540 161 540 161 553.5 c 128,-1,36
 161 567 161 567 163.5 572.5 c 128,-1,37
 166 578 166 578 177 586.5 c 128,-1,38
 188 595 188 595 188 606 c 128,-1,39
 188 617 188 617 181.5 625 c 128,-1,40
 175 633 175 633 147 635 c 2,41,-1
 120 637 l 1,11,12
79.5 728.5 m 128,-1,43
 69 744 69 744 69 749.5 c 128,-1,44
 69 755 69 755 92.5 765 c 128,-1,45
 116 775 116 775 132 775 c 2,46,-1
 148 775 l 1,47,-1
 148 757 l 2,48,49
 148 742 148 742 143 736.5 c 128,-1,50
 138 731 138 731 123 727.5 c 128,-1,51
 108 724 108 724 103.5 718.5 c 128,-1,52
 99 713 99 713 94.5 713 c 128,-1,42
 90 713 90 713 79.5 728.5 c 128,-1,43
EndSplineSet
Validated: 33
EndChar

StartChar: mu
Encoding: 181 181 204
Width: 415
Flags: W
LayerCount: 2
Fore
SplineSet
233 343 m 2,0,-1
 233 425 l 1,1,-1
 295 425 l 1,2,-1
 295 337 l 2,3,4
 295 264 295 264 289.5 242.5 c 128,-1,5
 284 221 284 221 261 204.5 c 128,-1,6
 238 188 238 188 208 184 c 2,7,-1
 190 181 l 1,8,-1
 190 205 l 2,9,10
 190 221 190 221 192.5 226 c 128,-1,11
 195 231 195 231 206 235 c 0,12,13
 228 243 228 243 229 277 c 0,14,15
 229 286 229 286 231 288 c 128,-1,16
 233 290 233 290 233 343 c 2,0,-1
62 346 m 2,17,-1
 62 425 l 1,18,-1
 94 424 l 1,19,-1
 126 422 l 1,20,-1
 129 340 l 2,21,22
 131 279 131 279 134 259.5 c 128,-1,23
 137 240 137 240 157 233 c 0,24,25
 165 230 165 230 168.5 226 c 128,-1,26
 172 222 172 222 172 206.5 c 128,-1,27
 172 191 172 191 170.5 186.5 c 128,-1,28
 169 182 169 182 161 182 c 128,-1,29
 153 182 153 182 129.5 189 c 128,-1,30
 106 196 106 196 89.5 214 c 128,-1,31
 73 232 73 232 67.5 247.5 c 128,-1,32
 62 263 62 263 62 346 c 2,17,-1
63 235 m 1,33,-1
 103 189 l 1,34,-1
 106 123 l 1,35,-1
 63 123 l 1,36,-1
 63 235 l 1,33,-1
295 183 m 0,37,38
 284 196 284 196 277.5 195 c 128,-1,39
 271 194 271 194 265 190 c 2,40,-1
 253 184 l 1,41,42
 272 144 272 144 316 142 c 0,43,44
 326 142 326 142 333 143 c 2,45,-1
 345 154 l 1,46,-1
 353 168 l 1,47,48
 342 165 342 165 333 165 c 0,49,50
 310 165 310 165 295 183 c 0,37,38
EndSplineSet
Validated: 9
EndChar

StartChar: paragraph
Encoding: 182 182 205
Width: 431
Flags: W
LayerCount: 2
Fore
SplineSet
221 412 m 2,0,1
 190 416 190 416 173 435.5 c 128,-1,2
 156 455 156 455 156 480 c 128,-1,3
 156 505 156 505 163 525 c 128,-1,4
 170 545 170 545 182.5 552.5 c 128,-1,5
 195 560 195 560 221 562 c 128,-1,6
 247 564 247 564 252 572 c 128,-1,7
 257 580 257 580 257 609 c 128,-1,8
 257 638 257 638 255 644 c 0,9,10
 251 658 251 658 222.5 658 c 128,-1,11
 194 658 194 658 159 646 c 128,-1,12
 124 634 124 634 103 614 c 0,13,14
 62 575 62 575 62 493.5 c 128,-1,15
 62 412 62 412 99 368.5 c 128,-1,16
 136 325 136 325 207 322 c 2,17,-1
 254 320 l 1,18,-1
 254 408 l 1,19,-1
 221 412 l 2,0,1
278 158 m 1,20,-1
 282 653 l 1,21,22
 293 654 293 654 315 655 c 1,23,-1
 313 158 l 1,24,-1
 278 158 l 1,20,-1
337 158 m 1,25,-1
 369 158 l 1,26,-1
 369 659 l 1,27,28
 359 658 359 658 341 657 c 1,29,-1
 337 158 l 1,25,-1
EndSplineSet
Validated: 9
EndChar

StartChar: periodcentered
Encoding: 183 183 206
Width: 174
Flags: W
LayerCount: 2
Fore
SplineSet
62 401.5 m 128,-1,1
 62 412 62 412 69.5 419.5 c 128,-1,2
 77 427 77 427 87 427 c 128,-1,3
 97 427 97 427 104.5 419.5 c 128,-1,4
 112 412 112 412 112 401.5 c 128,-1,5
 112 391 112 391 104.5 383.5 c 128,-1,6
 97 376 97 376 87 376 c 128,-1,7
 77 376 77 376 69.5 383.5 c 128,-1,0
 62 391 62 391 62 401.5 c 128,-1,1
EndSplineSet
Validated: 1
EndChar

StartChar: cedilla
Encoding: 184 184 207
Width: 173
Flags: W
LayerCount: 2
Fore
SplineSet
95 203 m 1,0,-1
 111 203 l 1,1,-1
 111 138 l 1,2,-1
 98 138 l 1,3,-1
 62 138 l 1,4,-1
 62 154 l 1,5,-1
 95 154 l 1,6,-1
 95 203 l 1,0,-1
EndSplineSet
Validated: 1
EndChar

StartChar: uni00B9
Encoding: 185 185 208
Width: 213
Flags: W
LayerCount: 2
Fore
SplineSet
106 698 m 2,0,-1
 76 684 l 2,1,2
 75 684 75 684 68.5 697 c 128,-1,3
 62 710 62 710 62 713 c 0,4,5
 62 720 62 720 110 739 c 2,6,-1
 126 745 l 2,7,8
 132 746 132 746 134 746 c 2,9,-1
 136 746 l 2,10,11
 151 744 151 744 151 659 c 2,12,-1
 151 573 l 1,13,-1
 109 573 l 1,14,-1
 109 634 l 2,15,16
 109 698 109 698 106 698 c 2,0,-1
EndSplineSet
Validated: 1
EndChar

StartChar: ordmasculine
Encoding: 186 186 209
Width: 272
Flags: W
LayerCount: 2
Fore
SplineSet
130 611 m 1,0,1
 108 614 108 614 107 638 c 0,2,3
 107 652 107 652 114.5 660 c 128,-1,4
 122 668 122 668 130 669 c 1,5,-1
 130 611 l 1,0,1
137 611 m 1,6,7
 146 612 146 612 153.5 619 c 128,-1,8
 161 626 161 626 161 639 c 128,-1,9
 161 652 161 652 153.5 659.5 c 128,-1,10
 146 667 146 667 138 668 c 1,11,-1
 137 611 l 1,6,7
129 559 m 1,12,13
 102 562 102 562 82 584 c 0,14,15
 62 605 62 605 62 637 c 0,16,17
 62 672 62 672 83 695 c 0,18,19
 103 717 103 717 131 719 c 1,20,-1
 131 707 l 1,21,22
 108 706 108 706 90.5 687 c 128,-1,23
 73 668 73 668 73 641 c 128,-1,24
 73 614 73 614 90 595 c 128,-1,25
 107 576 107 576 130 574 c 1,26,-1
 129 559 l 1,12,13
135 559 m 1,27,28
 167 559 167 559 189 583 c 0,29,30
 210 606 210 606 210 638 c 0,31,32
 210 673 210 673 189 696 c 0,33,34
 169 718 169 718 139 719 c 1,35,-1
 138 707 l 1,36,37
 162 706 162 706 180 686.5 c 128,-1,38
 198 667 198 667 198 639.5 c 128,-1,39
 198 612 198 612 179 593 c 128,-1,40
 160 574 160 574 135 574 c 1,41,-1
 135 559 l 1,27,28
64 544 m 1,42,-1
 208 544 l 1,43,-1
 208 528 l 1,44,-1
 64 528 l 1,45,-1
 64 544 l 1,42,-1
EndSplineSet
Validated: 9
EndChar

StartChar: onequarter
Encoding: 188 188 210
Width: 302
Flags: W
LayerCount: 2
Fore
SplineSet
186 286 m 1,0,-1
 187 262 l 1,1,-1
 132 262 l 1,2,-1
 132 274 l 1,3,-1
 132 276 l 2,4,5
 132 284 132 284 136.5 292 c 128,-1,6
 141 300 141 300 171 343 c 2,7,-1
 186 365 l 1,8,9
 186 364 186 364 186 360 c 0,10,11
 186 351 186 351 187 327 c 1,12,13
 174 308 174 308 162 289 c 1,14,-1
 174 288 l 1,15,-1
 186 286 l 1,0,-1
103 442 m 2,16,17
 103 496 103 496 101.5 496.5 c 128,-1,18
 100 497 100 497 74 485 c 0,19,20
 73 485 73 485 67.5 496 c 128,-1,21
 62 507 62 507 62 510 c 0,22,23
 62 516 62 516 103 533 c 2,24,-1
 117 538 l 2,25,26
 122 539 122 539 123.5 538.5 c 128,-1,27
 125 538 125 538 126 538 c 0,28,29
 138 537 138 537 138 473 c 0,30,31
 138 468 138 468 138 463 c 2,32,-1
 138 390 l 1,33,-1
 103 390 l 1,34,-1
 103 442 l 2,16,17
77 330 m 1,35,-1
 198 425 l 1,36,-1
 215 404 l 1,37,-1
 93 309 l 1,38,-1
 77 330 l 1,35,-1
194 237 m 1,39,-1
 194 368 l 1,40,-1
 224 368 l 1,41,-1
 224 288 l 1,42,-1
 240 288 l 1,43,-1
 240 262 l 1,44,-1
 224 262 l 1,45,-1
 224 237 l 1,46,-1
 194 237 l 1,39,-1
EndSplineSet
Validated: 1
EndChar

StartChar: onehalf
Encoding: 189 189 211
Width: 311
Flags: W
LayerCount: 2
Fore
SplineSet
103 442 m 2,0,1
 103 496 103 496 101.5 496.5 c 128,-1,2
 100 497 100 497 74 485 c 0,3,4
 73 485 73 485 67.5 496 c 128,-1,5
 62 507 62 507 62 510 c 0,6,7
 62 516 62 516 103 533 c 2,8,-1
 117 538 l 2,9,10
 122 539 122 539 123.5 538.5 c 128,-1,11
 125 538 125 538 126 538 c 0,12,13
 138 537 138 537 138 473 c 0,14,15
 138 468 138 468 138 463 c 2,16,-1
 138 390 l 1,17,-1
 103 390 l 1,18,-1
 103 442 l 2,0,1
77 330 m 1,19,-1
 198 425 l 1,20,-1
 215 404 l 1,21,-1
 93 309 l 1,22,-1
 77 330 l 1,19,-1
153 230 m 1,23,-1
 153 252 l 1,24,-1
 201 252 l 1,25,-1
 249 251 l 1,26,-1
 249 231 l 1,27,-1
 201 230 l 1,28,-1
 153 230 l 1,23,-1
210 323.5 m 128,-1,30
 204 329 204 329 204 337.5 c 128,-1,31
 204 346 204 346 205 347.5 c 128,-1,32
 206 349 206 349 213.5 349 c 128,-1,33
 221 349 221 349 233.5 339.5 c 128,-1,34
 246 330 246 330 246 311.5 c 128,-1,35
 246 293 246 293 215 270 c 2,36,-1
 200 258 l 1,37,-1
 182 258 l 2,38,39
 165 258 165 258 165 260 c 128,-1,40
 165 262 165 262 190.5 281.5 c 128,-1,41
 216 301 216 301 216 309.5 c 128,-1,29
 216 318 216 318 210 323.5 c 128,-1,30
151 332 m 1,42,43
 170 349 170 349 189 349 c 0,44,45
 193 349 193 349 194 347.5 c 128,-1,46
 195 346 195 346 195 338 c 128,-1,47
 195 330 195 330 193.5 328.5 c 128,-1,48
 192 327 192 327 184.5 324.5 c 128,-1,49
 177 322 177 322 173 318 c 128,-1,50
 169 314 169 314 167 314 c 128,-1,51
 165 314 165 314 158 323 c 2,52,-1
 151 332 l 1,42,43
EndSplineSet
Validated: 1
EndChar

StartChar: threequarters
Encoding: 190 190 212
Width: 309
Flags: W
LayerCount: 2
Fore
SplineSet
193 286 m 1,0,-1
 194 262 l 1,1,-1
 139 262 l 1,2,-1
 139 274 l 1,3,-1
 139 276 l 2,4,5
 139 284 139 284 143.5 292 c 128,-1,6
 148 300 148 300 178 343 c 2,7,-1
 193 365 l 1,8,9
 193 364 193 364 193 360 c 0,10,11
 193 351 193 351 194 327 c 1,12,13
 181 308 181 308 169 289 c 1,14,-1
 181 288 l 1,15,-1
 193 286 l 1,0,-1
84 330 m 1,16,-1
 205 425 l 1,17,-1
 222 404 l 1,18,-1
 100 309 l 1,19,-1
 84 330 l 1,16,-1
201 237 m 1,20,-1
 201 368 l 1,21,-1
 231 368 l 1,22,-1
 231 288 l 1,23,-1
 247 288 l 1,24,-1
 247 262 l 1,25,-1
 231 262 l 1,26,-1
 231 237 l 1,27,-1
 201 237 l 1,20,-1
102 402 m 2,28,29
 92 402 92 402 77 407.5 c 128,-1,30
 62 413 62 413 62 417.5 c 128,-1,31
 62 422 62 422 67 432.5 c 128,-1,32
 72 443 72 443 73.5 443 c 128,-1,33
 75 443 75 443 82.5 438.5 c 128,-1,34
 90 434 90 434 103 431 c 2,35,-1
 116 428 l 1,36,-1
 116 402 l 1,37,-1
 102 402 l 2,28,29
99 469 m 1,38,39
 98 482 98 482 98 487 c 0,40,41
 98 497 98 497 112 497 c 128,-1,42
 126 497 126 497 133 503 c 128,-1,43
 140 509 140 509 140 514 c 128,-1,44
 140 519 140 519 135 525 c 0,45,46
 126 533 126 533 126 547 c 2,47,-1
 126 560 l 1,48,-1
 136 559 l 2,49,50
 154 556 154 556 165.5 543.5 c 128,-1,51
 177 531 177 531 177 517 c 128,-1,52
 177 503 177 503 165 493 c 2,53,-1
 156 485 l 1,54,-1
 164 480 l 2,55,56
 183 469 183 469 183 447.5 c 128,-1,57
 183 426 183 426 166.5 413 c 128,-1,58
 150 400 150 400 139 400 c 128,-1,59
 128 400 128 400 127 403 c 128,-1,60
 126 406 126 406 126 417 c 128,-1,61
 126 428 126 428 134.5 435 c 128,-1,62
 143 442 143 442 143 449 c 128,-1,63
 143 456 143 456 139 461 c 128,-1,64
 135 466 135 466 117 468 c 2,65,-1
 99 469 l 1,38,39
114.5 534.5 m 128,-1,67
 111 531 111 531 101.5 528.5 c 128,-1,68
 92 526 92 526 89 522.5 c 128,-1,69
 86 519 86 519 82.5 519 c 128,-1,70
 79 519 79 519 72.5 529 c 128,-1,71
 66 539 66 539 66 542.5 c 128,-1,72
 66 546 66 546 81 553 c 128,-1,73
 96 560 96 560 107 560 c 2,74,-1
 118 560 l 1,75,-1
 118 548 l 2,76,66
 118 538 118 538 114.5 534.5 c 128,-1,67
EndSplineSet
Validated: 1
EndChar

StartChar: Agrave
Encoding: 192 192 213
Width: 628
Flags: W
LayerCount: 2
Fore
SplineSet
354 605 m 0,0,1
 353 618 353 618 323 679.5 c 128,-1,2
 293 741 293 741 290 744.5 c 128,-1,3
 287 748 287 748 253 748 c 128,-1,4
 219 748 219 748 219 738 c 128,-1,5
 219 728 219 728 249 672 c 128,-1,6
 279 616 279 616 284 603 c 128,-1,7
 289 590 289 590 293 588.5 c 128,-1,8
 297 587 297 587 303 588.5 c 128,-1,9
 309 590 309 590 331.5 593 c 128,-1,10
 354 596 354 596 354 605 c 0,0,1
224 61 m 2,11,12
 61 61 61 61 61 67.5 c 128,-1,13
 61 74 61 74 142.5 287.5 c 128,-1,14
 224 501 224 501 229 518 c 128,-1,15
 234 535 234 535 242 535 c 2,16,-1
 243 535 l 1,17,18
 248 530 248 530 272 462 c 2,19,-1
 295 393 l 1,20,-1
 255 284 l 2,21,22
 216 178 216 178 216 166 c 128,-1,23
 216 154 216 154 230 151 c 128,-1,24
 244 148 244 148 297 148 c 128,-1,25
 350 148 350 148 361.5 140 c 128,-1,26
 373 132 373 132 386 82 c 2,27,-1
 391 61 l 1,28,-1
 224 61 l 2,11,12
540 61 m 0,29,30
 514 61 514 61 503 62 c 2,31,-1
 449 65 l 1,32,-1
 420 143 l 2,33,34
 268 552 268 552 268 561 c 0,35,36
 268 564 268 564 291 564 c 128,-1,37
 314 564 314 564 325 563 c 2,38,-1
 383 561 l 1,39,-1
 398 522 l 1,40,41
 462 372 462 372 516 228 c 0,42,43
 567 93 567 93 567 72 c 0,44,45
 567 61 567 61 540 61 c 0,29,30
EndSplineSet
Validated: 9
EndChar

StartChar: Acircumflex
Encoding: 194 194 214
Width: 628
Flags: W
LayerCount: 2
Fore
SplineSet
224 102 m 2,0,1
 61 102 61 102 61 108.5 c 128,-1,2
 61 115 61 115 142.5 328.5 c 128,-1,3
 224 542 224 542 229 559 c 128,-1,4
 234 576 234 576 242 576 c 2,5,-1
 243 576 l 1,6,7
 248 571 248 571 272 503 c 2,8,-1
 295 434 l 1,9,-1
 255 325 l 2,10,11
 216 219 216 219 216 207 c 128,-1,12
 216 195 216 195 230 192 c 128,-1,13
 244 189 244 189 297 189 c 128,-1,14
 350 189 350 189 361.5 181 c 128,-1,15
 373 173 373 173 386 123 c 2,16,-1
 391 102 l 1,17,-1
 224 102 l 2,0,1
540 102 m 0,18,19
 514 102 514 102 503 103 c 2,20,-1
 449 106 l 1,21,-1
 420 184 l 2,22,23
 268 593 268 593 268 602 c 0,24,25
 268 605 268 605 291 605 c 128,-1,26
 314 605 314 605 325 604 c 2,27,-1
 383 602 l 1,28,-1
 398 563 l 1,29,30
 462 412 462 412 516 268 c 0,31,32
 567 133 567 133 567 113 c 0,33,34
 567 102 567 102 540 102 c 0,18,19
311 765 m 1,35,-1
 433 656 l 1,36,-1
 424 614 l 1,37,-1
 310 707 l 1,38,-1
 208 608 l 1,39,-1
 199 657 l 1,40,-1
 311 765 l 1,35,-1
EndSplineSet
Validated: 1
EndChar

StartChar: Atilde
Encoding: 195 195 215
Width: 628
Flags: W
LayerCount: 2
Fore
SplineSet
224 102 m 2,0,1
 61 102 61 102 61 108.5 c 128,-1,2
 61 115 61 115 142.5 328.5 c 128,-1,3
 224 542 224 542 229 559 c 128,-1,4
 234 576 234 576 242 576 c 2,5,-1
 243 576 l 1,6,7
 248 571 248 571 272 503 c 2,8,-1
 295 434 l 1,9,-1
 255 325 l 2,10,11
 216 219 216 219 216 207 c 128,-1,12
 216 195 216 195 230 192 c 128,-1,13
 244 189 244 189 297 189 c 128,-1,14
 350 189 350 189 361.5 181 c 128,-1,15
 373 173 373 173 386 123 c 2,16,-1
 391 102 l 1,17,-1
 224 102 l 2,0,1
540 102 m 0,18,19
 514 102 514 102 503 103 c 2,20,-1
 449 106 l 1,21,-1
 420 184 l 2,22,23
 268 593 268 593 268 602 c 0,24,25
 268 605 268 605 291 605 c 128,-1,26
 314 605 314 605 325 604 c 2,27,-1
 383 602 l 1,28,-1
 398 563 l 1,29,30
 462 412 462 412 516 268 c 0,31,32
 567 133 567 133 567 113 c 0,33,34
 567 102 567 102 540 102 c 0,18,19
298 730 m 1,35,-1
 325 686 l 1,36,-1
 432 705 l 1,37,-1
 432 651 l 1,38,-1
 325 634 l 1,39,-1
 298 677 l 1,40,-1
 199 651 l 1,41,-1
 199 705 l 1,42,-1
 295 729 l 1,43,-1
 298 730 l 1,35,-1
EndSplineSet
Validated: 1
EndChar

StartChar: Adieresis
Encoding: 196 196 216
Width: 628
Flags: W
LayerCount: 2
Fore
SplineSet
224 102 m 2,0,1
 61 102 61 102 61 108.5 c 128,-1,2
 61 115 61 115 142.5 328.5 c 128,-1,3
 224 542 224 542 229 559 c 128,-1,4
 234 576 234 576 242 576 c 2,5,-1
 243 576 l 1,6,7
 248 571 248 571 272 503 c 2,8,-1
 295 434 l 1,9,-1
 255 325 l 2,10,11
 216 219 216 219 216 207 c 128,-1,12
 216 195 216 195 230 192 c 128,-1,13
 244 189 244 189 297 189 c 128,-1,14
 350 189 350 189 361.5 181 c 128,-1,15
 373 173 373 173 386 123 c 2,16,-1
 391 102 l 1,17,-1
 224 102 l 2,0,1
540 102 m 0,18,19
 514 102 514 102 503 103 c 2,20,-1
 449 106 l 1,21,-1
 420 184 l 2,22,23
 268 593 268 593 268 602 c 0,24,25
 268 605 268 605 291 605 c 128,-1,26
 314 605 314 605 325 604 c 2,27,-1
 383 602 l 1,28,-1
 398 563 l 1,29,30
 462 412 462 412 516 268 c 0,31,32
 567 133 567 133 567 113 c 0,33,34
 567 102 567 102 540 102 c 0,18,19
258 713 m 1,35,-1
 290 713 l 1,36,-1
 290 675 l 1,37,-1
 258 675 l 1,38,-1
 258 713 l 1,35,-1
330 712 m 1,39,-1
 360 712 l 1,40,-1
 360 676 l 1,41,-1
 330 676 l 1,42,-1
 330 712 l 1,39,-1
EndSplineSet
Validated: 1
EndChar

StartChar: Aring
Encoding: 197 197 217
Width: 628
Flags: W
LayerCount: 2
Fore
SplineSet
224 102 m 2,0,1
 61 102 61 102 61 108.5 c 128,-1,2
 61 115 61 115 142.5 328.5 c 128,-1,3
 224 542 224 542 229 559 c 128,-1,4
 234 576 234 576 242 576 c 2,5,-1
 243 576 l 1,6,7
 248 571 248 571 272 503 c 2,8,-1
 295 434 l 1,9,-1
 255 325 l 2,10,11
 216 219 216 219 216 207 c 128,-1,12
 216 195 216 195 230 192 c 128,-1,13
 244 189 244 189 297 189 c 128,-1,14
 350 189 350 189 361.5 181 c 128,-1,15
 373 173 373 173 386 123 c 2,16,-1
 391 102 l 1,17,-1
 224 102 l 2,0,1
540 102 m 0,18,19
 514 102 514 102 503 103 c 2,20,-1
 449 106 l 1,21,-1
 420 184 l 2,22,23
 268 593 268 593 268 602 c 0,24,25
 268 605 268 605 291 605 c 128,-1,26
 314 605 314 605 325 604 c 2,27,-1
 383 602 l 1,28,-1
 398 563 l 1,29,30
 462 412 462 412 516 268 c 0,31,32
 567 133 567 133 567 113 c 0,33,34
 567 102 567 102 540 102 c 0,18,19
308 678 m 1,35,36
 287 681 287 681 287 702 c 0,37,38
 287 715 287 715 294 722 c 128,-1,39
 301 729 301 729 308 730 c 1,40,-1
 308 678 l 1,35,36
315 677 m 1,41,42
 323 678 323 678 330 684.5 c 128,-1,43
 337 691 337 691 337 703 c 128,-1,44
 337 715 337 715 330 721.5 c 128,-1,45
 323 728 323 728 316 729 c 1,46,-1
 315 677 l 1,41,42
307 631 m 1,47,48
 282 634 282 634 263 654 c 0,49,50
 245 673 245 673 245 704 c 0,51,52
 245 733 245 733 264 753 c 0,53,54
 282 773 282 773 309 775 c 1,55,-1
 310 764 l 1,56,57
 288 763 288 763 271.5 746 c 128,-1,58
 255 729 255 729 255 704.5 c 128,-1,59
 255 680 255 680 271 663 c 128,-1,60
 287 646 287 646 308 645 c 1,61,-1
 307 631 l 1,47,48
313 631 m 1,62,63
 314 631 314 631 316 631 c 0,64,65
 345 631 345 631 364 652 c 0,66,67
 383 671 383 671 383 698 c 0,68,69
 383 733 383 733 363 754 c 0,70,71
 344 774 344 774 316 775 c 1,72,-1
 316 764 l 1,73,74
 338 763 338 763 354.5 745.5 c 128,-1,75
 371 728 371 728 371 703.5 c 128,-1,76
 371 679 371 679 353.5 662 c 128,-1,77
 336 645 336 645 313 645 c 1,78,-1
 313 631 l 1,62,63
EndSplineSet
Validated: 9
EndChar

StartChar: AE
Encoding: 198 198 218
Width: 727
Flags: W
LayerCount: 2
Fore
SplineSet
558 230 m 1025,0,-1
593 125 m 1025,1,-1
522 334 m 1025,2,-1
422 630 m 1025,3,-1
454 534 m 1025,4,-1
224 130 m 2,5,6
 61 130 61 130 61 136.5 c 128,-1,7
 61 143 61 143 142.5 356.5 c 128,-1,8
 224 570 224 570 229 587 c 128,-1,9
 234 604 234 604 242 604 c 2,10,-1
 243 604 l 1,11,12
 248 599 248 599 272 531 c 2,13,-1
 295 462 l 1,14,-1
 255 353 l 2,15,16
 216 247 216 247 216 235 c 128,-1,17
 216 223 216 223 230 220 c 128,-1,18
 244 217 244 217 297 217 c 128,-1,19
 350 217 350 217 361.5 209 c 128,-1,20
 373 201 373 201 386 151 c 2,21,-1
 391 130 l 1,22,-1
 224 130 l 2,5,6
540 130 m 0,23,24
 514 130 514 130 503 131 c 2,25,-1
 449 134 l 1,26,-1
 420 212 l 2,27,28
 268 621 268 621 268 630 c 0,29,30
 268 633 268 633 291 633 c 128,-1,31
 314 633 314 633 325 632 c 2,32,-1
 383 630 l 1,33,-1
 398 591 l 1,34,35
 462 440 462 440 516 296 c 0,36,37
 567 161 567 161 567 141 c 0,38,39
 567 130 567 130 540 130 c 0,23,24
454 534 m 1,40,-1
 657 534 l 1,41,-1
 657 630 l 1,42,-1
 422 630 l 1,43,-1
 454 534 l 1,40,-1
522 334 m 1,44,-1
 657 334 l 1,45,-1
 657 438 l 1,46,-1
 487 438 l 1,47,-1
 522 334 l 1,44,-1
593 125 m 1,48,-1
 666 125 l 1,49,-1
 666 230 l 1,50,-1
 558 230 l 1,51,-1
 593 125 l 1,48,-1
EndSplineSet
Validated: 2057
EndChar

StartChar: Egrave
Encoding: 200 200 219
Width: 462
Flags: W
LayerCount: 2
Fore
SplineSet
61 134 m 1,0,-1
 61 239 l 1,1,-1
 401 239 l 1,2,-1
 401 134 l 1,3,-1
 61 134 l 1,0,-1
61 343 m 1,4,-1
 61 447 l 1,5,-1
 391 447 l 1,6,-1
 391 343 l 1,7,-1
 61 343 l 1,4,-1
61 543 m 1,8,-1
 61 639 l 1,9,-1
 391 639 l 1,10,-1
 391 543 l 1,11,-1
 61 543 l 1,8,-1
271 732 m 2,12,-1
 233 800 l 1,13,-1
 215 797 l 2,14,15
 171 790 171 790 171 783 c 128,-1,16
 171 776 171 776 205 720 c 128,-1,17
 239 664 239 664 239 655.5 c 128,-1,18
 239 647 239 647 246.5 647 c 128,-1,19
 254 647 254 647 280.5 652 c 128,-1,20
 307 657 307 657 307 662.5 c 128,-1,21
 307 668 307 668 271 732 c 2,12,-1
EndSplineSet
Validated: 9
EndChar

StartChar: Ecircumflex
Encoding: 202 202 220
Width: 462
Flags: W
LayerCount: 2
Fore
SplineSet
61 134 m 1,0,-1
 61 239 l 1,1,-1
 401 239 l 1,2,-1
 401 134 l 1,3,-1
 61 134 l 1,0,-1
61 343 m 1,4,-1
 61 447 l 1,5,-1
 391 447 l 1,6,-1
 391 343 l 1,7,-1
 61 343 l 1,4,-1
61 543 m 1,8,-1
 61 639 l 1,9,-1
 391 639 l 1,10,-1
 391 543 l 1,11,-1
 61 543 l 1,8,-1
218 803 m 1,12,-1
 340 694 l 1,13,-1
 331 652 l 1,14,-1
 217 745 l 1,15,-1
 115 646 l 1,16,-1
 106 695 l 1,17,-1
 218 803 l 1,12,-1
EndSplineSet
Validated: 1
EndChar

StartChar: Edieresis
Encoding: 203 203 221
Width: 462
Flags: W
LayerCount: 2
Fore
SplineSet
61 134 m 1,0,-1
 61 239 l 1,1,-1
 401 239 l 1,2,-1
 401 134 l 1,3,-1
 61 134 l 1,0,-1
61 343 m 1,4,-1
 61 447 l 1,5,-1
 391 447 l 1,6,-1
 391 343 l 1,7,-1
 61 343 l 1,4,-1
61 543 m 1,8,-1
 61 639 l 1,9,-1
 391 639 l 1,10,-1
 391 543 l 1,11,-1
 61 543 l 1,8,-1
179 718 m 1,12,-1
 211 718 l 1,13,-1
 211 680 l 1,14,-1
 179 680 l 1,15,-1
 179 718 l 1,12,-1
251 717 m 1,16,-1
 281 717 l 1,17,-1
 281 681 l 1,18,-1
 251 681 l 1,19,-1
 251 717 l 1,16,-1
EndSplineSet
Validated: 1
EndChar

StartChar: Igrave
Encoding: 204 204 222
Width: 368
Flags: W
LayerCount: 2
Fore
SplineSet
251 562 m 1,0,-1
 247 216 l 1,1,-1
 277 216 l 2,2,3
 299 216 299 216 303 211.5 c 128,-1,4
 307 207 307 207 307 183 c 2,5,-1
 307 176 l 1,6,-1
 307 137 l 1,7,-1
 61 137 l 1,8,-1
 65 174 l 2,9,10
 67 200 67 200 71 206.5 c 128,-1,11
 75 213 75 213 93 216 c 2,12,-1
 119 220 l 1,13,-1
 123 388 l 1,14,-1
 123 556 l 1,15,-1
 93 562 l 2,16,17
 70 567 70 567 66.5 572.5 c 128,-1,18
 63 578 63 578 63 606 c 2,19,-1
 63 646 l 1,20,-1
 307 646 l 1,21,-1
 307 607 l 2,22,23
 307 579 307 579 303 573 c 128,-1,24
 299 567 299 567 279 565 c 2,25,-1
 251 562 l 1,0,-1
205 656 m 2,26,27
 233 656 233 656 233 666.5 c 128,-1,28
 233 677 233 677 206 726 c 128,-1,29
 179 775 179 775 179 781.5 c 128,-1,30
 179 788 179 788 164 788 c 128,-1,31
 149 788 149 788 127 784 c 128,-1,32
 105 780 105 780 106 773 c 0,33,34
 106 761 106 761 141 708 c 2,35,-1
 177 656 l 1,36,-1
 205 656 l 2,26,27
EndSplineSet
Validated: 9
EndChar

StartChar: Icircumflex
Encoding: 206 206 223
Width: 368
Flags: W
LayerCount: 2
Fore
SplineSet
251 562 m 1,0,-1
 247 216 l 1,1,-1
 277 216 l 2,2,3
 299 216 299 216 303 211.5 c 128,-1,4
 307 207 307 207 307 183 c 2,5,-1
 307 176 l 1,6,-1
 307 137 l 1,7,-1
 61 137 l 1,8,-1
 65 174 l 2,9,10
 67 200 67 200 71 206.5 c 128,-1,11
 75 213 75 213 93 216 c 2,12,-1
 119 220 l 1,13,-1
 123 388 l 1,14,-1
 123 556 l 1,15,-1
 93 562 l 2,16,17
 70 567 70 567 66.5 572.5 c 128,-1,18
 63 578 63 578 63 606 c 2,19,-1
 63 646 l 1,20,-1
 307 646 l 1,21,-1
 307 607 l 2,22,23
 307 579 307 579 303 573 c 128,-1,24
 299 567 299 567 279 565 c 2,25,-1
 251 562 l 1,0,-1
184 787 m 1,26,-1
 300 696 l 1,27,-1
 291 660 l 1,28,-1
 183 738 l 1,29,-1
 86 655 l 1,30,-1
 77 696 l 1,31,-1
 184 787 l 1,26,-1
EndSplineSet
Validated: 1
EndChar

StartChar: Idieresis
Encoding: 207 207 224
Width: 368
Flags: W
LayerCount: 2
Fore
SplineSet
251 562 m 1,0,-1
 247 216 l 1,1,-1
 277 216 l 2,2,3
 299 216 299 216 303 211.5 c 128,-1,4
 307 207 307 207 307 183 c 2,5,-1
 307 176 l 1,6,-1
 307 137 l 1,7,-1
 61 137 l 1,8,-1
 65 174 l 2,9,10
 67 200 67 200 71 206.5 c 128,-1,11
 75 213 75 213 93 216 c 2,12,-1
 119 220 l 1,13,-1
 123 388 l 1,14,-1
 123 556 l 1,15,-1
 93 562 l 2,16,17
 70 567 70 567 66.5 572.5 c 128,-1,18
 63 578 63 578 63 606 c 2,19,-1
 63 646 l 1,20,-1
 307 646 l 1,21,-1
 307 607 l 2,22,23
 307 579 307 579 303 573 c 128,-1,24
 299 567 299 567 279 565 c 2,25,-1
 251 562 l 1,0,-1
135 716 m 1,26,-1
 167 716 l 1,27,-1
 168 678 l 1,28,-1
 136 678 l 1,29,-1
 135 716 l 1,26,-1
207 715 m 1,30,-1
 237 715 l 1,31,-1
 238 679 l 1,32,-1
 208 679 l 1,33,-1
 207 715 l 1,30,-1
EndSplineSet
Validated: 1
EndChar

StartChar: Eth
Encoding: 208 208 225
Width: 644
Flags: W
LayerCount: 2
Fore
SplineSet
244 365 m 1,0,-1
 244 339 l 1,1,-1
 242 134 l 1,2,-1
 129 134 l 1,3,-1
 129 365 l 1,4,-1
 63 365 l 1,5,-1
 63 443 l 1,6,-1
 129 443 l 1,7,-1
 129 640 l 1,8,-1
 246 634 l 1,9,-1
 246 589 l 1,10,-1
 245 443 l 1,11,-1
 357 443 l 1,12,-1
 357 365 l 1,13,-1
 244 365 l 1,0,-1
277 543 m 1,14,-1
 277 641 l 1,15,-1
 341 637 l 2,16,17
 454 629 454 629 517.5 564 c 128,-1,18
 581 499 581 499 581 390 c 0,19,20
 581 249 581 249 484 185 c 0,21,22
 448 162 448 162 398 148 c 128,-1,23
 348 134 348 134 310 134 c 2,24,-1
 277 134 l 1,25,-1
 277 228 l 1,26,-1
 323 234 l 2,27,28
 394 244 394 244 424 280 c 0,29,30
 455 317 455 317 455 389 c 0,31,32
 455 457 455 457 427 494 c 0,33,34
 391 543 391 543 319 543 c 2,35,-1
 277 543 l 1,14,-1
EndSplineSet
Validated: 1
EndChar

StartChar: Ograve
Encoding: 210 210 226
Width: 642
Flags: W
LayerCount: 2
Fore
SplineSet
366 434.5 m 128,-1,1
 385 415 385 415 385 391 c 128,-1,2
 385 367 385 367 368 349 c 128,-1,3
 351 331 351 331 321.5 331 c 128,-1,4
 292 331 292 331 275 352.5 c 128,-1,5
 258 374 258 374 258 395.5 c 128,-1,6
 258 417 258 417 279.5 435.5 c 128,-1,7
 301 454 301 454 324 454 c 128,-1,0
 347 454 347 454 366 434.5 c 128,-1,1
63 391 m 1,8,-1
 64 411 l 2,9,10
 72 585 72 585 242 643 c 0,11,12
 269 653 269 653 282.5 653 c 128,-1,13
 296 653 296 653 300 643 c 128,-1,14
 304 633 304 633 306 606 c 2,15,-1
 308 560 l 1,16,-1
 270 544 l 1,17,18
 205 512 205 512 194 463 c 0,19,20
 189 442 189 442 189 396 c 128,-1,21
 189 350 189 350 193 331.5 c 128,-1,22
 197 313 197 313 211 293 c 0,23,24
 251 235 251 235 327 235 c 128,-1,25
 403 235 403 235 437 305 c 0,26,27
 456 344 456 344 456 396.5 c 128,-1,28
 456 449 456 449 428 496 c 128,-1,29
 400 543 400 543 363 550 c 0,30,31
 345 554 345 554 340.5 564.5 c 128,-1,32
 336 575 336 575 335 609 c 0,33,34
 335 616 335 616 335 622 c 0,35,36
 335 646 335 646 338 650 c 0,37,38
 342 656 342 656 354 656 c 128,-1,39
 366 656 366 656 391 649 c 0,40,41
 460 629 460 629 504.5 584.5 c 128,-1,42
 549 540 549 540 564 495 c 128,-1,43
 579 450 579 450 579 384 c 128,-1,44
 579 318 579 318 545 256 c 0,45,46
 480 136 480 136 321 136 c 2,47,-1
 306 136 l 2,48,49
 249 136 249 136 196 161 c 0,50,51
 63 223 63 223 63 391 c 1,8,-1
311 793 m 1,52,-1
 349 679 l 1,53,-1
 291 666 l 1,54,-1
 263 772 l 1,55,-1
 311 793 l 1,52,-1
EndSplineSet
Validated: 1
EndChar

StartChar: Ocircumflex
Encoding: 212 212 227
Width: 642
Flags: W
LayerCount: 2
Fore
SplineSet
366 434.5 m 128,-1,1
 385 415 385 415 385 391 c 128,-1,2
 385 367 385 367 368 349 c 128,-1,3
 351 331 351 331 321.5 331 c 128,-1,4
 292 331 292 331 275 352.5 c 128,-1,5
 258 374 258 374 258 395.5 c 128,-1,6
 258 417 258 417 279.5 435.5 c 128,-1,7
 301 454 301 454 324 454 c 128,-1,0
 347 454 347 454 366 434.5 c 128,-1,1
63 391 m 1,8,-1
 64 411 l 2,9,10
 72 585 72 585 242 643 c 0,11,12
 269 653 269 653 282.5 653 c 128,-1,13
 296 653 296 653 300 643 c 128,-1,14
 304 633 304 633 306 606 c 2,15,-1
 308 560 l 1,16,-1
 270 544 l 1,17,18
 205 512 205 512 194 463 c 0,19,20
 189 442 189 442 189 396 c 128,-1,21
 189 350 189 350 193 331.5 c 128,-1,22
 197 313 197 313 211 293 c 0,23,24
 251 235 251 235 327 235 c 128,-1,25
 403 235 403 235 437 305 c 0,26,27
 456 344 456 344 456 396.5 c 128,-1,28
 456 449 456 449 428 496 c 128,-1,29
 400 543 400 543 363 550 c 0,30,31
 345 554 345 554 340.5 564.5 c 128,-1,32
 336 575 336 575 335 609 c 0,33,34
 335 616 335 616 335 622 c 0,35,36
 335 646 335 646 338 650 c 0,37,38
 342 656 342 656 354 656 c 128,-1,39
 366 656 366 656 391 649 c 0,40,41
 460 629 460 629 504.5 584.5 c 128,-1,42
 549 540 549 540 564 495 c 128,-1,43
 579 450 579 450 579 384 c 128,-1,44
 579 318 579 318 545 256 c 0,45,46
 480 136 480 136 321 136 c 2,47,-1
 306 136 l 2,48,49
 249 136 249 136 196 161 c 0,50,51
 63 223 63 223 63 391 c 1,8,-1
313 798 m 1,52,-1
 435 689 l 1,53,-1
 426 647 l 1,54,-1
 312 740 l 1,55,-1
 210 641 l 1,56,-1
 201 690 l 1,57,-1
 313 798 l 1,52,-1
EndSplineSet
Validated: 1
EndChar

StartChar: Otilde
Encoding: 213 213 228
Width: 642
Flags: W
LayerCount: 2
Fore
SplineSet
366 434.5 m 128,-1,1
 385 415 385 415 385 391 c 128,-1,2
 385 367 385 367 368 349 c 128,-1,3
 351 331 351 331 321.5 331 c 128,-1,4
 292 331 292 331 275 352.5 c 128,-1,5
 258 374 258 374 258 395.5 c 128,-1,6
 258 417 258 417 279.5 435.5 c 128,-1,7
 301 454 301 454 324 454 c 128,-1,0
 347 454 347 454 366 434.5 c 128,-1,1
63 391 m 1,8,-1
 64 411 l 2,9,10
 72 585 72 585 242 643 c 0,11,12
 269 653 269 653 282.5 653 c 128,-1,13
 296 653 296 653 300 643 c 128,-1,14
 304 633 304 633 306 606 c 2,15,-1
 308 560 l 1,16,-1
 270 544 l 1,17,18
 205 512 205 512 194 463 c 0,19,20
 189 442 189 442 189 396 c 128,-1,21
 189 350 189 350 193 331.5 c 128,-1,22
 197 313 197 313 211 293 c 0,23,24
 251 235 251 235 327 235 c 128,-1,25
 403 235 403 235 437 305 c 0,26,27
 456 344 456 344 456 396.5 c 128,-1,28
 456 449 456 449 428 496 c 128,-1,29
 400 543 400 543 363 550 c 0,30,31
 345 554 345 554 340.5 564.5 c 128,-1,32
 336 575 336 575 335 609 c 0,33,34
 335 616 335 616 335 622 c 0,35,36
 335 646 335 646 338 650 c 0,37,38
 342 656 342 656 354 656 c 128,-1,39
 366 656 366 656 391 649 c 0,40,41
 460 629 460 629 504.5 584.5 c 128,-1,42
 549 540 549 540 564 495 c 128,-1,43
 579 450 579 450 579 384 c 128,-1,44
 579 318 579 318 545 256 c 0,45,46
 480 136 480 136 321 136 c 2,47,-1
 306 136 l 2,48,49
 249 136 249 136 196 161 c 0,50,51
 63 223 63 223 63 391 c 1,8,-1
307 773 m 1,52,-1
 334 729 l 1,53,-1
 441 748 l 1,54,-1
 441 694 l 1,55,-1
 334 677 l 1,56,-1
 307 720 l 1,57,-1
 208 694 l 1,58,-1
 208 748 l 1,59,-1
 304 772 l 1,60,-1
 307 773 l 1,52,-1
EndSplineSet
Validated: 1
EndChar

StartChar: Odieresis
Encoding: 214 214 229
Width: 642
Flags: W
LayerCount: 2
Fore
SplineSet
366 434.5 m 128,-1,1
 385 415 385 415 385 391 c 128,-1,2
 385 367 385 367 368 349 c 128,-1,3
 351 331 351 331 321.5 331 c 128,-1,4
 292 331 292 331 275 352.5 c 128,-1,5
 258 374 258 374 258 395.5 c 128,-1,6
 258 417 258 417 279.5 435.5 c 128,-1,7
 301 454 301 454 324 454 c 128,-1,0
 347 454 347 454 366 434.5 c 128,-1,1
63 391 m 1,8,-1
 64 411 l 2,9,10
 72 585 72 585 242 643 c 0,11,12
 269 653 269 653 282.5 653 c 128,-1,13
 296 653 296 653 300 643 c 128,-1,14
 304 633 304 633 306 606 c 2,15,-1
 308 560 l 1,16,-1
 270 544 l 1,17,18
 205 512 205 512 194 463 c 0,19,20
 189 442 189 442 189 396 c 128,-1,21
 189 350 189 350 193 331.5 c 128,-1,22
 197 313 197 313 211 293 c 0,23,24
 251 235 251 235 327 235 c 128,-1,25
 403 235 403 235 437 305 c 0,26,27
 456 344 456 344 456 396.5 c 128,-1,28
 456 449 456 449 428 496 c 128,-1,29
 400 543 400 543 363 550 c 0,30,31
 345 554 345 554 340.5 564.5 c 128,-1,32
 336 575 336 575 335 609 c 0,33,34
 335 616 335 616 335 622 c 0,35,36
 335 646 335 646 338 650 c 0,37,38
 342 656 342 656 354 656 c 128,-1,39
 366 656 366 656 391 649 c 0,40,41
 460 629 460 629 504.5 584.5 c 128,-1,42
 549 540 549 540 564 495 c 128,-1,43
 579 450 579 450 579 384 c 128,-1,44
 579 318 579 318 545 256 c 0,45,46
 480 136 480 136 321 136 c 2,47,-1
 306 136 l 2,48,49
 249 136 249 136 196 161 c 0,50,51
 63 223 63 223 63 391 c 1,8,-1
263 724 m 1,52,-1
 295 724 l 1,53,-1
 295 686 l 1,54,-1
 263 686 l 1,55,-1
 263 724 l 1,52,-1
335 723 m 1,56,-1
 365 723 l 1,57,-1
 365 687 l 1,58,-1
 335 687 l 1,59,-1
 335 723 l 1,56,-1
EndSplineSet
Validated: 1
EndChar

StartChar: multiply
Encoding: 215 215 230
Width: 406
Flags: W
LayerCount: 2
Fore
SplineSet
103.5 317.5 m 128,-1,1
 145 360 145 360 149.5 360 c 128,-1,2
 154 360 154 360 171 342 c 2,3,-1
 189 323 l 1,4,-1
 139 267 l 1,5,-1
 99 266 l 2,6,7
 85 265 85 265 77 265 c 0,8,9
 62 265 62 265 62 269 c 0,10,0
 62 275 62 275 103.5 317.5 c 128,-1,1
243 457 m 2,11,-1
 266 482 l 1,12,-1
 344 482 l 1,13,-1
 333 470 l 2,14,15
 330 467 330 467 288 421 c 2,16,-1
 254 386 l 1,17,-1
 237 405 l 2,18,19
 220 423 220 423 220 427 c 128,-1,20
 220 431 220 431 243 457 c 2,11,-1
167 368 m 2,21,22
 68 473 68 473 67 477 c 128,-1,23
 66 481 66 481 87 481 c 2,24,-1
 105 481 l 1,25,-1
 146 480 l 1,26,-1
 244 376 l 2,27,28
 343 272 343 272 343 268.5 c 128,-1,29
 343 265 343 265 303 265 c 2,30,-1
 262 265 l 1,31,-1
 167 368 l 2,21,22
EndSplineSet
Validated: 1
EndChar

StartChar: Oslash
Encoding: 216 216 231
Width: 642
Flags: W
LayerCount: 2
Fore
SplineSet
266 246 m 1,0,1
 291 235 291 235 323 235 c 0,2,3
 403 235 403 235 437 305 c 0,4,5
 456 344 456 344 456 396 c 128,-1,6
 456 448 456 448 430 493 c 1,7,-1
 379 416 l 1,8,9
 385 404 385 404 385 385.5 c 128,-1,10
 385 367 385 367 368 349 c 128,-1,11
 351 331 351 331 323 331 c 1,12,-1
 266 246 l 1,0,1
63 391 m 1,13,-1
 64 411 l 2,14,15
 72 585 72 585 242 643 c 0,16,17
 269 653 269 653 282.5 653 c 128,-1,18
 296 653 296 653 300 643 c 128,-1,19
 304 633 304 633 306 606 c 2,20,-1
 308 560 l 1,21,-1
 270 544 l 1,22,23
 205 512 205 512 194 463 c 0,24,25
 189 442 189 442 189 396 c 128,-1,26
 189 350 189 350 193.5 329 c 128,-1,27
 198 308 198 308 219 282 c 1,28,-1
 270 359 l 1,29,30
 257 377 257 377 257 394 c 0,31,32
 257 416 257 416 280 436 c 0,33,34
 301 454 301 454 323 454 c 0,35,36
 328 454 328 454 333 453 c 1,37,-1
 390 539 l 1,38,39
 377 547 377 547 361 550.5 c 128,-1,40
 345 554 345 554 340.5 564.5 c 128,-1,41
 336 575 336 575 335 609 c 0,42,43
 335 616 335 616 335 622 c 0,44,45
 335 646 335 646 338 650 c 0,46,47
 342 656 342 656 354 656 c 128,-1,48
 366 656 366 656 393.5 648 c 128,-1,49
 421 640 421 640 447 626 c 1,50,-1
 492 694 l 1,51,-1
 541 661 l 1,52,-1
 496 592 l 1,53,54
 547 548 547 548 563 499 c 128,-1,55
 579 450 579 450 579 384 c 128,-1,56
 579 318 579 318 545 256 c 0,57,58
 480 136 480 136 321 136 c 2,59,-1
 306 136 l 2,60,61
 255 136 255 136 207 156 c 1,62,-1
 165 93 l 1,63,-1
 116 126 l 1,64,-1
 155 185 l 1,65,66
 63 251 63 251 63 391 c 1,13,-1
EndSplineSet
Validated: 1
EndChar

StartChar: Ugrave
Encoding: 217 217 232
Width: 556
Flags: W
LayerCount: 2
Fore
SplineSet
379 482 m 2,0,-1
 379 655 l 1,1,-1
 493 655 l 1,2,-1
 493 469 l 2,3,4
 493 312 493 312 483 266.5 c 128,-1,5
 473 221 473 221 427 183 c 0,6,7
 407 166 407 166 388 157.5 c 128,-1,8
 369 149 369 149 333 142 c 2,9,-1
 300 136 l 1,10,-1
 300 187 l 2,11,12
 300 223 300 223 304.5 232.5 c 128,-1,13
 309 242 309 242 329 251 c 128,-1,14
 349 260 349 260 357 268 c 0,15,16
 376 287 376 287 378 375 c 0,17,18
 379 404 379 404 379 482 c 2,0,-1
63 488 m 2,19,-1
 63 655 l 1,20,-1
 123 653 l 1,21,-1
 181 650 l 1,22,-1
 186 475 l 2,23,24
 188 374 188 374 192 334 c 128,-1,25
 196 294 196 294 205 277 c 128,-1,26
 214 260 214 260 235.5 250.5 c 128,-1,27
 257 241 257 241 261 232 c 128,-1,28
 265 223 265 223 265 190 c 128,-1,29
 265 157 265 157 262.5 147.5 c 128,-1,30
 260 138 260 138 250 138 c 128,-1,31
 240 138 240 138 219 144 c 0,32,33
 155 163 155 163 119.5 200.5 c 128,-1,34
 84 238 84 238 73.5 281 c 128,-1,35
 63 324 63 324 63 488 c 2,19,-1
165 740 m 1,36,-1
 209 772 l 1,37,-1
 337 692 l 1,38,-1
 283 660 l 1,39,-1
 165 740 l 1,36,-1
EndSplineSet
Validated: 1
EndChar

StartChar: Ucircumflex
Encoding: 219 219 233
Width: 556
Flags: W
LayerCount: 2
Fore
SplineSet
379 482 m 2,0,-1
 379 655 l 1,1,-1
 493 655 l 1,2,-1
 493 469 l 2,3,4
 493 312 493 312 483 266.5 c 128,-1,5
 473 221 473 221 427 183 c 0,6,7
 407 166 407 166 388 157.5 c 128,-1,8
 369 149 369 149 333 142 c 2,9,-1
 300 136 l 1,10,-1
 300 187 l 2,11,12
 300 223 300 223 304.5 232.5 c 128,-1,13
 309 242 309 242 329 251 c 128,-1,14
 349 260 349 260 357 268 c 0,15,16
 376 287 376 287 378 375 c 0,17,18
 379 404 379 404 379 482 c 2,0,-1
63 488 m 2,19,-1
 63 655 l 1,20,-1
 123 653 l 1,21,-1
 181 650 l 1,22,-1
 186 475 l 2,23,24
 188 374 188 374 192 334 c 128,-1,25
 196 294 196 294 205 277 c 128,-1,26
 214 260 214 260 235.5 250.5 c 128,-1,27
 257 241 257 241 261 232 c 128,-1,28
 265 223 265 223 265 190 c 128,-1,29
 265 157 265 157 262.5 147.5 c 128,-1,30
 260 138 260 138 250 138 c 128,-1,31
 240 138 240 138 219 144 c 0,32,33
 155 163 155 163 119.5 200.5 c 128,-1,34
 84 238 84 238 73.5 281 c 128,-1,35
 63 324 63 324 63 488 c 2,19,-1
268 797 m 1,36,-1
 389 709 l 1,37,-1
 380 676 l 1,38,-1
 267 750 l 1,39,-1
 166 671 l 1,40,-1
 156 710 l 1,41,-1
 268 797 l 1,36,-1
EndSplineSet
Validated: 1
EndChar

StartChar: Yacute
Encoding: 221 221 234
Width: 592
Flags: W
LayerCount: 2
Fore
SplineSet
354 550 m 2,0,1
 397 629 397 629 405.5 638.5 c 128,-1,2
 414 648 414 648 473 648 c 128,-1,3
 532 648 532 648 532 639 c 128,-1,4
 532 630 532 630 455 507 c 128,-1,5
 378 384 378 384 371 384 c 0,6,7
 369 384 369 384 358.5 397.5 c 128,-1,8
 348 411 348 411 338 429 c 2,9,-1
 314 473 l 1,10,-1
 354 550 l 2,0,1
104 646 m 2,11,-1
 128 646 l 1,12,-1
 188 643 l 1,13,14
 260 509 260 509 350 347 c 1,15,-1
 350 134 l 1,16,-1
 236 134 l 1,17,-1
 236 230 l 1,18,-1
 236 255 l 2,19,20
 236 316 236 316 223 348.5 c 128,-1,21
 210 381 210 381 135 506.5 c 128,-1,22
 60 632 60 632 60 640 c 0,23,24
 60 646 60 646 104 646 c 2,11,-1
291 792 m 1,25,-1
 247 674 l 1,26,-1
 313 661 l 1,27,-1
 345 771 l 1,28,-1
 291 792 l 1,25,-1
EndSplineSet
Validated: 9
EndChar

StartChar: Thorn
Encoding: 222 222 235
Width: 480
Flags: W
LayerCount: 2
Fore
SplineSet
233 336 m 2,0,1
 269 340 269 340 289 358 c 128,-1,2
 309 376 309 376 309 399.5 c 128,-1,3
 309 423 309 423 300.5 441.5 c 128,-1,4
 292 460 292 460 278 467 c 128,-1,5
 264 474 264 474 234 476 c 128,-1,6
 204 478 204 478 198 485.5 c 128,-1,7
 192 493 192 493 192 519.5 c 128,-1,8
 192 546 192 546 194 552 c 0,9,10
 199 565 199 565 231.5 565 c 128,-1,11
 264 565 264 565 305 554 c 0,12,13
 383 533 383 533 405 480 c 0,14,15
 417 452 417 452 417 412 c 0,16,17
 417 336 417 336 374.5 295.5 c 128,-1,18
 332 255 332 255 250 253 c 2,19,-1
 195 251 l 1,20,-1
 195 333 l 1,21,-1
 233 336 l 2,0,1
173 641 m 1,22,-1
 177 146 l 1,23,-1
 63 146 l 1,24,-1
 63 647 l 1,25,-1
 173 641 l 1,22,-1
EndSplineSet
Validated: 1
EndChar

StartChar: germandbls
Encoding: 223 223 236
Width: 561
Flags: W
LayerCount: 2
Fore
SplineSet
63 51 m 1,0,-1
 92 630 l 1,1,-1
 205 630 l 1,2,-1
 176 51 l 1,3,-1
 63 51 l 1,0,-1
238 585 m 1,4,-1
 238 604 l 2,5,6
 238 624 238 624 248.5 631 c 128,-1,7
 259 638 259 638 291 638 c 128,-1,8
 323 638 323 638 361 630.5 c 128,-1,9
 399 623 399 623 421 609.5 c 128,-1,10
 443 596 443 596 458 566 c 128,-1,11
 473 536 473 536 473 502 c 0,12,13
 473 452 473 452 361 389 c 0,14,15
 349 382 349 382 349 378 c 0,16,17
 349 366 349 366 366 356 c 0,18,19
 498 284 498 284 498 197 c 0,20,21
 498 183 498 183 494 165 c 0,22,23
 481 106 481 106 439 79 c 128,-1,24
 397 52 397 52 311 46 c 2,25,-1
 241 41 l 1,26,-1
 244 88 l 1,27,-1
 246 135 l 1,28,-1
 294 139 l 2,29,30
 339 143 339 143 355.5 153 c 128,-1,31
 372 163 372 163 378 195 c 0,32,33
 379 201 379 201 379 205 c 0,34,35
 379 267 379 267 347 288.5 c 128,-1,36
 315 310 315 310 301.5 314.5 c 128,-1,37
 288 319 288 319 258 319 c 2,38,-1
 210 319 l 1,39,-1
 210 406 l 1,40,-1
 247 406 l 2,41,42
 353 406 353 406 353 496 c 0,43,44
 353 523 353 523 336.5 535 c 128,-1,45
 320 547 320 547 282 547 c 2,46,-1
 242 547 l 1,47,-1
 238 585 l 1,4,-1
EndSplineSet
Validated: 1
EndChar

StartChar: agrave
Encoding: 224 224 237
Width: 494
Flags: W
LayerCount: 2
Fore
SplineSet
283 491 m 1,0,-1
 198 488 l 1,1,-1
 155 633 l 1,2,-1
 213 641 l 1,3,-1
 283 491 l 1,0,-1
65 151 m 2,4,5
 67 162 67 162 120 283 c 128,-1,6
 173 404 173 404 177 411.5 c 128,-1,7
 181 419 181 419 184 419 c 0,8,9
 193 419 193 419 207 372 c 2,10,-1
 219 330 l 1,11,-1
 197 275 l 2,12,13
 173 222 173 222 173 213 c 0,14,15
 173 200 173 200 221 200 c 2,16,-1
 267 200 l 1,17,-1
 275 171 l 2,18,19
 279 154 279 154 279 145 c 0,20,21
 279 138 279 138 277 136 c 128,-1,22
 275 134 275 134 167 134 c 2,23,-1
 61 134 l 1,24,-1
 65 151 l 2,4,5
205 454 m 0,25,26
 205 459 205 459 247 459 c 2,27,-1
 293 459 l 1,28,-1
 305 432 l 2,29,30
 308 423 308 423 370.5 283.5 c 128,-1,31
 433 144 433 144 433 139.5 c 128,-1,32
 433 135 433 135 403 135 c 2,33,-1
 379 135 l 1,34,-1
 325 137 l 1,35,-1
 269 282 l 2,36,37
 205 445 205 445 205 454 c 0,25,26
EndSplineSet
Validated: 1
EndChar

StartChar: acircumflex
Encoding: 226 226 238
Width: 494
Flags: W
LayerCount: 2
Fore
SplineSet
241 634 m 1,0,-1
 363 525 l 1,1,-1
 354 483 l 1,2,-1
 240 576 l 1,3,-1
 138 477 l 1,4,-1
 129 526 l 1,5,-1
 241 634 l 1,0,-1
65 151 m 2,6,7
 67 162 67 162 120 283 c 128,-1,8
 173 404 173 404 177 411.5 c 128,-1,9
 181 419 181 419 184 419 c 0,10,11
 193 419 193 419 207 372 c 2,12,-1
 219 330 l 1,13,-1
 197 275 l 2,14,15
 173 222 173 222 173 213 c 0,16,17
 173 200 173 200 221 200 c 2,18,-1
 267 200 l 1,19,-1
 275 171 l 2,20,21
 279 154 279 154 279 145 c 0,22,23
 279 138 279 138 277 136 c 128,-1,24
 275 134 275 134 167 134 c 2,25,-1
 61 134 l 1,26,-1
 65 151 l 2,6,7
205 454 m 0,27,28
 205 459 205 459 247 459 c 2,29,-1
 293 459 l 1,30,-1
 305 432 l 2,31,32
 308 423 308 423 370.5 283.5 c 128,-1,33
 433 144 433 144 433 139.5 c 128,-1,34
 433 135 433 135 403 135 c 2,35,-1
 379 135 l 1,36,-1
 325 137 l 1,37,-1
 269 282 l 2,38,39
 205 445 205 445 205 454 c 0,27,28
EndSplineSet
Validated: 1
EndChar

StartChar: atilde
Encoding: 227 227 239
Width: 494
Flags: W
LayerCount: 2
Fore
SplineSet
253 582 m 1,0,-1
 280 538 l 1,1,-1
 387 557 l 1,2,-1
 387 503 l 1,3,-1
 280 486 l 1,4,-1
 253 529 l 1,5,-1
 154 503 l 1,6,-1
 154 557 l 1,7,-1
 250 581 l 1,8,-1
 253 582 l 1,0,-1
65 151 m 2,9,10
 67 162 67 162 120 283 c 128,-1,11
 173 404 173 404 177 411.5 c 128,-1,12
 181 419 181 419 184 419 c 0,13,14
 193 419 193 419 207 372 c 2,15,-1
 219 330 l 1,16,-1
 197 275 l 2,17,18
 173 222 173 222 173 213 c 0,19,20
 173 200 173 200 221 200 c 2,21,-1
 267 200 l 1,22,-1
 275 171 l 2,23,24
 279 154 279 154 279 145 c 0,25,26
 279 138 279 138 277 136 c 128,-1,27
 275 134 275 134 167 134 c 2,28,-1
 61 134 l 1,29,-1
 65 151 l 2,9,10
205 454 m 0,30,31
 205 459 205 459 247 459 c 2,32,-1
 293 459 l 1,33,-1
 305 432 l 2,34,35
 308 423 308 423 370.5 283.5 c 128,-1,36
 433 144 433 144 433 139.5 c 128,-1,37
 433 135 433 135 403 135 c 2,38,-1
 379 135 l 1,39,-1
 325 137 l 1,40,-1
 269 282 l 2,41,42
 205 445 205 445 205 454 c 0,30,31
EndSplineSet
Validated: 1
EndChar

StartChar: adieresis
Encoding: 228 228 240
Width: 494
Flags: W
LayerCount: 2
Fore
SplineSet
191 532 m 1,0,-1
 223 532 l 1,1,-1
 223 494 l 1,2,-1
 191 494 l 1,3,-1
 191 532 l 1,0,-1
263 531 m 1,4,-1
 293 531 l 1,5,-1
 293 495 l 1,6,-1
 263 495 l 1,7,-1
 263 531 l 1,4,-1
65 151 m 2,8,9
 67 162 67 162 120 283 c 128,-1,10
 173 404 173 404 177 411.5 c 128,-1,11
 181 419 181 419 184 419 c 0,12,13
 193 419 193 419 207 372 c 2,14,-1
 219 330 l 1,15,-1
 197 275 l 2,16,17
 173 222 173 222 173 213 c 0,18,19
 173 200 173 200 221 200 c 2,20,-1
 267 200 l 1,21,-1
 275 171 l 2,22,23
 279 154 279 154 279 145 c 0,24,25
 279 138 279 138 277 136 c 128,-1,26
 275 134 275 134 167 134 c 2,27,-1
 61 134 l 1,28,-1
 65 151 l 2,8,9
205 454 m 0,29,30
 205 459 205 459 247 459 c 2,31,-1
 293 459 l 1,32,-1
 305 432 l 2,33,34
 308 423 308 423 370.5 283.5 c 128,-1,35
 433 144 433 144 433 139.5 c 128,-1,36
 433 135 433 135 403 135 c 2,37,-1
 379 135 l 1,38,-1
 325 137 l 1,39,-1
 269 282 l 2,40,41
 205 445 205 445 205 454 c 0,29,30
EndSplineSet
Validated: 1
EndChar

StartChar: aring
Encoding: 229 229 241
Width: 494
Flags: W
LayerCount: 2
Fore
SplineSet
239 530 m 1,0,1
 220 533 220 533 219 552 c 0,2,3
 219 564 219 564 225.5 570.5 c 128,-1,4
 232 577 232 577 239 578 c 1,5,-1
 239 530 l 1,0,1
246 530 m 1,6,7
 267 533 267 533 267 554 c 0,8,9
 267 564 267 564 260 570 c 128,-1,10
 253 576 253 576 246 577 c 1,11,-1
 246 530 l 1,6,7
239 488 m 1,12,13
 215 490 215 490 197 508 c 0,14,15
 180 526 180 526 180 551 c 0,16,17
 180 580 180 580 198 599 c 0,18,19
 216 617 216 617 240 618 c 1,20,-1
 241 609 l 1,21,22
 221 608 221 608 205.5 592.5 c 128,-1,23
 190 577 190 577 190 555 c 128,-1,24
 190 533 190 533 204.5 517.5 c 128,-1,25
 219 502 219 502 239 500 c 1,26,-1
 239 488 l 1,12,13
244 488 m 1,27,28
 272 488 272 488 291 508 c 0,29,30
 310 527 310 527 310 553 c 0,31,32
 310 581 310 581 291 600 c 0,33,34
 273 618 273 618 247 619 c 1,35,-1
 247 609 l 1,36,37
 268 608 268 608 283.5 592 c 128,-1,38
 299 576 299 576 299 553.5 c 128,-1,39
 299 531 299 531 282.5 515.5 c 128,-1,40
 266 500 266 500 244 500 c 1,41,-1
 244 488 l 1,27,28
65 151 m 2,42,43
 67 162 67 162 120 283 c 128,-1,44
 173 404 173 404 177 411.5 c 128,-1,45
 181 419 181 419 184 419 c 0,46,47
 193 419 193 419 207 372 c 2,48,-1
 219 330 l 1,49,-1
 197 275 l 2,50,51
 173 222 173 222 173 213 c 0,52,53
 173 200 173 200 221 200 c 2,54,-1
 267 200 l 1,55,-1
 275 171 l 2,56,57
 279 154 279 154 279 145 c 0,58,59
 279 138 279 138 277 136 c 128,-1,60
 275 134 275 134 167 134 c 2,61,-1
 61 134 l 1,62,-1
 65 151 l 2,42,43
205 454 m 0,63,64
 205 459 205 459 247 459 c 2,65,-1
 293 459 l 1,66,-1
 305 432 l 2,67,68
 308 423 308 423 370.5 283.5 c 128,-1,69
 433 144 433 144 433 139.5 c 128,-1,70
 433 135 433 135 403 135 c 2,71,-1
 379 135 l 1,72,-1
 325 137 l 1,73,-1
 269 282 l 2,74,75
 205 445 205 445 205 454 c 0,63,64
EndSplineSet
Validated: 9
EndChar

StartChar: ae
Encoding: 230 230 242
Width: 568
Flags: W
LayerCount: 2
Fore
SplineSet
507 275 m 1,0,-1
 387 275 l 1025,1,-1
447 139 m 1025,2,3
362 331 m 1025,4,-1
338 386 m 1025,5,-1
447 139 m 1,6,7
 467 146 467 146 480 157 c 0,8,9
 489 165 489 165 489.5 171.5 c 128,-1,10
 490 178 490 178 483 195.5 c 128,-1,11
 476 213 476 213 473 217.5 c 128,-1,12
 470 222 470 222 464 222 c 128,-1,13
 458 222 458 222 444 216 c 128,-1,14
 430 210 430 210 417 206 c 1,15,-1
 447 139 l 1,6,7
387 275 m 1,16,-1
 507 275 l 1,17,-1
 503 317 l 2,18,19
 490 457 490 457 358 457 c 0,20,21
 330 457 330 457 309 451 c 1,22,-1
 338 386 l 1,23,24
 348 389 348 389 365 389 c 128,-1,25
 382 389 382 389 398 376 c 128,-1,26
 414 363 414 363 414 351 c 0,27,28
 414 331 414 331 369 331 c 2,29,-1
 362 331 l 1,30,-1
 387 275 l 1,16,-1
65 147 m 2,31,32
 67 158 67 158 120 279 c 128,-1,33
 173 400 173 400 176 407.5 c 128,-1,34
 179 415 179 415 183 415 c 0,35,36
 191 415 191 415 205 368 c 2,37,-1
 217 326 l 1,38,-1
 195 271 l 2,39,40
 173 218 173 218 173 209 c 0,41,42
 173 196 173 196 219 196 c 2,43,-1
 265 196 l 1,44,-1
 273 167 l 2,45,46
 279 144 279 144 279 137 c 0,47,48
 279 134 279 134 278 133 c 0,49,50
 275 130 275 130 167 130 c 2,51,-1
 61 130 l 1,52,-1
 65 147 l 2,31,32
205 450 m 0,53,54
 205 455 205 455 247 455 c 2,55,-1
 291 455 l 1,56,-1
 303 428 l 2,57,58
 306 419 306 419 368.5 279.5 c 128,-1,59
 431 140 431 140 431 135.5 c 128,-1,60
 431 131 431 131 403 131 c 2,61,-1
 379 131 l 1,62,-1
 325 133 l 1,63,-1
 269 278 l 2,64,65
 205 441 205 441 205 450 c 0,53,54
EndSplineSet
Validated: 2059
EndChar

StartChar: egrave
Encoding: 232 232 243
Width: 429
Flags: W
LayerCount: 2
Fore
SplineSet
154 300 m 0,0,1
 153 300 153 300 155 278 c 128,-1,2
 157 256 157 256 162 246 c 0,3,4
 168 234 168 234 186 218 c 128,-1,5
 204 202 204 202 235.5 202 c 128,-1,6
 267 202 267 202 290 212 c 128,-1,7
 313 222 313 222 319 222 c 128,-1,8
 325 222 325 222 328 217.5 c 128,-1,9
 331 213 331 213 338 195.5 c 128,-1,10
 345 178 345 178 345 171.5 c 128,-1,11
 345 165 345 165 336 157 c 0,12,13
 305 131 305 131 232 131 c 0,14,15
 131 131 131 131 88 196 c 0,16,17
 63 233 63 233 63 297 c 0,18,19
 63 357 63 357 104 402 c 0,20,21
 146 448 146 448 213.5 448 c 128,-1,22
 281 448 281 448 317.5 415 c 128,-1,23
 354 382 354 382 362 308 c 2,24,-1
 366 266 l 1,25,-1
 182 266 l 1,26,-1
 182 322 l 1,27,-1
 228 322 l 2,28,29
 273 322 273 322 273 342 c 0,30,31
 273 354 273 354 257 367 c 128,-1,32
 241 380 241 380 223 380 c 0,33,34
 155 380 155 380 154 300 c 0,0,1
220 477 m 1,35,-1
 157 464 l 1,36,-1
 78 575 l 1,37,-1
 152 567 l 1,38,-1
 220 477 l 1,35,-1
EndSplineSet
Validated: 1
EndChar

StartChar: ecircumflex
Encoding: 234 234 244
Width: 429
Flags: W
LayerCount: 2
Fore
SplineSet
154 300 m 0,0,1
 153 300 153 300 155 278 c 128,-1,2
 157 256 157 256 162 246 c 0,3,4
 168 234 168 234 186 218 c 128,-1,5
 204 202 204 202 235.5 202 c 128,-1,6
 267 202 267 202 290 212 c 128,-1,7
 313 222 313 222 319 222 c 128,-1,8
 325 222 325 222 328 217.5 c 128,-1,9
 331 213 331 213 338 195.5 c 128,-1,10
 345 178 345 178 345 171.5 c 128,-1,11
 345 165 345 165 336 157 c 0,12,13
 305 131 305 131 232 131 c 0,14,15
 131 131 131 131 88 196 c 0,16,17
 63 233 63 233 63 297 c 0,18,19
 63 357 63 357 104 402 c 0,20,21
 146 448 146 448 213.5 448 c 128,-1,22
 281 448 281 448 317.5 415 c 128,-1,23
 354 382 354 382 362 308 c 2,24,-1
 366 266 l 1,25,-1
 182 266 l 1,26,-1
 182 322 l 1,27,-1
 228 322 l 2,28,29
 273 322 273 322 273 342 c 0,30,31
 273 354 273 354 257 367 c 128,-1,32
 241 380 241 380 223 380 c 0,33,34
 155 380 155 380 154 300 c 0,0,1
201 586 m 1,35,-1
 323 477 l 1,36,-1
 314 435 l 1,37,-1
 200 528 l 1,38,-1
 98 429 l 1,39,-1
 89 478 l 1,40,-1
 201 586 l 1,35,-1
EndSplineSet
Validated: 1
EndChar

StartChar: edieresis
Encoding: 235 235 245
Width: 429
Flags: W
LayerCount: 2
Fore
SplineSet
154 300 m 0,0,1
 153 300 153 300 155 278 c 128,-1,2
 157 256 157 256 162 246 c 0,3,4
 168 234 168 234 186 218 c 128,-1,5
 204 202 204 202 235.5 202 c 128,-1,6
 267 202 267 202 290 212 c 128,-1,7
 313 222 313 222 319 222 c 128,-1,8
 325 222 325 222 328 217.5 c 128,-1,9
 331 213 331 213 338 195.5 c 128,-1,10
 345 178 345 178 345 171.5 c 128,-1,11
 345 165 345 165 336 157 c 0,12,13
 305 131 305 131 232 131 c 0,14,15
 131 131 131 131 88 196 c 0,16,17
 63 233 63 233 63 297 c 0,18,19
 63 357 63 357 104 402 c 0,20,21
 146 448 146 448 213.5 448 c 128,-1,22
 281 448 281 448 317.5 415 c 128,-1,23
 354 382 354 382 362 308 c 2,24,-1
 366 266 l 1,25,-1
 182 266 l 1,26,-1
 182 322 l 1,27,-1
 228 322 l 2,28,29
 273 322 273 322 273 342 c 0,30,31
 273 354 273 354 257 367 c 128,-1,32
 241 380 241 380 223 380 c 0,33,34
 155 380 155 380 154 300 c 0,0,1
161 517 m 1,35,-1
 193 517 l 1,36,-1
 193 479 l 1,37,-1
 161 479 l 1,38,-1
 161 517 l 1,35,-1
233 516 m 1,39,-1
 263 516 l 1,40,-1
 263 480 l 1,41,-1
 233 480 l 1,42,-1
 233 516 l 1,39,-1
EndSplineSet
Validated: 1
EndChar

StartChar: igrave
Encoding: 236 236 246
Width: 233
Flags: W
LayerCount: 2
Fore
SplineSet
94 296 m 2,0,1
 96 457 96 457 98 460 c 128,-1,2
 100 463 100 463 120 463 c 2,3,-1
 136 463 l 1,4,-1
 172 462 l 1,5,-1
 172 135 l 1,6,-1
 92 135 l 1,7,-1
 94 296 l 2,0,1
172 506 m 1,8,-1
 105 500 l 1,9,-1
 61 604 l 1,10,-1
 114 626 l 1,11,-1
 128 557 l 1,12,-1
 172 506 l 1,8,-1
EndSplineSet
Validated: 1
EndChar

StartChar: icircumflex
Encoding: 238 238 247
Width: 356
Flags: W
LayerCount: 2
Fore
SplineSet
136 296 m 2,0,1
 138 457 138 457 140 460 c 128,-1,2
 142 463 142 463 162 463 c 2,3,-1
 178 463 l 1,4,-1
 214 462 l 1,5,-1
 214 135 l 1,6,-1
 134 135 l 1,7,-1
 136 296 l 2,0,1
173 588 m 1,8,-1
 295 479 l 1,9,-1
 286 437 l 1,10,-1
 172 530 l 1,11,-1
 70 431 l 1,12,-1
 61 480 l 1,13,-1
 173 588 l 1,8,-1
EndSplineSet
Validated: 1
EndChar

StartChar: idieresis
Encoding: 239 239 248
Width: 224
Flags: W
LayerCount: 2
Fore
SplineSet
73 296 m 2,0,1
 75 457 75 457 77 460 c 128,-1,2
 79 463 79 463 99 463 c 2,3,-1
 115 463 l 1,4,-1
 151 462 l 1,5,-1
 151 135 l 1,6,-1
 71 135 l 1,7,-1
 73 296 l 2,0,1
61 564 m 1,8,-1
 93 564 l 1,9,-1
 93 526 l 1,10,-1
 61 526 l 1,11,-1
 61 564 l 1,8,-1
133 563 m 1,12,-1
 163 563 l 1,13,-1
 163 527 l 1,14,-1
 133 527 l 1,15,-1
 133 563 l 1,12,-1
EndSplineSet
Validated: 1
EndChar

StartChar: eth
Encoding: 240 240 249
Width: 433
Flags: W
LayerCount: 2
Fore
SplineSet
197 427 m 1025,0,-1
296 176 m 1025,1,-1
178 295 m 1025,2,-1
336 134 m 1,3,4
 370 175 370 175 370 233 c 128,-1,5
 370 291 370 291 335 326 c 1,6,7
 258 455 258 455 256 459 c 1,8,-1
 197 427 l 1,9,10
 205 407 205 407 224 372 c 1,11,-1
 227 371 l 1,12,13
 176 370 176 370 139 335 c 1,14,-1
 178 295 l 1,15,16
 202 313 202 313 233 313 c 128,-1,17
 264 313 264 313 289 288 c 0,18,19
 315 262 315 262 315 230 c 1,20,-1
 296 176 l 2,21,22
 296 174 296 174 336 134 c 1,3,4
303 105 m 1,23,24
 272 86 272 86 231 85 c 0,25,26
 230 85 230 85 228 85 c 0,27,28
 172 85 172 85 134 126 c 0,29,30
 92 169 92 169 92 220 c 128,-1,31
 92 271 92 271 116 308 c 1,32,-1
 154 267 l 1,33,34
 142 248 142 248 142 228 c 0,35,36
 142 190 142 190 168.5 166.5 c 128,-1,37
 195 143 195 143 221 143 c 128,-1,38
 247 143 247 143 262 150 c 1,39,-1
 303 105 l 1,23,24
187 449 m 1,40,-1
 81 394 l 1,41,-1
 63 463 l 1,42,-1
 147 503 l 1,43,-1
 211 534 l 1,44,-1
 304 578 l 1,45,-1
 321 521 l 1,46,-1
 251 484 l 1,47,-1
 245 481 l 1,48,-1
 187 449 l 1,40,-1
135 521 m 1,49,50
 111 556 111 556 82 586 c 1,51,-1
 178 580 l 1,52,53
 190 563 190 563 199 551 c 1,54,-1
 135 521 l 1,49,50
EndSplineSet
Validated: 2057
EndChar

StartChar: ograve
Encoding: 242 242 250
Width: 483
Flags: W
LayerCount: 2
Fore
SplineSet
242 242 m 0,0,1
 205 242 205 242 205 287 c 0,2,3
 205 306 205 306 216 314 c 0,4,5
 228 324 228 324 241 324 c 128,-1,6
 254 324 254 324 267.5 311.5 c 128,-1,7
 281 299 281 299 281 283 c 128,-1,8
 281 267 281 267 269.5 254.5 c 128,-1,9
 258 242 258 242 242 242 c 0,0,1
169 447 m 0,10,11
 193 458 193 458 207 458 c 128,-1,12
 221 458 221 458 224 452.5 c 128,-1,13
 227 447 227 447 227 426.5 c 128,-1,14
 227 406 227 406 223 399 c 128,-1,15
 219 392 219 392 206 387 c 0,16,17
 178 374 178 374 160 344 c 0,18,19
 142 313 142 313 141 285 c 0,20,21
 142 259 142 259 154 234 c 0,22,23
 166 208 166 208 186.5 192.5 c 128,-1,24
 207 177 207 177 241.5 177 c 128,-1,25
 276 177 276 177 298 192 c 0,26,27
 337 217 337 217 337 276 c 0,28,29
 337 360 337 360 274 386 c 0,30,31
 259 392 259 392 255 399 c 128,-1,32
 251 406 251 406 251 427.5 c 128,-1,33
 251 449 251 449 254 453.5 c 128,-1,34
 257 458 257 458 277.5 458 c 128,-1,35
 298 458 298 458 332.5 438.5 c 128,-1,36
 367 419 367 419 393.5 381.5 c 128,-1,37
 420 344 420 344 420 286 c 0,38,39
 420 263 420 263 414 239 c 0,40,41
 400 176 400 176 354 141 c 0,42,43
 309 106 309 106 237 106 c 0,44,45
 236 106 236 106 234 106 c 0,46,47
 160 106 160 106 111.5 154.5 c 128,-1,48
 63 203 63 203 63 282 c 0,49,50
 63 398 63 398 169 447 c 0,10,11
263 492 m 1,51,-1
 208 474 l 1,52,-1
 163 593 l 1,53,-1
 221 598 l 1,54,-1
 263 492 l 1,51,-1
EndSplineSet
Validated: 1
EndChar

StartChar: ocircumflex
Encoding: 244 244 251
Width: 483
Flags: W
LayerCount: 2
Fore
SplineSet
242 242 m 0,0,1
 205 242 205 242 205 287 c 0,2,3
 205 306 205 306 216 314 c 0,4,5
 228 324 228 324 241 324 c 128,-1,6
 254 324 254 324 267.5 311.5 c 128,-1,7
 281 299 281 299 281 283 c 128,-1,8
 281 267 281 267 269.5 254.5 c 128,-1,9
 258 242 258 242 242 242 c 0,0,1
169 447 m 0,10,11
 193 458 193 458 207 458 c 128,-1,12
 221 458 221 458 224 452.5 c 128,-1,13
 227 447 227 447 227 426.5 c 128,-1,14
 227 406 227 406 223 399 c 128,-1,15
 219 392 219 392 206 387 c 0,16,17
 178 374 178 374 160 344 c 0,18,19
 142 313 142 313 141 285 c 0,20,21
 142 259 142 259 154 234 c 0,22,23
 166 208 166 208 186.5 192.5 c 128,-1,24
 207 177 207 177 241.5 177 c 128,-1,25
 276 177 276 177 298 192 c 0,26,27
 337 217 337 217 337 276 c 0,28,29
 337 360 337 360 274 386 c 0,30,31
 259 392 259 392 255 399 c 128,-1,32
 251 406 251 406 251 427.5 c 128,-1,33
 251 449 251 449 254 453.5 c 128,-1,34
 257 458 257 458 277.5 458 c 128,-1,35
 298 458 298 458 332.5 438.5 c 128,-1,36
 367 419 367 419 393.5 381.5 c 128,-1,37
 420 344 420 344 420 286 c 0,38,39
 420 263 420 263 414 239 c 0,40,41
 400 176 400 176 354 141 c 0,42,43
 309 106 309 106 237 106 c 0,44,45
 236 106 236 106 234 106 c 0,46,47
 160 106 160 106 111.5 154.5 c 128,-1,48
 63 203 63 203 63 282 c 0,49,50
 63 398 63 398 169 447 c 0,10,11
227 609 m 1,51,-1
 349 500 l 1,52,-1
 340 458 l 1,53,-1
 226 551 l 1,54,-1
 124 452 l 1,55,-1
 115 501 l 1,56,-1
 227 609 l 1,51,-1
EndSplineSet
Validated: 1
EndChar

StartChar: otilde
Encoding: 245 245 252
Width: 483
Flags: W
LayerCount: 2
Fore
SplineSet
242 242 m 0,0,1
 205 242 205 242 205 287 c 0,2,3
 205 306 205 306 216 314 c 0,4,5
 228 324 228 324 241 324 c 128,-1,6
 254 324 254 324 267.5 311.5 c 128,-1,7
 281 299 281 299 281 283 c 128,-1,8
 281 267 281 267 269.5 254.5 c 128,-1,9
 258 242 258 242 242 242 c 0,0,1
169 447 m 0,10,11
 193 458 193 458 207 458 c 128,-1,12
 221 458 221 458 224 452.5 c 128,-1,13
 227 447 227 447 227 426.5 c 128,-1,14
 227 406 227 406 223 399 c 128,-1,15
 219 392 219 392 206 387 c 0,16,17
 178 374 178 374 160 344 c 0,18,19
 142 313 142 313 141 285 c 0,20,21
 142 259 142 259 154 234 c 0,22,23
 166 208 166 208 186.5 192.5 c 128,-1,24
 207 177 207 177 241.5 177 c 128,-1,25
 276 177 276 177 298 192 c 0,26,27
 337 217 337 217 337 276 c 0,28,29
 337 360 337 360 274 386 c 0,30,31
 259 392 259 392 255 399 c 128,-1,32
 251 406 251 406 251 427.5 c 128,-1,33
 251 449 251 449 254 453.5 c 128,-1,34
 257 458 257 458 277.5 458 c 128,-1,35
 298 458 298 458 332.5 438.5 c 128,-1,36
 367 419 367 419 393.5 381.5 c 128,-1,37
 420 344 420 344 420 286 c 0,38,39
 420 263 420 263 414 239 c 0,40,41
 400 176 400 176 354 141 c 0,42,43
 309 106 309 106 237 106 c 0,44,45
 236 106 236 106 234 106 c 0,46,47
 160 106 160 106 111.5 154.5 c 128,-1,48
 63 203 63 203 63 282 c 0,49,50
 63 398 63 398 169 447 c 0,10,11
239 579 m 1,51,-1
 266 535 l 1,52,-1
 373 554 l 1,53,-1
 373 500 l 1,54,-1
 266 483 l 1,55,-1
 239 526 l 1,56,-1
 140 500 l 1,57,-1
 140 554 l 1,58,-1
 236 578 l 1,59,-1
 239 579 l 1,51,-1
EndSplineSet
Validated: 1
EndChar

StartChar: odieresis
Encoding: 246 246 253
Width: 483
Flags: W
LayerCount: 2
Fore
SplineSet
242 242 m 0,0,1
 205 242 205 242 205 287 c 0,2,3
 205 306 205 306 216 314 c 0,4,5
 228 324 228 324 241 324 c 128,-1,6
 254 324 254 324 267.5 311.5 c 128,-1,7
 281 299 281 299 281 283 c 128,-1,8
 281 267 281 267 269.5 254.5 c 128,-1,9
 258 242 258 242 242 242 c 0,0,1
169 447 m 0,10,11
 193 458 193 458 207 458 c 128,-1,12
 221 458 221 458 224 452.5 c 128,-1,13
 227 447 227 447 227 426.5 c 128,-1,14
 227 406 227 406 223 399 c 128,-1,15
 219 392 219 392 206 387 c 0,16,17
 178 374 178 374 160 344 c 0,18,19
 142 313 142 313 141 285 c 0,20,21
 142 259 142 259 154 234 c 0,22,23
 166 208 166 208 186.5 192.5 c 128,-1,24
 207 177 207 177 241.5 177 c 128,-1,25
 276 177 276 177 298 192 c 0,26,27
 337 217 337 217 337 276 c 0,28,29
 337 360 337 360 274 386 c 0,30,31
 259 392 259 392 255 399 c 128,-1,32
 251 406 251 406 251 427.5 c 128,-1,33
 251 449 251 449 254 453.5 c 128,-1,34
 257 458 257 458 277.5 458 c 128,-1,35
 298 458 298 458 332.5 438.5 c 128,-1,36
 367 419 367 419 393.5 381.5 c 128,-1,37
 420 344 420 344 420 286 c 0,38,39
 420 263 420 263 414 239 c 0,40,41
 400 176 400 176 354 141 c 0,42,43
 309 106 309 106 237 106 c 0,44,45
 236 106 236 106 234 106 c 0,46,47
 160 106 160 106 111.5 154.5 c 128,-1,48
 63 203 63 203 63 282 c 0,49,50
 63 398 63 398 169 447 c 0,10,11
183 519 m 1,51,-1
 215 519 l 1,52,-1
 215 481 l 1,53,-1
 183 481 l 1,54,-1
 183 519 l 1,51,-1
255 518 m 1,55,-1
 285 518 l 1,56,-1
 285 482 l 1,57,-1
 255 482 l 1,58,-1
 255 518 l 1,55,-1
EndSplineSet
Validated: 1
EndChar

StartChar: divide
Encoding: 247 247 254
Width: 410
Flags: W
LayerCount: 2
Fore
SplineSet
62 400 m 1,0,-1
 348 400 l 1,1,-1
 348 342 l 1,2,-1
 62 342 l 1,3,-1
 62 400 l 1,0,-1
179 487 m 1,4,-1
 211 487 l 1,5,-1
 212 449 l 1,6,-1
 180 449 l 1,7,-1
 179 487 l 1,4,-1
185 314 m 1,8,-1
 215 314 l 1,9,-1
 216 278 l 1,10,-1
 186 278 l 1,11,-1
 185 314 l 1,8,-1
EndSplineSet
Validated: 1
EndChar

StartChar: oslash
Encoding: 248 248 255
Width: 554
Flags: W
LayerCount: 2
Fore
SplineSet
201 447 m 0,0,1
 225 458 225 458 239 458 c 128,-1,2
 253 458 253 458 256 452.5 c 128,-1,3
 259 447 259 447 259 426.5 c 128,-1,4
 259 406 259 406 255 399 c 128,-1,5
 251 392 251 392 238 387 c 0,6,7
 209 374 209 374 191 344 c 128,-1,8
 173 314 173 314 173 288 c 128,-1,9
 173 262 173 262 184 238 c 1,10,-1
 237 273 l 1,11,-1
 237 287 l 2,12,13
 237 306 237 306 248 314 c 0,14,15
 260 324 260 324 272.5 324 c 128,-1,16
 285 324 285 324 298 313 c 1,17,-1
 351 348 l 1,18,19
 336 374 336 374 313.5 383 c 128,-1,20
 291 392 291 392 287 399 c 128,-1,21
 283 406 283 406 283 427.5 c 128,-1,22
 283 449 283 449 286 453.5 c 128,-1,23
 289 458 289 458 310 458 c 128,-1,24
 331 458 331 458 362.5 439.5 c 128,-1,25
 394 421 394 421 417 392 c 1,26,-1
 475 430 l 1,27,-1
 491 406 l 1,28,-1
 434 368 l 1,29,30
 452 334 452 334 452 298 c 0,31,32
 452 191 452 191 386 141 c 0,33,34
 340 106 340 106 265.5 106 c 128,-1,35
 191 106 191 106 143 155 c 0,36,37
 136 161 136 161 131 169 c 1,38,-1
 79 134 l 1,39,-1
 63 158 l 1,40,-1
 115 193 l 1,41,42
 95 231 95 231 95 282 c 0,43,44
 95 398 95 398 201 447 c 0,0,1
198 213 m 1,45,46
 223 176 223 176 272 176 c 2,47,-1
 274 176 l 2,48,49
 308 176 308 176 330 192 c 0,50,51
 369 217 369 217 369 276 c 0,52,53
 369 300 369 300 363 321 c 1,54,-1
 313 288 l 1,55,-1
 313 277.5 l 2,56,57
 313 267 313 267 301.5 254.5 c 128,-1,58
 290 242 290 242 275 242 c 128,-1,59
 260 242 260 242 251 248 c 1,60,-1
 198 213 l 1,45,46
EndSplineSet
Validated: 524289
EndChar

StartChar: ugrave
Encoding: 249 249 256
Width: 384
Flags: W
LayerCount: 2
Fore
SplineSet
153 459 m 1,0,-1
 217 476 l 1,1,-1
 139 596 l 1,2,-1
 119 553 l 1,3,-1
 153 459 l 1,0,-1
250 338 m 2,4,-1
 252 443 l 1,5,-1
 321 443 l 1,6,-1
 318 330 l 2,7,8
 316 243 316 243 314.5 226.5 c 128,-1,9
 313 210 313 210 302 192 c 0,10,11
 277 149 277 149 221 138 c 2,12,-1
 200 134 l 1,13,-1
 200 165 l 2,14,15
 200 198 200 198 215 202 c 0,16,17
 223 204 223 204 234 216 c 128,-1,18
 245 228 245 228 246.5 244 c 128,-1,19
 248 260 248 260 250 338 c 2,4,-1
63 342 m 2,20,-1
 63 443 l 1,21,-1
 130 443 l 1,22,-1
 133 339 l 2,23,24
 134 256 134 256 139 234.5 c 128,-1,25
 144 213 144 213 158 206.5 c 128,-1,26
 172 200 172 200 174.5 193 c 128,-1,27
 177 186 177 186 177 165 c 2,28,-1
 177 134 l 1,29,-1
 159 137 l 2,30,31
 90 151 90 151 74 205 c 0,32,33
 63 242 63 242 63 342 c 2,20,-1
EndSplineSet
Validated: 9
EndChar

StartChar: ucircumflex
Encoding: 251 251 257
Width: 384
Flags: W
LayerCount: 2
Fore
SplineSet
190 610 m 1,0,-1
 313 501 l 1,1,-1
 304 459 l 1,2,-1
 190 552 l 1,3,-1
 88 453 l 1,4,-1
 78 502 l 1,5,-1
 190 610 l 1,0,-1
250 338 m 2,6,-1
 252 443 l 1,7,-1
 321 443 l 1,8,-1
 318 330 l 2,9,10
 316 243 316 243 314.5 226.5 c 128,-1,11
 313 210 313 210 302 192 c 0,12,13
 277 149 277 149 221 138 c 2,14,-1
 200 134 l 1,15,-1
 200 165 l 2,16,17
 200 198 200 198 215 202 c 0,18,19
 223 204 223 204 234 216 c 128,-1,20
 245 228 245 228 246.5 244 c 128,-1,21
 248 260 248 260 250 338 c 2,6,-1
63 342 m 2,22,-1
 63 443 l 1,23,-1
 130 443 l 1,24,-1
 133 339 l 2,25,26
 134 256 134 256 139 234.5 c 128,-1,27
 144 213 144 213 158 206.5 c 128,-1,28
 172 200 172 200 174.5 193 c 128,-1,29
 177 186 177 186 177 165 c 2,30,-1
 177 134 l 1,31,-1
 159 137 l 2,32,33
 90 151 90 151 74 205 c 0,34,35
 63 242 63 242 63 342 c 2,22,-1
EndSplineSet
Validated: 1
EndChar

StartChar: yacute
Encoding: 253 253 258
Width: 423
Flags: W
LayerCount: 2
Fore
SplineSet
172 499 m 1,0,-1
 224 474 l 1,1,-1
 276 623 l 1,2,-1
 228 636 l 1,3,-1
 172 499 l 1,0,-1
224 338 m 1,4,5
 246 376 246 376 286 452 c 1,6,-1
 324 452 l 2,7,8
 363 452 363 452 363 446 c 128,-1,9
 363 440 363 440 313 360 c 0,10,11
 262 280 262 280 257 279 c 0,12,13
 255 279 255 279 248.5 292.5 c 128,-1,14
 242 306 242 306 238 311 c 2,15,-1
 224 338 l 1,4,5
252 122 m 1,16,-1
 176 126 l 1,17,-1
 170 258 l 1,18,-1
 116 351 l 2,19,20
 60 446 60 446 60 449 c 128,-1,21
 60 452 60 452 102 452 c 2,22,-1
 142 452 l 1,23,24
 192 362 192 362 252 250 c 1,25,-1
 252 122 l 1,16,-1
EndSplineSet
Validated: 9
EndChar

StartChar: thorn
Encoding: 254 254 259
Width: 378
Flags: W
LayerCount: 2
Fore
SplineSet
184 399 m 2,0,1
 210 401 210 401 224 412.5 c 128,-1,2
 238 424 238 424 238 439 c 128,-1,3
 238 454 238 454 232 465.5 c 128,-1,4
 226 477 226 477 215.5 481 c 128,-1,5
 205 485 205 485 183.5 486.5 c 128,-1,6
 162 488 162 488 158 492 c 128,-1,7
 154 496 154 496 154 513.5 c 128,-1,8
 154 531 154 531 157 537 c 128,-1,9
 160 543 160 543 183 542.5 c 128,-1,10
 206 542 206 542 235 535 c 0,11,12
 290 522 290 522 306 489 c 0,13,14
 315 472 315 472 315 447 c 0,15,16
 315 400 315 400 284.5 374.5 c 128,-1,17
 254 349 254 349 196 347 c 2,18,-1
 157 346 l 1,19,-1
 157 397 l 1,20,-1
 184 399 l 2,0,1
141 590 m 1,21,-1
 144 281 l 1,22,-1
 63 281 l 1,23,-1
 63 594 l 1,24,-1
 141 590 l 1,21,-1
EndSplineSet
Validated: 1
EndChar

StartChar: ydieresis
Encoding: 255 255 260
Width: 425
Flags: W
LayerCount: 2
Fore
SplineSet
225 338 m 1,0,1
 247 376 247 376 287 452 c 1,2,-1
 325 452 l 2,3,4
 364 452 364 452 364 446 c 128,-1,5
 364 440 364 440 314 360 c 0,6,7
 263 280 263 280 258 279 c 0,8,9
 256 279 256 279 249.5 292.5 c 128,-1,10
 243 306 243 306 239 311 c 2,11,-1
 225 338 l 1,0,1
253 122 m 1,12,-1
 177 126 l 1,13,-1
 171 258 l 1,14,-1
 117 351 l 2,15,16
 61 446 61 446 61 449 c 128,-1,17
 61 452 61 452 103 452 c 2,18,-1
 143 452 l 1,19,20
 193 362 193 362 253 250 c 1,21,-1
 253 122 l 1,12,-1
EndSplineSet
Validated: 1
EndChar

StartChar: Amacron
Encoding: 256 256 261
Width: 628
Flags: W
LayerCount: 2
Fore
SplineSet
174 745 m 1,0,-1
 473 745 l 1,1,-1
 473 680 l 1,2,-1
 174 680 l 1,3,-1
 174 745 l 1,0,-1
225 126 m 2,4,5
 61 126 61 126 61 133 c 128,-1,6
 61 140 61 140 143 352 c 0,7,8
 225 566 225 566 230 583 c 128,-1,9
 235 600 235 600 243 600 c 1,10,11
 249 595 249 595 273 527 c 2,12,-1
 295 458 l 1,13,-1
 255 349 l 2,14,15
 216 244 216 244 216 231 c 0,16,17
 216 219 216 219 231 216 c 0,18,19
 245 213 245 213 298 213 c 128,-1,20
 351 213 351 213 362 205 c 128,-1,21
 373 197 373 197 387 147 c 1,22,-1
 391 126 l 1,23,-1
 225 126 l 2,4,5
541 126 m 0,24,25
 515 126 515 126 503 127 c 2,26,-1
 449 130 l 1,27,-1
 421 208 l 1,28,29
 269 617 269 617 269 626 c 0,30,31
 269 629 269 629 292 629 c 128,-1,32
 315 629 315 629 325 628 c 2,33,-1
 383 626 l 1,34,-1
 399 587 l 2,35,36
 463 436 463 436 516 292 c 0,37,38
 568 154 568 154 568 136 c 0,39,40
 568 126 568 126 541 126 c 0,24,25
EndSplineSet
Validated: 1
EndChar

StartChar: amacron
Encoding: 257 257 262
Width: 494
Flags: W
LayerCount: 2
Fore
SplineSet
135 537 m 1,0,-1
 357 537 l 1,1,-1
 357 472 l 1,2,-1
 135 472 l 1,3,-1
 135 537 l 1,0,-1
65 151 m 2,4,5
 67 162 67 162 120 283 c 128,-1,6
 173 404 173 404 177 411.5 c 128,-1,7
 181 419 181 419 184 419 c 0,8,9
 193 419 193 419 207 372 c 2,10,-1
 219 330 l 1,11,-1
 197 275 l 2,12,13
 173 222 173 222 173 213 c 0,14,15
 173 200 173 200 221 200 c 2,16,-1
 267 200 l 1,17,-1
 275 171 l 2,18,19
 279 154 279 154 279 145 c 0,20,21
 279 138 279 138 277 136 c 128,-1,22
 275 134 275 134 167 134 c 2,23,-1
 61 134 l 1,24,-1
 65 151 l 2,4,5
205 454 m 0,25,26
 205 459 205 459 247 459 c 2,27,-1
 293 459 l 1,28,-1
 305 432 l 2,29,30
 308 423 308 423 370.5 283.5 c 128,-1,31
 433 144 433 144 433 139.5 c 128,-1,32
 433 135 433 135 403 135 c 2,33,-1
 379 135 l 1,34,-1
 325 137 l 1,35,-1
 269 282 l 2,36,37
 205 445 205 445 205 454 c 0,25,26
EndSplineSet
Validated: 1
EndChar

StartChar: Abreve
Encoding: 258 258 263
Width: 628
Flags: W
LayerCount: 2
Fore
SplineSet
405 727 m 1,0,1
 356 683 356 683 308 683 c 0,2,3
 262 683 262 683 217 724 c 1,4,-1
 215 690 l 1,5,6
 260 649 260 649 306 649 c 0,7,8
 354 649 354 649 403 693 c 1,9,-1
 405 727 l 1,0,1
225 126 m 2,10,11
 61 126 61 126 61 133 c 128,-1,12
 61 140 61 140 143 352 c 0,13,14
 225 566 225 566 230 583 c 128,-1,15
 235 600 235 600 243 600 c 1,16,17
 249 595 249 595 273 527 c 2,18,-1
 295 458 l 1,19,-1
 255 349 l 2,20,21
 216 244 216 244 216 231 c 0,22,23
 216 219 216 219 231 216 c 0,24,25
 245 213 245 213 298 213 c 128,-1,26
 351 213 351 213 362 205 c 128,-1,27
 373 197 373 197 387 147 c 1,28,-1
 391 126 l 1,29,-1
 225 126 l 2,10,11
541 126 m 0,30,31
 515 126 515 126 503 127 c 2,32,-1
 449 130 l 1,33,-1
 421 208 l 1,34,35
 269 617 269 617 269 626 c 0,36,37
 269 629 269 629 292 629 c 128,-1,38
 315 629 315 629 325 628 c 2,39,-1
 383 626 l 1,40,-1
 399 587 l 2,41,42
 463 436 463 436 516 292 c 0,43,44
 568 154 568 154 568 136 c 0,45,46
 568 126 568 126 541 126 c 0,30,31
EndSplineSet
Validated: 9
EndChar

StartChar: abreve
Encoding: 259 259 264
Width: 494
Flags: W
LayerCount: 2
Fore
SplineSet
337 556 m 1,0,1
 288 512 288 512 240 512 c 0,2,3
 194 512 194 512 149 553 c 1,4,-1
 147 519 l 1,5,6
 192 478 192 478 238 478 c 0,7,8
 286 478 286 478 335 522 c 1,9,-1
 337 556 l 1,0,1
65 151 m 2,10,11
 67 162 67 162 120 283 c 128,-1,12
 173 404 173 404 177 411.5 c 128,-1,13
 181 419 181 419 184 419 c 0,14,15
 193 419 193 419 207 372 c 2,16,-1
 219 330 l 1,17,-1
 197 275 l 2,18,19
 173 222 173 222 173 213 c 0,20,21
 173 200 173 200 221 200 c 2,22,-1
 267 200 l 1,23,-1
 275 171 l 2,24,25
 279 154 279 154 279 145 c 0,26,27
 279 138 279 138 277 136 c 128,-1,28
 275 134 275 134 167 134 c 2,29,-1
 61 134 l 1,30,-1
 65 151 l 2,10,11
205 454 m 0,31,32
 205 459 205 459 247 459 c 2,33,-1
 293 459 l 1,34,-1
 305 432 l 2,35,36
 308 423 308 423 370.5 283.5 c 128,-1,37
 433 144 433 144 433 139.5 c 128,-1,38
 433 135 433 135 403 135 c 2,39,-1
 379 135 l 1,40,-1
 325 137 l 1,41,-1
 269 282 l 2,42,43
 205 445 205 445 205 454 c 0,31,32
EndSplineSet
Validated: 9
EndChar

StartChar: Aogonek
Encoding: 260 260 265
Width: 669
Flags: W
LayerCount: 2
Fore
SplineSet
476 128 m 1,0,1
 461 93 461 93 460 73 c 0,2,3
 460 68 460 68 461 64 c 0,4,5
 465 42 465 42 484 28 c 0,6,7
 500 16 500 16 521 16 c 0,8,9
 524 16 524 16 527 16 c 0,10,11
 551 18 551 18 572.5 34.5 c 128,-1,12
 594 51 594 51 602 76 c 1,13,-1
 609 63 l 1,14,15
 600 33 600 33 576 14 c 128,-1,16
 552 -5 552 -5 522 -6 c 0,17,18
 520 -6 520 -6 518 -6 c 0,19,20
 490 -6 490 -6 468 11 c 0,21,22
 444 30 444 30 438 54 c 0,23,24
 437 60 437 60 436 66 c 0,25,26
 436 89 436 89 451 124 c 1,27,-1
 476 128 l 1,0,1
225 126 m 2,28,29
 61 126 61 126 61 133 c 128,-1,30
 61 140 61 140 143 352 c 0,31,32
 225 566 225 566 230 583 c 128,-1,33
 235 600 235 600 243 600 c 1,34,35
 249 595 249 595 273 527 c 2,36,-1
 295 458 l 1,37,-1
 255 349 l 2,38,39
 216 244 216 244 216 231 c 0,40,41
 216 219 216 219 231 216 c 0,42,43
 245 213 245 213 298 213 c 128,-1,44
 351 213 351 213 362 205 c 128,-1,45
 373 197 373 197 387 147 c 1,46,-1
 391 126 l 1,47,-1
 225 126 l 2,28,29
541 126 m 0,48,49
 515 126 515 126 503 127 c 2,50,-1
 449 130 l 1,51,-1
 421 208 l 1,52,53
 269 617 269 617 269 626 c 0,54,55
 269 629 269 629 292 629 c 128,-1,56
 315 629 315 629 325 628 c 2,57,-1
 383 626 l 1,58,-1
 399 587 l 2,59,60
 463 436 463 436 516 292 c 0,61,62
 568 154 568 154 568 136 c 0,63,64
 568 126 568 126 541 126 c 0,48,49
EndSplineSet
Validated: 1
EndChar

StartChar: aogonek
Encoding: 261 261 266
Width: 494
Flags: W
LayerCount: 2
Fore
SplineSet
65 151 m 2,0,1
 67 162 67 162 120 283 c 128,-1,2
 173 404 173 404 177 411.5 c 128,-1,3
 181 419 181 419 184 419 c 0,4,5
 193 419 193 419 207 372 c 2,6,-1
 219 330 l 1,7,-1
 197 275 l 2,8,9
 173 222 173 222 173 213 c 0,10,11
 173 200 173 200 221 200 c 2,12,-1
 267 200 l 1,13,-1
 275 171 l 2,14,15
 279 154 279 154 279 145 c 0,16,17
 279 138 279 138 277 136 c 128,-1,18
 275 134 275 134 167 134 c 2,19,-1
 61 134 l 1,20,-1
 65 151 l 2,0,1
205 454 m 0,21,22
 205 459 205 459 247 459 c 2,23,-1
 293 459 l 1,24,-1
 305 432 l 2,25,26
 308 423 308 423 370.5 283.5 c 128,-1,27
 433 144 433 144 433 139.5 c 128,-1,28
 433 135 433 135 403 135 c 2,29,-1
 379 135 l 1,30,-1
 341 136 l 1,31,32
 330 109 330 109 330 94 c 0,33,34
 330 90 330 90 331 87 c 0,35,36
 334 71 334 71 346 60 c 0,37,38
 357 50 357 50 372 50 c 0,39,40
 374 50 374 50 376 50 c 0,41,42
 393 52 393 52 407 64.5 c 128,-1,43
 421 77 421 77 427 97 c 1,44,-1
 432 86 l 1,45,46
 425 64 425 64 409 50 c 0,47,48
 392 36 392 36 372 34 c 0,49,50
 371 34 371 34 370 34 c 0,51,52
 352 34 352 34 336 47 c 0,53,54
 320 62 320 62 315 80 c 0,55,56
 314 84 314 84 314 89 c 0,57,58
 314 107 314 107 325 137 c 1,59,-1
 269 282 l 2,60,61
 205 445 205 445 205 454 c 0,21,22
EndSplineSet
Validated: 1
EndChar

StartChar: Cacute
Encoding: 262 262 267
Width: 552
Flags: W
LayerCount: 2
Fore
SplineSet
365 232 m 2,0,1
 402 238 402 238 420 251.5 c 128,-1,2
 438 265 438 265 443 265 c 0,3,4
 453 265 453 265 471 226.5 c 128,-1,5
 489 188 489 188 489 180 c 0,6,7
 489 167 489 167 448 150.5 c 128,-1,8
 407 134 407 134 369 129 c 2,9,-1
 323 123 l 1,10,-1
 325 174 l 1,11,-1
 328 226 l 1,12,-1
 365 232 l 2,0,1
324 553 m 1,13,-1
 324 650 l 1,14,-1
 374 645 l 2,15,16
 409 642 409 642 449 627.5 c 128,-1,17
 489 613 489 613 489 601 c 0,18,19
 489 592 489 592 469.5 554.5 c 128,-1,20
 450 517 450 517 440 517 c 0,21,22
 434 517 434 517 408.5 529.5 c 128,-1,23
 383 542 383 542 357 547 c 2,24,-1
 324 553 l 1,13,-1
210 629 m 0,25,26
 249 647 249 647 270 647 c 128,-1,27
 291 647 291 647 294 640.5 c 128,-1,28
 297 634 297 634 297 599.5 c 128,-1,29
 297 565 297 565 292.5 556.5 c 128,-1,30
 288 548 288 548 267 537 c 0,31,32
 183 491 183 491 183 388.5 c 128,-1,33
 183 286 183 286 267 237 c 0,34,35
 284 228 284 228 290.5 220.5 c 128,-1,36
 297 213 297 213 297 184 c 128,-1,37
 297 155 297 155 291 141.5 c 128,-1,38
 285 128 285 128 270.5 128 c 128,-1,39
 256 128 256 128 228 139 c 0,40,41
 126 178 126 178 82 272 c 0,42,43
 63 313 63 313 63 369 c 0,44,45
 63 480 63 480 98 537 c 128,-1,46
 133 594 133 594 210 629 c 0,25,26
273 695 m 1,47,-1
 375 672 l 1,48,-1
 417 757 l 1,49,-1
 355 762 l 1,50,-1
 273 695 l 1,47,-1
EndSplineSet
Validated: 9
EndChar

